<svg id="Grupo_887125" data-name="Grupo 887125" xmlns="http://www.w3.org/2000/svg" xmlns:xlink="http://www.w3.org/1999/xlink" width="610" height="525.233" viewBox="0 0 610 525.233">
  <defs>
    <clipPath id="clip-path">
      <rect id="Rectángulo_325820" data-name="Rectángulo 325820" width="610" height="525.233" fill="none"/>
    </clipPath>
    <clipPath id="clip-path-2">
      <rect id="Rectángulo_325819" data-name="Rectángulo 325819" width="610" height="525.232" fill="none"/>
    </clipPath>
    <clipPath id="clip-path-3">
      <rect id="Rectángulo_325813" data-name="Rectángulo 325813" width="153.437" height="6.909" fill="none"/>
    </clipPath>
    <clipPath id="clip-path-4">
      <rect id="Rectángulo_325814" data-name="Rectángulo 325814" width="144.142" height="144.142" fill="none"/>
    </clipPath>
    <clipPath id="clip-path-5">
      <rect id="Rectángulo_325816" data-name="Rectángulo 325816" width="142.534" height="142.532" fill="none"/>
    </clipPath>
    <clipPath id="clip-path-6">
      <path id="Trazado_621608" data-name="Trazado 621608" d="M841.225,554.536a71.273,71.273,0,1,0,18.139-69.862,70.946,70.946,0,0,0-18.139,69.862" transform="translate(-838.517 -463.774)" fill="none"/>
    </clipPath>
    <radialGradient id="radial-gradient" cx="0.5" cy="0.5" r="0.417" gradientTransform="translate(-4.06 4.086) rotate(180) scale(1.03 1)" gradientUnits="objectBoundingBox">
      <stop offset="0" stop-color="#fff"/>
      <stop offset="0.381" stop-color="#fdfdfd"/>
      <stop offset="0.518" stop-color="#f6f6f6"/>
      <stop offset="0.616" stop-color="#eaeaea"/>
      <stop offset="0.695" stop-color="#d9d9d9"/>
      <stop offset="0.763" stop-color="#c3c3c3"/>
      <stop offset="0.823" stop-color="#a8a8a8"/>
      <stop offset="0.877" stop-color="#878787"/>
      <stop offset="0.927" stop-color="#626262"/>
      <stop offset="0.971" stop-color="#393939"/>
      <stop offset="1" stop-color="#1a1a1a"/>
    </radialGradient>
    <clipPath id="clip-path-7">
      <rect id="Rectángulo_325817" data-name="Rectángulo 325817" width="32.403" height="22.325" fill="none"/>
    </clipPath>
    <clipPath id="clip-path-8">
      <rect id="Rectángulo_325818" data-name="Rectángulo 325818" width="136.962" height="78.746" fill="none"/>
    </clipPath>
  </defs>
  <g id="Grupo_887124" data-name="Grupo 887124" clip-path="url(#clip-path)">
    <g id="Grupo_887123" data-name="Grupo 887123" transform="translate(0 0)">
      <g id="Grupo_887122" data-name="Grupo 887122" clip-path="url(#clip-path-2)">
        <path id="Trazado_621559" data-name="Trazado 621559" d="M103.757,133.66a17.908,17.908,0,1,1-13.646-21.336,17.909,17.909,0,0,1,13.646,21.336" transform="translate(-40.343 -66.045)" fill="#c6dbe5"/>
        <path id="Trazado_621560" data-name="Trazado 621560" d="M77.528,103.62l12.07.816L91.848,94.2l-11.3-4.322h0a34.417,34.417,0,0,0-2.165-12.458l9.186-7.878-5.565-8.877L70.911,65.5a34.454,34.454,0,0,0-10.837-7.638l.816-12.07L50.657,43.547l-4.322,11.3A34.431,34.431,0,0,0,33.583,57.12l-7.959-9.114L16.8,53.651,21.732,64.7a34.447,34.447,0,0,0-7.411,10.622h0l-12.07-.816L0,84.738l11.3,4.322h0a34.445,34.445,0,0,0,2.273,12.751L4.459,109.77,10.1,118.6l11.048-4.936a34.407,34.407,0,0,0,10.622,7.413l-.816,12.07,10.232,2.249,4.322-11.3a34.416,34.416,0,0,0,12.751-2.274h0l7.96,9.115,8.826-5.645-4.935-11.049a34.432,34.432,0,0,0,7.413-10.621Zm-36.481,8.03A22.709,22.709,0,1,1,68.1,94.347a22.708,22.708,0,0,1-27.056,17.3" transform="translate(0 -25.702)" fill="#c6dbe5"/>
        <path id="Trazado_621561" data-name="Trazado 621561" d="M103.757,133.66a17.908,17.908,0,1,1-13.646-21.336,17.909,17.909,0,0,1,13.646,21.336" transform="translate(-40.343 -66.045)" fill="#c6dbe5"/>
        <path id="Trazado_621562" data-name="Trazado 621562" d="M66.676,142.888a27.417,27.417,0,1,1,20.66-3.68,27.236,27.236,0,0,1-20.66,3.68m11.432-52a25.823,25.823,0,1,0,19.676,30.765A25.852,25.852,0,0,0,78.108,90.89" transform="translate(-26.64 -52.341)" fill="#7f97a0"/>
        <path id="Trazado_621563" data-name="Trazado 621563" d="M103.757,133.66a17.908,17.908,0,1,1-13.646-21.336,17.909,17.909,0,0,1,13.646,21.336" transform="translate(-40.343 -66.045)" fill="#c6dbe5"/>
        <path id="Trazado_621564" data-name="Trazado 621564" d="M266.565,190.846l7.805.528,1.455-6.617-7.307-2.795h0a22.25,22.25,0,0,0-1.4-8.056l5.94-5.094-3.6-5.74-7.174,3.127a22.28,22.28,0,0,0-7.008-4.939l.528-7.805L249.189,152l-2.795,7.307a22.267,22.267,0,0,0-8.246,1.471L233,154.884l-5.708,3.65,3.191,7.144a22.277,22.277,0,0,0-4.793,6.869h0l-7.805-.528-1.455,6.617,7.307,2.795h0a22.269,22.269,0,0,0,1.47,8.246l-5.893,5.147,3.65,5.708,7.144-3.192a22.263,22.263,0,0,0,6.869,4.793l-.528,7.805,6.617,1.455,2.795-7.307a22.248,22.248,0,0,0,8.245-1.471h0l5.147,5.895,5.707-3.65-3.192-7.145a22.259,22.259,0,0,0,4.794-6.867Zm-23.591,5.193a14.685,14.685,0,1,1,17.5-11.189,14.684,14.684,0,0,1-17.5,11.189" transform="translate(-127.738 -89.711)" fill="#c6dbe5"/>
        <path id="Trazado_621565" data-name="Trazado 621565" d="M259.547,216.239a17.73,17.73,0,1,1,13.36-2.38,17.613,17.613,0,0,1-13.36,2.38m7.393-33.625a16.7,16.7,0,1,0,12.723,19.894,16.717,16.717,0,0,0-12.723-19.894" transform="translate(-144.964 -106.937)" fill="#7f97a0"/>
        <path id="Trazado_621566" data-name="Trazado 621566" d="M172.991,288.391l5.643.382,1.052-4.784-5.282-2.02h0a16.089,16.089,0,0,0-1.012-5.824l4.295-3.683-2.6-4.15-5.187,2.261A16.085,16.085,0,0,0,164.831,267l.382-5.643-4.784-1.052-2.02,5.282a16.1,16.1,0,0,0-5.961,1.063l-3.721-4.261-4.126,2.639,2.307,5.165a16.107,16.107,0,0,0-3.465,4.966h0l-5.643-.382-1.052,4.784,5.283,2.02h0a16.1,16.1,0,0,0,1.062,5.961l-4.261,3.721,2.639,4.126,5.165-2.307a16.086,16.086,0,0,0,4.966,3.466l-.382,5.643L156,303.245l2.02-5.283a16.083,16.083,0,0,0,5.961-1.063h0l3.721,4.262,4.126-2.639-2.307-5.166a16.107,16.107,0,0,0,3.466-4.965Zm-17.055,3.754a10.616,10.616,0,1,1,12.648-8.089,10.616,10.616,0,0,1-12.648,8.089" transform="translate(-80.708 -153.634)" fill="#c6dbe5"/>
        <path id="Trazado_621567" data-name="Trazado 621567" d="M185.47,303a7.907,7.907,0,1,1-6.025-9.421A7.907,7.907,0,0,1,185.47,303" transform="translate(-100.238 -173.163)" fill="#c6dbe5"/>
        <path id="Trazado_621568" data-name="Trazado 621568" d="M181.311,843.442c29.531,46.312,25.187,103.32,23.779,115.945-.185,1.663-.318,2.554-.318,2.554s-.863-.255-2.449-.79c-9.461-3.179-44.517-16.27-73.432-44.2l0-.005c-1.128-1.085-2.252-2.2-3.358-3.337l0-.005a142.7,142.7,0,0,1-18.294-22.928c-11.342-17.787-17.69-37.155-21.12-54.974-.209-1.072-.405-2.137-.587-3.2a213.105,213.105,0,0,1-2.068-57.762c.185-1.663.318-2.553.318-2.553s.863.255,2.449.789c9.866,3.313,47.542,17.4,77.083,47.835.845.873,1.691,1.76,2.52,2.659a141.334,141.334,0,0,1,15.484,19.974" transform="translate(-48.624 -455.744)" fill="#ced371"/>
        <path id="Trazado_621569" data-name="Trazado 621569" d="M164.849,820.81l-15.108,49.358L87.766,772.975c-1.586-.534-2.449-.789-2.449-.789s-.133.89-.318,2.553l37.73,59.169L87.067,832.5c.182,1.067.379,2.132.587,3.2l37.149,1.457,50.248,78.8-47.979-2.351c1.106,1.136,2.23,2.253,3.358,3.337l0,.005,46.709,2.289,26.723,41.907c1.586.534,2.449.79,2.449.79s.133-.891.318-2.554L151.99,873.694l15.379-50.226c-.83-.9-1.676-1.785-2.521-2.659" transform="translate(-50.166 -455.744)" fill="#181a23"/>
        <path id="Trazado_621570" data-name="Trazado 621570" d="M120.362,991.607c39.912,26.36,54.5,76.54,57.346,87.846.376,1.489.549,2.3.549,2.3s-.815.16-2.332.4c-9.05,1.43-43,5.616-76.5-5.438l0,0c-1.305-.427-2.617-.883-3.92-1.363l0,0A110.35,110.35,0,0,1,72.618,1063.9c-15.329-10.124-26.924-23.762-35.548-37.361-.52-.817-1.029-1.633-1.525-2.458a182.854,182.854,0,0,1-20.268-48.025c-.376-1.489-.549-2.3-.549-2.3s.815-.16,2.332-.4c9.436-1.493,45.934-5.976,80.764,6.928,1,.372,2,.755,2.992,1.154a109.179,109.179,0,0,1,19.546,10.171" transform="translate(-8.692 -573.308)" fill="#ffb500"/>
        <path id="Trazado_621571" data-name="Trazado 621571" d="M97.824,983.128l3,48.39L17.06,976.2c-1.517.239-2.332.4-2.332.4s.173.812.549,2.3l50.991,33.677-30.723,14.347c.5.825,1,1.641,1.525,2.458l32-14.954,67.91,44.851L95.5,1078.194c1.3.48,2.615.936,3.92,1.363l0,0,40.384-18.414L175.924,1085c1.518-.239,2.332-.4,2.332-.4s-.173-.812-.549-2.3l-73.848-48.773-3.043-49.244c-.992-.4-1.994-.782-2.992-1.154" transform="translate(-8.692 -576.153)" fill="#c48326"/>
        <path id="Trazado_621572" data-name="Trazado 621572" d="M599.921,126.067V571a18.007,18.007,0,0,1-18.007,18.007h-305.3A18.007,18.007,0,0,1,258.6,571V126.067a18.007,18.007,0,0,1,18.007-18.007h305.3a18.007,18.007,0,0,1,18.007,18.007" transform="translate(-152.627 -63.777)" fill="#ced371"/>
        <path id="Trazado_621573" data-name="Trazado 621573" d="M599.921,634.336v108.65A10.525,10.525,0,0,1,589.4,753.51H269.126A10.525,10.525,0,0,1,258.6,742.987V386.78Z" transform="translate(-152.627 -228.278)" fill="#9ea257"/>
        <path id="Trazado_621574" data-name="Trazado 621574" d="M306.994,591.887V166.467a6.489,6.489,0,0,1,6.489-6.49H602.162a6.489,6.489,0,0,1,6.489,6.49v425.42a6.489,6.489,0,0,1-6.489,6.489H313.483a6.489,6.489,0,0,1-6.489-6.489" transform="translate(-181.188 -94.419)" fill="#fff"/>
        <path id="Trazado_621575" data-name="Trazado 621575" d="M620.062,28.465h-30.6a25.131,25.131,0,1,0-49.819,0h-30.6a21.212,21.212,0,0,0-21.212,21.212V75.085H641.274V49.677a21.21,21.21,0,0,0-21.212-21.212m-71.377-3.332a15.865,15.865,0,1,1,.352,3.332,15.871,15.871,0,0,1-.352-3.332" transform="translate(-287.921 -0.001)" fill="#ced371"/>
        <g id="Grupo_887107" data-name="Grupo 887107" transform="translate(199.916 68.174)" opacity="0.3" style="mix-blend-mode: multiply;isolation: isolate">
          <g id="Grupo_887106" data-name="Grupo 887106">
            <g id="Grupo_887105" data-name="Grupo 887105" clip-path="url(#clip-path-3)">
              <rect id="Rectángulo_325812" data-name="Rectángulo 325812" width="153.437" height="6.909" transform="translate(0 0.001)" fill="#999"/>
            </g>
          </g>
        </g>
        <path id="Trazado_621576" data-name="Trazado 621576" d="M434.886,545.485H391.375A4.488,4.488,0,0,1,386.892,541V497.491a4.488,4.488,0,0,1,4.483-4.483h43.511a4.488,4.488,0,0,1,4.482,4.483V541a4.488,4.488,0,0,1-4.482,4.483m-43.511-50.018a2.027,2.027,0,0,0-2.024,2.024V541a2.027,2.027,0,0,0,2.024,2.024h43.511A2.027,2.027,0,0,0,436.91,541V497.491a2.027,2.027,0,0,0-2.024-2.024Z" transform="translate(-228.344 -290.974)" fill="#787c2d"/>
        <path id="Trazado_621577" data-name="Trazado 621577" d="M721.1,508.519H559.81a2.527,2.527,0,0,1-2.527-2.526v-.683a2.527,2.527,0,0,1,2.527-2.527H721.1a2.527,2.527,0,0,1,2.526,2.527v.683a2.526,2.526,0,0,1-2.526,2.526" transform="translate(-328.908 -296.743)" fill="#636363"/>
        <path id="Trazado_621578" data-name="Trazado 621578" d="M721.1,540.021H559.81a2.527,2.527,0,0,1-2.527-2.526v-.683a2.527,2.527,0,0,1,2.527-2.527H721.1a2.527,2.527,0,0,1,2.526,2.527v.683a2.526,2.526,0,0,1-2.526,2.526" transform="translate(-328.908 -315.335)" fill="#636363"/>
        <path id="Trazado_621579" data-name="Trazado 621579" d="M721.1,571.522H559.81A2.527,2.527,0,0,1,557.283,569v-.683a2.527,2.527,0,0,1,2.527-2.527H721.1a2.527,2.527,0,0,1,2.526,2.527V569a2.526,2.526,0,0,1-2.526,2.526" transform="translate(-328.908 -333.927)" fill="#636363"/>
        <path id="Trazado_621580" data-name="Trazado 621580" d="M721.1,603.025H559.81a2.527,2.527,0,0,1-2.527-2.526v-.683a2.527,2.527,0,0,1,2.527-2.527H721.1a2.527,2.527,0,0,1,2.526,2.527v.683a2.526,2.526,0,0,1-2.526,2.526" transform="translate(-328.908 -352.52)" fill="#636363"/>
        <path id="Trazado_621581" data-name="Trazado 621581" d="M411.181,552.445l-13.934-15.458,4.87-4.39,9.339,10.361L436.5,518.23l4.607,4.666Z" transform="translate(-234.455 -305.86)" fill="#a3314f"/>
        <path id="Trazado_621582" data-name="Trazado 621582" d="M434.886,720.382H391.375a4.488,4.488,0,0,1-4.483-4.483V672.388a4.488,4.488,0,0,1,4.483-4.482h43.511a4.488,4.488,0,0,1,4.482,4.482V715.9a4.488,4.488,0,0,1-4.482,4.483m-43.511-50.017a2.026,2.026,0,0,0-2.024,2.024V715.9a2.027,2.027,0,0,0,2.024,2.024h43.511a2.027,2.027,0,0,0,2.024-2.024V672.388a2.027,2.027,0,0,0-2.024-2.024Z" transform="translate(-228.344 -394.198)" fill="#787c2d"/>
        <path id="Trazado_621583" data-name="Trazado 621583" d="M721.1,683.417H559.81a2.527,2.527,0,0,1-2.527-2.527v-.683a2.527,2.527,0,0,1,2.527-2.527H721.1a2.527,2.527,0,0,1,2.526,2.527v.683a2.526,2.526,0,0,1-2.526,2.527" transform="translate(-328.908 -399.968)" fill="#636363"/>
        <path id="Trazado_621584" data-name="Trazado 621584" d="M721.1,714.918H559.81a2.527,2.527,0,0,1-2.527-2.527v-.683a2.527,2.527,0,0,1,2.527-2.527H721.1a2.527,2.527,0,0,1,2.526,2.527v.683a2.526,2.526,0,0,1-2.526,2.527" transform="translate(-328.908 -418.559)" fill="#636363"/>
        <path id="Trazado_621585" data-name="Trazado 621585" d="M721.1,746.42H559.81a2.527,2.527,0,0,1-2.527-2.527v-.683a2.527,2.527,0,0,1,2.527-2.527H721.1a2.527,2.527,0,0,1,2.526,2.527v.683a2.526,2.526,0,0,1-2.526,2.527" transform="translate(-328.908 -437.152)" fill="#636363"/>
        <path id="Trazado_621586" data-name="Trazado 621586" d="M721.1,777.921H559.81a2.527,2.527,0,0,1-2.527-2.527v-.683a2.527,2.527,0,0,1,2.527-2.527H721.1a2.527,2.527,0,0,1,2.526,2.527v.683a2.526,2.526,0,0,1-2.526,2.527" transform="translate(-328.908 -455.744)" fill="#636363"/>
        <path id="Trazado_621587" data-name="Trazado 621587" d="M411.181,727.343l-13.934-15.458,4.87-4.39,9.339,10.361L436.5,693.128l4.607,4.666Z" transform="translate(-234.455 -409.084)" fill="#a3314f"/>
        <path id="Trazado_621588" data-name="Trazado 621588" d="M434.886,895.279H391.375a4.488,4.488,0,0,1-4.483-4.483V847.286a4.488,4.488,0,0,1,4.483-4.483h43.511a4.488,4.488,0,0,1,4.482,4.483V890.8a4.488,4.488,0,0,1-4.482,4.483m-43.511-50.017a2.027,2.027,0,0,0-2.024,2.024V890.8a2.027,2.027,0,0,0,2.024,2.024h43.511a2.027,2.027,0,0,0,2.024-2.024V847.286a2.027,2.027,0,0,0-2.024-2.024Z" transform="translate(-228.344 -497.423)" fill="#787c2d"/>
        <path id="Trazado_621589" data-name="Trazado 621589" d="M721.1,858.314H559.81a2.527,2.527,0,0,1-2.527-2.526V855.1a2.527,2.527,0,0,1,2.527-2.527H721.1a2.527,2.527,0,0,1,2.526,2.527v.683a2.526,2.526,0,0,1-2.526,2.526" transform="translate(-328.908 -503.192)" fill="#636363"/>
        <path id="Trazado_621590" data-name="Trazado 621590" d="M721.1,889.816H559.81a2.527,2.527,0,0,1-2.527-2.526v-.683a2.527,2.527,0,0,1,2.527-2.527H721.1a2.527,2.527,0,0,1,2.526,2.527v.683a2.526,2.526,0,0,1-2.526,2.526" transform="translate(-328.908 -521.784)" fill="#636363"/>
        <path id="Trazado_621591" data-name="Trazado 621591" d="M721.1,921.318H559.81a2.527,2.527,0,0,1-2.527-2.526v-.683a2.527,2.527,0,0,1,2.527-2.527H721.1a2.527,2.527,0,0,1,2.526,2.527v.683a2.526,2.526,0,0,1-2.526,2.526" transform="translate(-328.908 -540.376)" fill="#636363"/>
        <path id="Trazado_621592" data-name="Trazado 621592" d="M721.1,952.819H559.81a2.527,2.527,0,0,1-2.527-2.526v-.683a2.527,2.527,0,0,1,2.527-2.527H721.1a2.527,2.527,0,0,1,2.526,2.527v.683a2.526,2.526,0,0,1-2.526,2.526" transform="translate(-328.908 -558.969)" fill="#636363"/>
        <path id="Trazado_621593" data-name="Trazado 621593" d="M411.181,902.24l-13.934-15.458,4.87-4.39,9.339,10.361L436.5,868.025l4.607,4.666Z" transform="translate(-234.455 -512.309)" fill="#a3314f"/>
        <path id="Trazado_621594" data-name="Trazado 621594" d="M434.886,1070.177H391.375a4.488,4.488,0,0,1-4.483-4.483v-43.511a4.488,4.488,0,0,1,4.483-4.483h43.511a4.488,4.488,0,0,1,4.482,4.483v43.511a4.488,4.488,0,0,1-4.482,4.483m-43.511-50.017a2.027,2.027,0,0,0-2.024,2.024v43.511a2.027,2.027,0,0,0,2.024,2.024h43.511a2.027,2.027,0,0,0,2.024-2.024v-43.511a2.027,2.027,0,0,0-2.024-2.024Z" transform="translate(-228.344 -600.647)" fill="#787c2d"/>
        <path id="Trazado_621595" data-name="Trazado 621595" d="M721.1,1033.212H559.81a2.527,2.527,0,0,1-2.527-2.526V1030a2.527,2.527,0,0,1,2.527-2.527H721.1a2.527,2.527,0,0,1,2.526,2.527v.683a2.526,2.526,0,0,1-2.526,2.526" transform="translate(-328.908 -606.417)" fill="#636363"/>
        <path id="Trazado_621596" data-name="Trazado 621596" d="M721.1,1064.714H559.81a2.527,2.527,0,0,1-2.527-2.527v-.683a2.527,2.527,0,0,1,2.527-2.527H721.1a2.527,2.527,0,0,1,2.526,2.527v.683a2.526,2.526,0,0,1-2.526,2.527" transform="translate(-328.908 -625.008)" fill="#636363"/>
        <path id="Trazado_621597" data-name="Trazado 621597" d="M721.1,1096.216H559.81a2.527,2.527,0,0,1-2.527-2.526v-.683a2.527,2.527,0,0,1,2.527-2.527H721.1a2.527,2.527,0,0,1,2.526,2.527v.683a2.526,2.526,0,0,1-2.526,2.526" transform="translate(-328.908 -643.601)" fill="#636363"/>
        <path id="Trazado_621598" data-name="Trazado 621598" d="M721.1,1127.716H559.81a2.527,2.527,0,0,1-2.527-2.526v-.683a2.527,2.527,0,0,1,2.527-2.527H721.1a2.527,2.527,0,0,1,2.526,2.527v.683a2.526,2.526,0,0,1-2.526,2.526" transform="translate(-328.908 -662.193)" fill="#636363"/>
        <path id="Trazado_621599" data-name="Trazado 621599" d="M411.181,1077.138l-13.934-15.458,4.87-4.39,9.339,10.361,25.041-24.728,4.607,4.666Z" transform="translate(-234.455 -615.533)" fill="#b0c0d2"/>
        <path id="Trazado_621600" data-name="Trazado 621600" d="M1134.139,1105.927c-18.6,2.517-.176,16.32,15.174,33.469,16.561,16.521,30.044,36.387,29.546,36.523-.368,0-1.026-17.613-7.62-35.552-6.368-17.826-18.671-35.976-37.1-34.44" transform="translate(-664.748 -652.664)" fill="#ced371"/>
        <path id="Trazado_621601" data-name="Trazado 621601" d="M1307.384,1131.053c15.379,2.262-.481,14.2-14.157,28.809-14.623,14.1-27.061,30.868-26.694,30.988.281.021,1.657-15.306,8.088-30.685,6.222-15.309,17.5-30.669,32.763-29.113" transform="translate(-747.502 -667.483)" fill="#ced371"/>
        <path id="Trazado_621602" data-name="Trazado 621602" d="M1244.972,1035.9c22.493-6.012,17.1,18.316,10.76,44.32-7.059,25.987-15.075,53.651-14.339,53.914.321-.224-5.607-20.8-10.513-43.438-4.224-22.6-7.428-47.278,14.092-54.8" transform="translate(-724.652 -610.845)" fill="#ced371"/>
        <path id="Trazado_621603" data-name="Trazado 621603" d="M1200.273,1190.155a.586.586,0,0,0,.187-.031.557.557,0,0,0,.349-.707,187.907,187.907,0,0,0-13.913-30.651c-8.006-14.521-19.389-28.321-22.95-29.68a1.164,1.164,0,0,0-1.17.222.437.437,0,0,0,.14.773c2.607,1.1,11.164,10.459,18.747,22.589a186.657,186.657,0,0,1,18.082,37.112.565.565,0,0,0,.529.372" transform="translate(-686.164 -666.344)" fill="#181a23"/>
        <path id="Trazado_621604" data-name="Trazado 621604" d="M1265.709,1203.069a.562.562,0,0,0,.557-.381c7.365-21.9,18.328-38.928,32.279-51.02.259-.224.182-.583-.172-.8a1,1,0,0,0-1.111.013c-13.951,12.249-24.843,29.431-32.066,51.463a.556.556,0,0,0,.361.7.6.6,0,0,0,.152.028" transform="translate(-746.702 -679.146)" fill="#181a23"/>
        <path id="Trazado_621605" data-name="Trazado 621605" d="M1257.255,1155.925c.018,0,.034,0,.052,0a.56.56,0,0,0,.525-.591c.01-.3-.956-14.858-1.472-32.543-.388-17.678-.324-38.484,4.707-51.139.118-.3-.189-.6-.687-.679s-1,.1-1.111.4c-4.961,12.778-4.852,33.666-4.314,51.4.666,17.741,1.76,32.33,1.752,32.633a.561.561,0,0,0,.548.517" transform="translate(-740.526 -632.078)" fill="#181a23"/>
        <path id="Trazado_621606" data-name="Trazado 621606" d="M1081.808,681.342l-97.345-97.219a25.468,25.468,0,0,0-8.758,1.554l-18.2-18.178A84.671,84.671,0,0,0,836.883,450.214a.04.04,0,0,0-.018.013q-3.242,2.659-6.271,5.686-2.99,2.994-5.616,6.2a84.663,84.663,0,0,0,61.107,138.178c1.386.078,2.77.113,4.157.116a85.192,85.192,0,0,0,9.395-.492c.138-.015.276-.027.414-.045.614-.07,1.226-.143,1.84-.226.135-.02.276-.04.414-.058a85.462,85.462,0,0,0,9.257-1.828q2.03-.519,4.034-1.141a84.028,84.028,0,0,0,26.714-13.913l18.2,18.177a25.371,25.371,0,0,0-1.539,8.758l97.348,97.227a12.717,12.717,0,0,0,13.286,3.042.9.9,0,0,1,.088-.033v0a25.384,25.384,0,0,0,8.4-5.125c.284-.256.557-.519.827-.79a25.556,25.556,0,0,0,5.907-9.247c.01-.028.021-.055.03-.083a12.713,12.713,0,0,0-3.051-13.289M914.2,582.972c-1.329.471-2.673.9-4.022,1.284a71.6,71.6,0,0,1-9.3,2.005c-.118.018-.239.033-.356.05-.607.085-1.217.163-1.826.233-.115.015-.233.027-.348.038a71.7,71.7,0,0,1-9.475.413c-1.394-.03-2.781-.1-4.167-.218a71.286,71.286,0,1,1,59.44-24.115q-1.546,1.768-3.23,3.453A71,71,0,0,1,914.2,582.972" transform="translate(-475.599 -254.427)" fill="#2b2e3f"/>
        <g id="Grupo_887110" data-name="Grupo 887110" transform="translate(342.82 189.25)" opacity="0.05" style="mix-blend-mode: multiply;isolation: isolate">
          <g id="Grupo_887109" data-name="Grupo 887109">
            <g id="Grupo_887108" data-name="Grupo 887108" clip-path="url(#clip-path-4)">
              <path id="Trazado_621607" data-name="Trazado 621607" d="M857.692,584.872a72.071,72.071,0,1,0-.054-101.924,72.069,72.069,0,0,0,.054,101.924M840.067,553.38A71.284,71.284,0,1,1,858.26,584.3a71.236,71.236,0,0,1-18.193-30.924" transform="translate(-836.555 -461.812)" fill="#999"/>
            </g>
          </g>
        </g>
        <g id="Grupo_887115" data-name="Grupo 887115" transform="translate(343.625 190.054)" opacity="0.3" style="mix-blend-mode: multiply;isolation: isolate">
          <g id="Grupo_887114" data-name="Grupo 887114">
            <g id="Grupo_887113" data-name="Grupo 887113" clip-path="url(#clip-path-5)">
              <g id="Grupo_887112" data-name="Grupo 887112" transform="translate(0 0)">
                <g id="Grupo_887111" data-name="Grupo 887111" clip-path="url(#clip-path-6)">
                  <rect id="Rectángulo_325815" data-name="Rectángulo 325815" width="166.001" height="171.029" transform="translate(-19.968 -5.345) rotate(-5.849)" fill="url(#radial-gradient)"/>
                </g>
              </g>
            </g>
          </g>
        </g>
        <g id="Grupo_887118" data-name="Grupo 887118" transform="translate(426.43 201.089)" opacity="0.2" style="mix-blend-mode: lighten;isolation: isolate">
          <g id="Grupo_887117" data-name="Grupo 887117">
            <g id="Grupo_887116" data-name="Grupo 887116" clip-path="url(#clip-path-7)">
              <path id="Trazado_621609" data-name="Trazado 621609" d="M1040.962,496.071c-1.929,5.269,3.588,12.134,12.323,15.332s17.381,1.521,19.311-3.748-3.588-12.133-12.323-15.332-17.381-1.52-19.311,3.748" transform="translate(-1040.578 -490.7)" fill="#fff"/>
            </g>
          </g>
        </g>
        <g id="Grupo_887121" data-name="Grupo 887121" transform="translate(346.332 253.843)" opacity="0.1" style="mix-blend-mode: lighten;isolation: isolate">
          <g id="Grupo_887120" data-name="Grupo 887120">
            <g id="Grupo_887119" data-name="Grupo 887119" clip-path="url(#clip-path-8)">
              <path id="Trazado_621610" data-name="Trazado 621610" d="M863.317,677.33a71.284,71.284,0,0,0,118.767-30.377c-12.322-13.041-33.527-23.214-58.5-26.463-36.032-4.685-68.167,6.571-78.461,25.916a70.959,70.959,0,0,0,18.194,30.924" transform="translate(-845.123 -619.431)" fill="#fff"/>
            </g>
          </g>
        </g>
        <path id="Trazado_621611" data-name="Trazado 621611" d="M1262.381,292.937h-76.935a10.378,10.378,0,0,1-10.306-9.16l-8.017-67.866a10.378,10.378,0,0,1,10.306-11.6H1270.4a10.378,10.378,0,0,1,10.306,11.6l-8.017,67.866a10.378,10.378,0,0,1-10.306,9.16" transform="translate(-688.793 -120.588)" fill="#a3314f"/>
        <path id="Trazado_621612" data-name="Trazado 621612" d="M1204.68,434.948a29.845,29.845,0,0,0,8.739-5.374,31.7,31.7,0,0,0,6.3-7.461,31.235,31.235,0,0,0,2.147-4.2c.161-.352.3-.716.435-1.083s.276-.723.4-1.088c.227-.75.492-1.46.672-2.219a41.612,41.612,0,0,0,1.367-9.083l15.221,3.861a55.205,55.205,0,0,1-5.975,10.639c-.571.832-1.238,1.615-1.856,2.406-.325.389-.665.767-1,1.146s-.665.754-1.022,1.112a40.333,40.333,0,0,1-4.428,4.028,38,38,0,0,1-10.083,5.694,32.192,32.192,0,0,1-10.844,2.17Z" transform="translate(-711.002 -238.7)" fill="#a3314f"/>
        <path id="Trazado_621613" data-name="Trazado 621613" d="M1289.843,277.051l-5.388-31.318a9.568,9.568,0,0,1-.132-1.577q0-6.745,8.8-6.745t8.8,6.7a8.852,8.852,0,0,1-.132,1.62l-5.388,31.318Zm3.285,6.439q7.709,0,7.709,7.709t-7.709,7.709q-7.71,0-7.709-7.709t7.709-7.709" transform="translate(-758.008 -140.12)" fill="#fff"/>
      </g>
    </g>
    <text id="PROCESO_DE" data-name="PROCESO DE" transform="translate(222.436 131.026)" font-size="18" font-family="SegoeUI, Segoe UI"><tspan x="0" y="0">PROCESO DE</tspan></text>
    <text id="EVALUACIÓN" transform="translate(172.441 168.703)" font-size="37" font-family="SegoeUI, Segoe UI"><tspan x="0" y="0">E</tspan><tspan y="0" letter-spacing="-0.036em">V</tspan><tspan y="0">A</tspan><tspan y="0" letter-spacing="-0.026em">L</tspan><tspan y="0" letter-spacing="-0.01em">U</tspan><tspan y="0" letter-spacing="-0.005em">A</tspan><tspan y="0">CIÓN</tspan></text>
  </g>
</svg>
