<svg xmlns="http://www.w3.org/2000/svg" xmlns:xlink="http://www.w3.org/1999/xlink" width="976.798" height="191.699" viewBox="0 0 976.798 191.699">
  <defs>
    <clipPath id="clip-path">
      <rect id="Rectángulo_325135" data-name="Rectángulo 325135" width="109.735" height="82.878" fill="none"/>
    </clipPath>
    <clipPath id="clip-path-2">
      <rect id="Rectángulo_325139" data-name="Rectángulo 325139" width="99.552" height="82.877" fill="none"/>
    </clipPath>
    <clipPath id="clip-path-3">
      <rect id="Rectángulo_325140" data-name="Rectángulo 325140" width="110.182" height="82.878" fill="none"/>
    </clipPath>
    <clipPath id="clip-path-4">
      <rect id="Rectángulo_325145" data-name="Rectángulo 325145" width="91.455" height="82.877" fill="none"/>
    </clipPath>
    <clipPath id="clip-path-5">
      <rect id="Rectángulo_325146" data-name="Rectángulo 325146" width="88.006" height="82.877" fill="none"/>
    </clipPath>
  </defs>
  <g id="Grupo_888223" data-name="Grupo 888223" transform="translate(-317.133 -480.578)">
    <g id="Grupo_887069" data-name="Grupo 887069" transform="translate(0 -57)">
      <g id="Grupo_887051" data-name="Grupo 887051" transform="translate(317.133 609.122)">
        <path id="Trazado_621444" data-name="Trazado 621444" d="M38.936,91.692H99.178L75.739,12.912,17.4,11.306Z" transform="translate(-13.563 -8.815)" fill="#8ecae6"/>
        <g id="Grupo_887050" data-name="Grupo 887050" transform="translate(0 0)">
          <g id="Grupo_887049" data-name="Grupo 887049" clip-path="url(#clip-path)">
            <path id="Trazado_621445" data-name="Trazado 621445" d="M1.484,19.017H5.939l-2.1-7.849c-3.6-.964-5.25,6.21-2.35,7.849" transform="translate(0 -8.637)" fill="#219ebc" fill-rule="evenodd"/>
            <path id="Trazado_621446" data-name="Trazado 621446" d="M167.126,246.927l11.861-6.33,11.859-6.33-5.53-5.53-5.53-5.53-6.329,11.859Z" transform="translate(-130.297 -174.021)" fill="#219ebc" fill-rule="evenodd"/>
            <path id="Trazado_621447" data-name="Trazado 621447" d="M273.764,0l11.06,11.06L235.639,60.245l0,0,0,0-.411-.035-2.948-.261-.325-3.388-3.388-.325-.261-2.948-.035-.411,0,0-.411-.036-2.948-.261-.325-3.388Z" transform="translate(-175.089 0)" fill="#fb8500" fill-rule="evenodd"/>
            <path id="Trazado_621448" data-name="Trazado 621448" d="M82.585,58.319h35.535l.975,3.639H83.56Z" transform="translate(-64.386 -45.468)" fill="#219ebc" fill-rule="evenodd"/>
            <path id="Trazado_621449" data-name="Trazado 621449" d="M96.133,101.535h35.534l.975,3.639H97.108Z" transform="translate(-74.949 -79.161)" fill="#219ebc" fill-rule="evenodd"/>
            <path id="Trazado_621450" data-name="Trazado 621450" d="M135.067,162.847l-2.5,3.126-7.062-5.89-4.718,5.89-3.747-3.125,4.718-5.89-7.062-5.889,2.5-3.125,7.061,5.89,4.718-5.89,3.747,3.126L128,156.957Z" transform="translate(-89.419 -115.341)" fill="#219ebc" fill-rule="evenodd"/>
          </g>
        </g>
      </g>
      <g id="Grupo_887054" data-name="Grupo 887054" transform="translate(491.224 609.122)">
        <rect id="Rectángulo_325136" data-name="Rectángulo 325136" width="33.838" height="82.877" transform="translate(46.937 0)" fill="#023047"/>
        <rect id="Rectángulo_325137" data-name="Rectángulo 325137" width="33.837" height="55.252" transform="translate(22.614 27.625)" fill="#219ebc"/>
        <rect id="Rectángulo_325138" data-name="Rectángulo 325138" width="33.837" height="27.626" transform="translate(0 55.251)" fill="#8ecae6"/>
        <g id="Grupo_887053" data-name="Grupo 887053" transform="translate(0 0)">
          <g id="Grupo_887052" data-name="Grupo 887052" clip-path="url(#clip-path-2)">
            <path id="Trazado_621451" data-name="Trazado 621451" d="M186.3,129.712a19.528,19.528,0,1,1-19.528,19.528A19.528,19.528,0,0,1,186.3,129.712" transform="translate(-130.025 -101.128)" fill="#8ecae6" fill-rule="evenodd"/>
            <path id="Trazado_621452" data-name="Trazado 621452" d="M160.9,131.125a21.2,21.2,0,0,0,34.659,24.406l6.32,4.163.42.558,2.774,3.682,13.787,9.083,3.407-5.17-13.787-9.083-4.477-1.1-.679-.166L197,153.338a21.205,21.205,0,0,0-36.1-22.213m2.692,1.774a17.982,17.982,0,1,1,5.124,24.908,17.982,17.982,0,0,1-5.124-24.908" transform="translate(-122.715 -94.791)" fill="#ffb703" fill-rule="evenodd"/>
          </g>
        </g>
      </g>
      <g id="Grupo_887056" data-name="Grupo 887056" transform="translate(657.909 609.122)">
        <g id="Grupo_887055" data-name="Grupo 887055" transform="translate(0 0)" clip-path="url(#clip-path-3)">
          <path id="Trazado_621453" data-name="Trazado 621453" d="M5.251,211a62.836,62.836,0,0,0-4.08,15.2,59.314,59.314,0,0,0-.513,6.134A52.668,52.668,0,0,1,.585,216.2a58.6,58.6,0,0,1,2-8.8Z" transform="translate(0 -161.692)" fill="#8ecae6" fill-rule="evenodd"/>
          <path id="Trazado_621454" data-name="Trazado 621454" d="M26.852,139.895a66.192,66.192,0,0,0-6.8,11.324l-2.869-3.934a63.487,63.487,0,0,1,6.377-12.466Z" transform="translate(-13.397 -105.11)" fill="#8ecae6" fill-rule="evenodd"/>
          <path id="Trazado_621455" data-name="Trazado 621455" d="M68.567,78.042a65.482,65.482,0,0,0-10.492,10.2L54.7,82.961A67.839,67.839,0,0,1,64.993,71.8Z" transform="translate(-42.647 -55.975)" fill="#8ecae6" fill-rule="evenodd"/>
          <path id="Trazado_621456" data-name="Trazado 621456" d="M130.364,28.289a58.683,58.683,0,0,0-14.47,7.42l-3.624-6.43A66.154,66.154,0,0,1,128.543,19.8Z" transform="translate(-87.531 -15.439)" fill="#219ebc" fill-rule="evenodd"/>
          <path id="Trazado_621457" data-name="Trazado 621457" d="M398.487,39.979c13.5,9.723,20.912,26.556,18.118,45.7a62.04,62.04,0,0,1-12.1,28.371,63.234,63.234,0,0,0,5.472-18.37c2.559-18.769-4.045-35.318-16.192-45.121Z" transform="translate(-307.008 -31.169)" fill="#023047" fill-rule="evenodd"/>
          <path id="Trazado_621458" data-name="Trazado 621458" d="M302.108.862a47.85,47.85,0,0,1,21.319,6.889l-4.573,10.465a42.328,42.328,0,0,0-18.02-7.049Z" transform="translate(-234.541 -0.672)" fill="#219ebc" fill-rule="evenodd"/>
          <path id="Trazado_621459" data-name="Trazado 621459" d="M218.407,0q.726,0,1.444.02l-1.186,10.135Q216.79,10,214.858,10a50.571,50.571,0,0,0-13.79,1.946l-1.8-8.668A58.52,58.52,0,0,1,218.407,0" transform="translate(-155.357)" fill="#219ebc" fill-rule="evenodd"/>
          <path id="Trazado_621460" data-name="Trazado 621460" d="M195.069,118.25a9.194,9.194,0,0,1,3-.718L214.44,81.241l-11.294,37.831a8.007,8.007,0,0,1,2.833,4.781A12.24,12.24,0,0,1,198.9,137c-4.968,2.082-9.853-.426-10.911-5.6a12.24,12.24,0,0,1,7.078-13.145" transform="translate(-146.405 -63.339)" fill="#ffb703" fill-rule="evenodd"/>
          <path id="Trazado_621461" data-name="Trazado 621461" d="M304.176,168.938q17.839-35.457-7.094-58.553c14.4,27.762-4.489,51.4-20.135,58.553Z" transform="translate(-215.918 -86.06)" fill="#fb8500" fill-rule="evenodd"/>
        </g>
      </g>
      <g id="Grupo_887057" data-name="Grupo 887057" transform="translate(819.464 609.122)">
        <rect id="Rectángulo_325141" data-name="Rectángulo 325141" width="54.908" height="82.878" transform="translate(76.164 0)" fill="#023047"/>
        <rect id="Rectángulo_325142" data-name="Rectángulo 325142" width="54.908" height="55.253" transform="translate(36.696 27.625)" fill="#219ebc"/>
        <rect id="Rectángulo_325143" data-name="Rectángulo 325143" width="54.908" height="27.626" transform="translate(0 55.252)" fill="#8ecae6"/>
        <path id="Trazado_621462" data-name="Trazado 621462" d="M448.605,55.383h8.867v47.931h9.221V55.383h8.867l-13.477-29.17Z" transform="translate(-349.749 -20.437)" fill="#219ebc"/>
        <path id="Trazado_621463" data-name="Trazado 621463" d="M265.514,174.794h8.867v21.618H283.6V174.794h8.866l-13.476-29.169Z" transform="translate(-207.005 -113.535)" fill="#8ecae6"/>
      </g>
      <g id="Grupo_887060" data-name="Grupo 887060" transform="translate(1007 609.122)">
        <rect id="Rectángulo_325144" data-name="Rectángulo 325144" width="54.554" height="69.064" transform="translate(0)" fill="#8ecae6"/>
        <path id="Trazado_621464" data-name="Trazado 621464" d="M317.3,98.679l5.177-.39.776,4.559-7.76.2Z" transform="translate(-245.967 -76.629)" fill="#8ecae6" fill-rule="evenodd"/>
        <g id="Grupo_887059" data-name="Grupo 887059" transform="translate(0)">
          <g id="Grupo_887058" data-name="Grupo 887058" clip-path="url(#clip-path-4)">
            <path id="Trazado_621465" data-name="Trazado 621465" d="M262.9,87.041l.639,13.339-.107,19.229-4.4-.346-2.413-15.678-.7-7.189-.7,7.189-2.413,15.678-4.4.346-.107-19.229.639-13.339,3.63-1.082h-3.665l-1.257-12.076-1.781,6.331-11.284,5.619-2.244-4.264,7.814-4.253L243.68,65.58l7.152-2.976,10.556-.089,6.289-6.01,1.171-9.39,3.754.73-1,12.355-7.4,8.936-2.5-3.42h0l2.059,5.768-.864,14.476h-3.477ZM254.926,49.2a6,6,0,1,0,6,6,6,6,0,0,0-6-6" transform="translate(-181.148 -36.732)" fill="#219ebc" fill-rule="evenodd"/>
            <path id="Trazado_621466" data-name="Trazado 621466" d="M31.828,102.2h10.41v23.052H31.828Zm30.116-18.5h10.41v41.548H61.944ZM46.886,93.56H57.3v31.7H46.886Z" transform="translate(-24.814 -65.261)" fill="#219ebc" fill-rule="evenodd"/>
            <path id="Trazado_621467" data-name="Trazado 621467" d="M17.028,20.548l5.886.018,2.739,6.051L42.342,9.036,27.5,31.521h-4.14Z" transform="translate(-13.276 -7.045)" fill="#fff" fill-rule="evenodd"/>
          </g>
        </g>
      </g>
      <g id="Grupo_887062" data-name="Grupo 887062" transform="translate(1184.5 609.122)">
        <g id="Grupo_887061" data-name="Grupo 887061" transform="translate(0)" clip-path="url(#clip-path-5)">
          <path id="Trazado_621468" data-name="Trazado 621468" d="M6.269,188.014l11.1-6.151,11.1-6.15-3.415,8.264c4.179,0,30.221-.19,34.394,0,11.312.515,19.323,8.283,19.323,23.415C75.9,196.669,72.11,192.05,59.824,192.05H25.056l3.415,8.264-11.1-6.15Z" transform="translate(-4.888 -136.992)" fill="#8ecae6" fill-rule="evenodd"/>
          <path id="Trazado_621469" data-name="Trazado 621469" d="M90.329,261.043c-2.011-3.079-6.546-5.55-11.5-5.69,8.094,3.381,8.825,9.788,4.5,13.463-3.693,3.136-11.339,3.837-18.317,3.837H26.662v9.307h36.25c10.773,0,39.2-2.89,27.417-20.917" transform="translate(-20.787 -199.083)" fill="#fb8500" fill-rule="evenodd"/>
          <path id="Trazado_621470" data-name="Trazado 621470" d="M140.835,4.865l2.586,8.011,8.417-.016-6.819,4.935,2.616,8-6.8-4.961-6.8,4.961,2.617-8-6.82-4.935,8.418.016ZM129.066,27.351,123.874,41.5l8.151-5.588,2.367,8.218,3.818-12.182a16.78,16.78,0,0,1-9.144-4.6m23.537,0L157.8,41.5l-8.152-5.588-2.366,8.218L143.46,31.949a16.782,16.782,0,0,0,9.144-4.6M140.835,0a15.33,15.33,0,1,0,15.33,15.33A15.33,15.33,0,0,0,140.835,0" transform="translate(-96.577)" fill="#ffb703" fill-rule="evenodd"/>
          <path id="Trazado_621471" data-name="Trazado 621471" d="M9.557,67.593,11.8,74.551l7.311-.014-5.923,4.286,2.273,6.949L9.557,81.463,3.651,85.772l2.273-6.949L0,74.537l7.311.014Zm68.892,0,2.246,6.958,7.311-.014-5.923,4.286,2.273,6.949-5.907-4.309-5.906,4.309,2.273-6.949-5.923-4.286,7.311.014Z" transform="translate(0 -52.698)" fill="#ffb703" fill-rule="evenodd"/>
        </g>
      </g>
      <path id="Trazado_622820" data-name="Trazado 622820" d="M5.848,14.18,8.426,5.625h2.609L7.074,17H4.629L.684,5.625h2.6ZM16.5,17a2.507,2.507,0,0,1-.227-.758,2.732,2.732,0,0,1-2.133.914,3,3,0,0,1-2.059-.719,2.312,2.312,0,0,1-.816-1.812,2.389,2.389,0,0,1,1-2.062,4.915,4.915,0,0,1,2.879-.727h1.039v-.484a1.393,1.393,0,0,0-.3-.937,1.183,1.183,0,0,0-.949-.352,1.345,1.345,0,0,0-.895.273.929.929,0,0,0-.324.75H11.449A2.268,2.268,0,0,1,11.9,9.727a3,3,0,0,1,1.281-.98,4.669,4.669,0,0,1,1.859-.355,3.689,3.689,0,0,1,2.48.785,2.747,2.747,0,0,1,.918,2.207v3.664a4.041,4.041,0,0,0,.336,1.82V17Zm-1.867-1.57a1.945,1.945,0,0,0,.922-.223,1.462,1.462,0,0,0,.625-.6V13.156h-.844q-1.7,0-1.8,1.172l-.008.133a.9.9,0,0,0,.3.7A1.153,1.153,0,0,0,14.629,15.43ZM22.559,17H20.293V5h2.266Zm1.508-4.3a5.013,5.013,0,0,1,.484-2.242A3.546,3.546,0,0,1,25.945,8.93a4.069,4.069,0,0,1,2.113-.539,3.849,3.849,0,0,1,2.793,1.047,4.2,4.2,0,0,1,1.207,2.844l.016.578a4.418,4.418,0,0,1-1.086,3.121,3.775,3.775,0,0,1-2.914,1.176,3.793,3.793,0,0,1-2.918-1.172,4.5,4.5,0,0,1-1.09-3.187Zm2.258.16a3.16,3.16,0,0,0,.453,1.843,1.628,1.628,0,0,0,2.578.008,3.457,3.457,0,0,0,.461-2.015,3.128,3.128,0,0,0-.461-1.831,1.5,1.5,0,0,0-1.3-.649,1.474,1.474,0,0,0-1.281.646A3.516,3.516,0,0,0,26.324,12.856Zm11.891-2.192A6.134,6.134,0,0,0,37.4,10.6a1.654,1.654,0,0,0-1.68.867V17H33.465V8.547H35.6l.063,1.008a2.092,2.092,0,0,1,1.883-1.164,2.366,2.366,0,0,1,.7.1ZM43.965,17a2.507,2.507,0,0,1-.227-.758,2.732,2.732,0,0,1-2.133.914,3,3,0,0,1-2.059-.719,2.312,2.312,0,0,1-.816-1.812,2.389,2.389,0,0,1,1-2.062,4.915,4.915,0,0,1,2.879-.727h1.039v-.484a1.393,1.393,0,0,0-.3-.937,1.183,1.183,0,0,0-.949-.352,1.345,1.345,0,0,0-.895.273.929.929,0,0,0-.324.75H38.918a2.268,2.268,0,0,1,.453-1.359,3,3,0,0,1,1.281-.98,4.669,4.669,0,0,1,1.859-.355,3.689,3.689,0,0,1,2.48.785,2.747,2.747,0,0,1,.918,2.207v3.664a4.041,4.041,0,0,0,.336,1.82V17ZM42.1,15.43a1.945,1.945,0,0,0,.922-.223,1.462,1.462,0,0,0,.625-.6V13.156H42.8q-1.7,0-1.8,1.172l-.008.133a.9.9,0,0,0,.3.7A1.153,1.153,0,0,0,42.1,15.43Zm9.063-.094a1.481,1.481,0,0,0,1.016-.344,1.2,1.2,0,0,0,.406-.914H54.7a2.9,2.9,0,0,1-.469,1.574,3.093,3.093,0,0,1-1.262,1.109,3.949,3.949,0,0,1-1.77.395A3.67,3.67,0,0,1,48.34,16a4.56,4.56,0,0,1-1.047-3.184v-.148a4.508,4.508,0,0,1,1.039-3.117,3.627,3.627,0,0,1,2.852-1.164,3.555,3.555,0,0,1,2.543.9,3.2,3.2,0,0,1,.973,2.4H52.582a1.551,1.551,0,0,0-.406-1.072,1.51,1.51,0,0,0-2.223.163,3.333,3.333,0,0,0-.4,1.866v.235a3.375,3.375,0,0,0,.4,1.878A1.377,1.377,0,0,0,51.16,15.336ZM58.371,17H56.105V8.547h2.266Zm-2.4-10.641a1.112,1.112,0,0,1,.34-.836,1.465,1.465,0,0,1,1.848,0,1.105,1.105,0,0,1,.344.836,1.108,1.108,0,0,1-.348.844,1.448,1.448,0,0,1-1.836,0A1.108,1.108,0,0,1,55.973,6.359ZM59.879,12.7a5.013,5.013,0,0,1,.484-2.242A3.546,3.546,0,0,1,61.758,8.93a4.069,4.069,0,0,1,2.113-.539,3.849,3.849,0,0,1,2.793,1.047,4.2,4.2,0,0,1,1.207,2.844l.016.578A4.418,4.418,0,0,1,66.8,15.98a4.209,4.209,0,0,1-5.832,0,4.5,4.5,0,0,1-1.09-3.187Zm2.258.16A3.16,3.16,0,0,0,62.59,14.7a1.628,1.628,0,0,0,2.578.008,3.457,3.457,0,0,0,.461-2.015,3.128,3.128,0,0,0-.461-1.831,1.5,1.5,0,0,0-1.3-.649,1.474,1.474,0,0,0-1.281.646A3.516,3.516,0,0,0,62.137,12.856ZM64.316,5h2.461L64.613,7.422H62.777Zm7.039,3.547.07.977a2.951,2.951,0,0,1,2.43-1.133,2.453,2.453,0,0,1,2,.789,3.682,3.682,0,0,1,.672,2.359V17H74.27V11.594a1.465,1.465,0,0,0-.312-1.043,1.4,1.4,0,0,0-1.039-.324,1.553,1.553,0,0,0-1.43.813V17H69.23V8.547Z" transform="translate(333.133 708.863)" fill="#12263f"/>
      <path id="Trazado_622821" data-name="Trazado 622821" d="M7.883,14.656H3.773L2.992,17H.5L4.734,5.625H6.906L11.164,17H8.672Zm-3.477-1.9H7.25L5.82,8.5Zm9.375-4.211.07.977a2.951,2.951,0,0,1,2.43-1.133,2.453,2.453,0,0,1,2,.789,3.682,3.682,0,0,1,.672,2.359V17H16.7V11.594a1.465,1.465,0,0,0-.312-1.043,1.4,1.4,0,0,0-1.039-.324,1.553,1.553,0,0,0-1.43.813V17H11.656V8.547ZM25.563,17a2.507,2.507,0,0,1-.227-.758,2.732,2.732,0,0,1-2.133.914,3,3,0,0,1-2.059-.719,2.312,2.312,0,0,1-.816-1.812,2.389,2.389,0,0,1,1-2.062,4.915,4.915,0,0,1,2.879-.727h1.039v-.484a1.393,1.393,0,0,0-.3-.937,1.183,1.183,0,0,0-.949-.352,1.345,1.345,0,0,0-.895.273.929.929,0,0,0-.324.75H20.516a2.268,2.268,0,0,1,.453-1.359,3,3,0,0,1,1.281-.98,4.669,4.669,0,0,1,1.859-.355,3.689,3.689,0,0,1,2.48.785,2.747,2.747,0,0,1,.918,2.207v3.664a4.041,4.041,0,0,0,.336,1.82V17ZM23.7,15.43a1.945,1.945,0,0,0,.922-.223,1.462,1.462,0,0,0,.625-.6V13.156H24.4q-1.7,0-1.8,1.172l-.008.133a.9.9,0,0,0,.3.7A1.153,1.153,0,0,0,23.7,15.43ZM24.555,5h2.461L24.852,7.422H23.016Zm7.07,12H29.359V5h2.266Zm4.242,0H33.6V8.547h2.266Zm-2.4-10.641a1.112,1.112,0,0,1,.34-.836,1.465,1.465,0,0,1,1.848,0A1.105,1.105,0,0,1,36,6.359a1.108,1.108,0,0,1-.348.844,1.448,1.448,0,0,1-1.836,0A1.108,1.108,0,0,1,33.469,6.359Zm8.836,8.3a.727.727,0,0,0-.41-.652,4.659,4.659,0,0,0-1.316-.426q-3.016-.633-3.016-2.562A2.323,2.323,0,0,1,38.5,9.145a3.766,3.766,0,0,1,2.441-.754,4.053,4.053,0,0,1,2.574.758,2.388,2.388,0,0,1,.965,1.969H42.219a1.092,1.092,0,0,0-.312-.8A1.322,1.322,0,0,0,40.93,10a1.351,1.351,0,0,0-.883.258.814.814,0,0,0-.312.656.7.7,0,0,0,.355.605,3.657,3.657,0,0,0,1.2.4,9.8,9.8,0,0,1,1.422.379A2.336,2.336,0,0,1,44.5,14.57a2.2,2.2,0,0,1-.992,1.871,4.28,4.28,0,0,1-2.562.715,4.47,4.47,0,0,1-1.887-.379,3.166,3.166,0,0,1-1.293-1.039,2.414,2.414,0,0,1-.469-1.426h2.141a1.179,1.179,0,0,0,.445.922,1.766,1.766,0,0,0,1.109.32,1.635,1.635,0,0,0,.98-.246A.766.766,0,0,0,42.3,14.664ZM48.336,17H46.07V8.547h2.266Zm-2.4-10.641a1.112,1.112,0,0,1,.34-.836,1.465,1.465,0,0,1,1.848,0,1.105,1.105,0,0,1,.344.836,1.108,1.108,0,0,1-.348.844,1.448,1.448,0,0,1-1.836,0A1.108,1.108,0,0,1,45.938,6.359Zm8.836,8.3a.727.727,0,0,0-.41-.652,4.659,4.659,0,0,0-1.316-.426q-3.016-.633-3.016-2.562a2.323,2.323,0,0,1,.934-1.879,3.766,3.766,0,0,1,2.441-.754,4.053,4.053,0,0,1,2.574.758,2.388,2.388,0,0,1,.965,1.969H54.688a1.092,1.092,0,0,0-.312-.8A1.322,1.322,0,0,0,53.4,10a1.351,1.351,0,0,0-.883.258.814.814,0,0,0-.312.656.7.7,0,0,0,.355.605,3.657,3.657,0,0,0,1.2.4,9.8,9.8,0,0,1,1.422.379,2.336,2.336,0,0,1,1.789,2.273,2.2,2.2,0,0,1-.992,1.871,4.28,4.28,0,0,1-2.562.715,4.47,4.47,0,0,1-1.887-.379,3.166,3.166,0,0,1-1.293-1.039,2.414,2.414,0,0,1-.469-1.426h2.141a1.179,1.179,0,0,0,.445.922,1.766,1.766,0,0,0,1.109.32,1.635,1.635,0,0,0,.98-.246A.766.766,0,0,0,54.773,14.664Z" transform="translate(512.224 708.863)" fill="#12263f"/>
      <path id="Trazado_622822" data-name="Trazado 622822" d="M2.2,17V5.625H5.7A5.315,5.315,0,0,1,8.385,6.3a4.712,4.712,0,0,1,1.848,1.922,5.928,5.928,0,0,1,.664,2.832v.523a5.945,5.945,0,0,1-.652,2.82A4.672,4.672,0,0,1,8.4,16.313,5.355,5.355,0,0,1,5.725,17ZM4.545,7.523v7.594H5.678a2.545,2.545,0,0,0,2.1-.9,4.06,4.06,0,0,0,.742-2.57v-.6A4.124,4.124,0,0,0,7.8,8.418a2.537,2.537,0,0,0-2.1-.895Zm11.8,9.633a4.15,4.15,0,0,1-3.027-1.141,4.054,4.054,0,0,1-1.168-3.039v-.219a5.106,5.106,0,0,1,.492-2.277,3.612,3.612,0,0,1,1.395-1.547,3.914,3.914,0,0,1,2.059-.543,3.508,3.508,0,0,1,2.73,1.094,4.444,4.444,0,0,1,1,3.1v.922H14.436a2.1,2.1,0,0,0,.66,1.328,2,2,0,0,0,1.395.5,2.437,2.437,0,0,0,2.039-.945l1.109,1.242a3.389,3.389,0,0,1-1.375,1.121A4.511,4.511,0,0,1,16.342,17.156Zm-.258-6.945a1.411,1.411,0,0,0-1.09.455,2.357,2.357,0,0,0-.535,1.3H17.6v-.181a1.681,1.681,0,0,0-.406-1.165A1.456,1.456,0,0,0,16.084,10.211Zm9.594,4.453a.727.727,0,0,0-.41-.652,4.659,4.659,0,0,0-1.316-.426q-3.016-.633-3.016-2.562a2.323,2.323,0,0,1,.934-1.879,3.766,3.766,0,0,1,2.441-.754,4.053,4.053,0,0,1,2.574.758,2.388,2.388,0,0,1,.965,1.969H25.592a1.092,1.092,0,0,0-.312-.8A1.322,1.322,0,0,0,24.3,10a1.351,1.351,0,0,0-.883.258.814.814,0,0,0-.312.656.7.7,0,0,0,.355.605,3.657,3.657,0,0,0,1.2.4,9.8,9.8,0,0,1,1.422.379,2.336,2.336,0,0,1,1.789,2.273,2.2,2.2,0,0,1-.992,1.871,4.28,4.28,0,0,1-2.562.715,4.47,4.47,0,0,1-1.887-.379,3.166,3.166,0,0,1-1.293-1.039,2.414,2.414,0,0,1-.469-1.426h2.141a1.179,1.179,0,0,0,.445.922,1.766,1.766,0,0,0,1.109.32,1.635,1.635,0,0,0,.98-.246A.766.766,0,0,0,25.678,14.664Zm7.539,2.492a4.15,4.15,0,0,1-3.027-1.141,4.054,4.054,0,0,1-1.168-3.039v-.219a5.106,5.106,0,0,1,.492-2.277,3.612,3.612,0,0,1,1.395-1.547,3.914,3.914,0,0,1,2.059-.543A3.508,3.508,0,0,1,35.7,9.484a4.444,4.444,0,0,1,1,3.1v.922H31.311a2.1,2.1,0,0,0,.66,1.328,2,2,0,0,0,1.395.5,2.437,2.437,0,0,0,2.039-.945l1.109,1.242a3.389,3.389,0,0,1-1.375,1.121A4.511,4.511,0,0,1,33.217,17.156Zm-.258-6.945a1.411,1.411,0,0,0-1.09.455,2.357,2.357,0,0,0-.535,1.3h3.141v-.181a1.681,1.681,0,0,0-.406-1.165A1.456,1.456,0,0,0,32.959,10.211Zm7.133-1.664.07.945a2.971,2.971,0,0,1,2.43-1.1A2.255,2.255,0,0,1,44.834,9.68a2.9,2.9,0,0,1,2.539-1.289,2.521,2.521,0,0,1,2.047.8,3.681,3.681,0,0,1,.672,2.41V17H47.827V11.609a1.61,1.61,0,0,0-.281-1.051,1.246,1.246,0,0,0-.992-.332,1.409,1.409,0,0,0-1.406.969l.008,5.8H42.9V11.617a1.59,1.59,0,0,0-.289-1.062,1.259,1.259,0,0,0-.984-.328,1.463,1.463,0,0,0-1.391.8V17H37.975V8.547Zm19.344,4.3a5.07,5.07,0,0,1-.887,3.129,2.843,2.843,0,0,1-2.395,1.176,2.633,2.633,0,0,1-2.07-.891V20.25H51.827V8.547H53.92L54,9.375a2.654,2.654,0,0,1,2.141-.984,2.862,2.862,0,0,1,2.43,1.156,5.207,5.207,0,0,1,.867,3.188Zm-2.258-.164a3.327,3.327,0,0,0-.418-1.82,1.361,1.361,0,0,0-1.215-.641,1.479,1.479,0,0,0-1.461.813V14.5a1.5,1.5,0,0,0,1.477.836Q57.178,15.336,57.178,12.688Zm7.547,4.469A4.15,4.15,0,0,1,61.7,16.016a4.054,4.054,0,0,1-1.168-3.039v-.219a5.106,5.106,0,0,1,.492-2.277,3.612,3.612,0,0,1,1.395-1.547,3.914,3.914,0,0,1,2.059-.543,3.508,3.508,0,0,1,2.73,1.094,4.444,4.444,0,0,1,1,3.1v.922H62.819a2.1,2.1,0,0,0,.66,1.328,2,2,0,0,0,1.395.5,2.437,2.437,0,0,0,2.039-.945l1.109,1.242a3.389,3.389,0,0,1-1.375,1.121A4.511,4.511,0,0,1,64.725,17.156Zm-.258-6.945a1.411,1.411,0,0,0-1.09.455,2.357,2.357,0,0,0-.535,1.3h3.141v-.181a1.681,1.681,0,0,0-.406-1.165A1.456,1.456,0,0,0,64.467,10.211Zm7.094-1.664.07.977a2.951,2.951,0,0,1,2.43-1.133,2.453,2.453,0,0,1,2,.789,3.682,3.682,0,0,1,.672,2.359V17H74.475V11.594a1.465,1.465,0,0,0-.312-1.043,1.4,1.4,0,0,0-1.039-.324,1.553,1.553,0,0,0-1.43.813V17H69.436V8.547ZM76.045,5.1a2.187,2.187,0,0,1-.516,1.48,1.6,1.6,0,0,1-1.258.6,1.908,1.908,0,0,1-.527-.066,3.539,3.539,0,0,1-.637-.285,3.435,3.435,0,0,0-.586-.27,1.432,1.432,0,0,0-.391-.051.627.627,0,0,0-.465.2.759.759,0,0,0-.191.555L70.163,7.18A2.22,2.22,0,0,1,70.674,5.7a1.578,1.578,0,0,1,1.254-.609,1.614,1.614,0,0,1,.441.059,4.86,4.86,0,0,1,.676.285,4.392,4.392,0,0,0,.648.273,1.48,1.48,0,0,0,.375.047.659.659,0,0,0,.473-.191.728.728,0,0,0,.2-.551ZM78.092,12.7a5.013,5.013,0,0,1,.484-2.242A3.546,3.546,0,0,1,79.971,8.93a4.069,4.069,0,0,1,2.113-.539,3.849,3.849,0,0,1,2.793,1.047,4.2,4.2,0,0,1,1.207,2.844l.016.578a4.418,4.418,0,0,1-1.086,3.121,4.209,4.209,0,0,1-5.832,0,4.5,4.5,0,0,1-1.09-3.187Zm2.258.16A3.16,3.16,0,0,0,80.8,14.7a1.628,1.628,0,0,0,2.578.008,3.457,3.457,0,0,0,.461-2.015,3.128,3.128,0,0,0-.461-1.831,1.5,1.5,0,0,0-1.3-.649,1.474,1.474,0,0,0-1.281.646A3.516,3.516,0,0,0,80.35,12.856Z" transform="translate(668.909 708.863)" fill="#12263f"/>
      <path id="Trazado_622819" data-name="Trazado 622819" d="M14.5,12.07H10v3.047h5.281V17H7.656V5.625h7.609v1.9H10v2.711h4.5Zm6.359,2.109,2.578-8.555h2.609L22.086,17H19.641L15.7,5.625h2.6Zm12.094.477H28.844L28.063,17H25.57L29.8,5.625h2.172L36.234,17H33.742Zm-3.477-1.9H32.32L30.891,8.5Zm10.164,2.359h4.977V17H37.3V5.625h2.344ZM54.383,5.625v7.492a3.836,3.836,0,0,1-1.168,2.953,4.5,4.5,0,0,1-3.191,1.086A4.553,4.553,0,0,1,46.859,16.1a3.77,3.77,0,0,1-1.2-2.9V5.625h2.344v7.508a2.167,2.167,0,0,0,.535,1.629,2.054,2.054,0,0,0,1.48.512q1.977,0,2.008-2.078V5.625Zm8.172,9.031H58.445L57.664,17H55.172L59.406,5.625h2.172L65.836,17H63.344Zm-3.477-1.9h2.844L60.492,8.5Zm16.75.453A4.025,4.025,0,0,1,74.473,16.1a4.76,4.76,0,0,1-3.223,1.055,4.28,4.28,0,0,1-3.441-1.473,6.038,6.038,0,0,1-1.254-4.043v-.7a6.819,6.819,0,0,1,.578-2.891,4.332,4.332,0,0,1,1.652-1.918,5.164,5.164,0,0,1,5.668.387,4.326,4.326,0,0,1,1.391,2.961H73.5a2.376,2.376,0,0,0-.613-1.6,2.271,2.271,0,0,0-1.605-.5,1.991,1.991,0,0,0-1.754.84,4.707,4.707,0,0,0-.6,2.605V11.7a5.038,5.038,0,0,0,.559,2.7,1.954,1.954,0,0,0,1.762.852,2.314,2.314,0,0,0,1.621-.5,2.241,2.241,0,0,0,.613-1.535ZM79.859,17H77.516V5.625h2.344Zm11.516-5.43a6.867,6.867,0,0,1-.594,2.945,4.472,4.472,0,0,1-1.7,1.953,5.021,5.021,0,0,1-5.059.008A4.515,4.515,0,0,1,82.3,14.535a6.67,6.67,0,0,1-.617-2.9V11.07a6.831,6.831,0,0,1,.605-2.957A4.508,4.508,0,0,1,84,6.152a5.014,5.014,0,0,1,5.055,0A4.508,4.508,0,0,1,90.77,8.113a6.811,6.811,0,0,1,.605,2.949ZM89,11.055a4.787,4.787,0,0,0-.641-2.719,2.263,2.263,0,0,0-3.648-.012,4.732,4.732,0,0,0-.648,2.691v.555a4.847,4.847,0,0,0,.641,2.7,2.243,2.243,0,0,0,3.656.035,4.819,4.819,0,0,0,.641-2.7ZM86.984,2.578h2.461L87.281,5H85.445ZM102.328,17H99.984L95.422,9.516V17H93.078V5.625h2.344l4.57,7.5v-7.5h2.336Z" transform="translate(745 535)" fill="#12263f"/>
      <path id="Trazado_622823" data-name="Trazado 622823" d="M5.055,5.625l2.922,8.25,2.906-8.25h3.078V17H11.609V13.891l.234-5.367L8.773,17H7.164L4.1,8.531l.234,5.359V17H1.992V5.625Zm14.7,11.531a4.15,4.15,0,0,1-3.027-1.141,4.054,4.054,0,0,1-1.168-3.039v-.219a5.106,5.106,0,0,1,.492-2.277,3.612,3.612,0,0,1,1.395-1.547A3.914,3.914,0,0,1,19.5,8.391a3.508,3.508,0,0,1,2.73,1.094,4.444,4.444,0,0,1,1,3.1v.922H17.844a2.1,2.1,0,0,0,.66,1.328,2,2,0,0,0,1.395.5,2.437,2.437,0,0,0,2.039-.945l1.109,1.242a3.389,3.389,0,0,1-1.375,1.121A4.511,4.511,0,0,1,19.75,17.156Zm-.258-6.945a1.411,1.411,0,0,0-1.09.455,2.357,2.357,0,0,0-.535,1.3h3.141v-.181a1.681,1.681,0,0,0-.406-1.165A1.456,1.456,0,0,0,19.492,10.211ZM26.9,8.547v8.914a3.024,3.024,0,0,1-.742,2.176,2.821,2.821,0,0,1-2.141.777,4.591,4.591,0,0,1-1.117-.133V18.492a4.238,4.238,0,0,0,.711.07q1.023,0,1.023-1.086V8.547ZM24.453,6.359a1.112,1.112,0,0,1,.34-.836,1.47,1.47,0,0,1,1.852,0,1.112,1.112,0,0,1,.34.836,1.108,1.108,0,0,1-.348.844,1.448,1.448,0,0,1-1.836,0A1.108,1.108,0,0,1,24.453,6.359ZM28.313,12.7a5.013,5.013,0,0,1,.484-2.242A3.546,3.546,0,0,1,30.191,8.93,4.069,4.069,0,0,1,32.3,8.391,3.849,3.849,0,0,1,35.1,9.438,4.2,4.2,0,0,1,36.3,12.281l.016.578a4.418,4.418,0,0,1-1.086,3.121,3.775,3.775,0,0,1-2.914,1.176A3.793,3.793,0,0,1,29.4,15.984a4.5,4.5,0,0,1-1.09-3.187Zm2.258.16a3.16,3.16,0,0,0,.453,1.843,1.628,1.628,0,0,0,2.578.008,3.457,3.457,0,0,0,.461-2.015A3.128,3.128,0,0,0,33.6,10.86a1.5,1.5,0,0,0-1.3-.649,1.474,1.474,0,0,0-1.281.646A3.516,3.516,0,0,0,30.57,12.856Zm11.891-2.192a6.134,6.134,0,0,0-.812-.062,1.654,1.654,0,0,0-1.68.867V17H37.711V8.547h2.133l.063,1.008a2.092,2.092,0,0,1,1.883-1.164,2.366,2.366,0,0,1,.7.1ZM48.211,17a2.507,2.507,0,0,1-.227-.758,2.732,2.732,0,0,1-2.133.914,3,3,0,0,1-2.059-.719,2.312,2.312,0,0,1-.816-1.812,2.389,2.389,0,0,1,1-2.062,4.915,4.915,0,0,1,2.879-.727h1.039v-.484a1.393,1.393,0,0,0-.3-.937,1.183,1.183,0,0,0-.949-.352,1.345,1.345,0,0,0-.895.273.929.929,0,0,0-.324.75H43.164a2.268,2.268,0,0,1,.453-1.359,3,3,0,0,1,1.281-.98,4.669,4.669,0,0,1,1.859-.355,3.689,3.689,0,0,1,2.48.785,2.747,2.747,0,0,1,.918,2.207v3.664a4.041,4.041,0,0,0,.336,1.82V17Zm-1.867-1.57a1.945,1.945,0,0,0,.922-.223,1.462,1.462,0,0,0,.625-.6V13.156h-.844q-1.7,0-1.8,1.172l-.008.133a.9.9,0,0,0,.3.7A1.153,1.153,0,0,0,46.344,15.43Z" transform="translate(859.464 708.863)" fill="#12263f"/>
      <path id="Trazado_622824" data-name="Trazado 622824" d="M8.8,12.836H6.928V17H4.584V5.625H8.811a4.778,4.778,0,0,1,3.109.9,3.1,3.1,0,0,1,1.094,2.539A3.5,3.5,0,0,1,12.51,11a3.437,3.437,0,0,1-1.527,1.238l2.461,4.648V17H10.928Zm-1.867-1.9H8.819a1.936,1.936,0,0,0,1.367-.449A1.606,1.606,0,0,0,10.67,9.25a1.719,1.719,0,0,0-.457-1.266,1.9,1.9,0,0,0-1.4-.461H6.928Zm11.609,6.219a4.15,4.15,0,0,1-3.027-1.141,4.054,4.054,0,0,1-1.168-3.039v-.219a5.106,5.106,0,0,1,.492-2.277,3.612,3.612,0,0,1,1.395-1.547,3.914,3.914,0,0,1,2.059-.543,3.508,3.508,0,0,1,2.73,1.094,4.444,4.444,0,0,1,1,3.1v.922H16.631a2.1,2.1,0,0,0,.66,1.328,2,2,0,0,0,1.395.5,2.437,2.437,0,0,0,2.039-.945l1.109,1.242a3.389,3.389,0,0,1-1.375,1.121A4.511,4.511,0,0,1,18.538,17.156Zm-.258-6.945a1.411,1.411,0,0,0-1.09.455,2.357,2.357,0,0,0-.535,1.3H19.8v-.181a1.681,1.681,0,0,0-.406-1.165A1.456,1.456,0,0,0,18.28,10.211Zm9.594,4.453a.727.727,0,0,0-.41-.652,4.659,4.659,0,0,0-1.316-.426q-3.016-.633-3.016-2.562a2.323,2.323,0,0,1,.934-1.879,3.766,3.766,0,0,1,2.441-.754,4.053,4.053,0,0,1,2.574.758,2.388,2.388,0,0,1,.965,1.969H27.788a1.092,1.092,0,0,0-.312-.8A1.322,1.322,0,0,0,26.5,10a1.351,1.351,0,0,0-.883.258.814.814,0,0,0-.312.656.7.7,0,0,0,.355.605,3.657,3.657,0,0,0,1.2.4,9.8,9.8,0,0,1,1.422.379,2.336,2.336,0,0,1,1.789,2.273,2.2,2.2,0,0,1-.992,1.871,4.28,4.28,0,0,1-2.562.715,4.47,4.47,0,0,1-1.887-.379,3.166,3.166,0,0,1-1.293-1.039,2.414,2.414,0,0,1-.469-1.426h2.141a1.179,1.179,0,0,0,.445.922,1.766,1.766,0,0,0,1.109.32,1.635,1.635,0,0,0,.98-.246A.766.766,0,0,0,27.874,14.664Zm8.711,1.477a2.831,2.831,0,0,1-2.312,1.016,2.67,2.67,0,0,1-2.074-.781,3.335,3.335,0,0,1-.73-2.289V8.547h2.258v5.467q0,1.322,1.2,1.322a1.63,1.63,0,0,0,1.578-.8V8.547h2.266V17H36.647ZM42.858,17H40.592V5h2.266ZM47.42,6.469V8.547h1.445V10.2H47.42v4.219a1.007,1.007,0,0,0,.18.672.9.9,0,0,0,.688.2,3.6,3.6,0,0,0,.664-.055v1.711a4.648,4.648,0,0,1-1.367.2,2.156,2.156,0,0,1-2.422-2.4V10.2H43.928V8.547h1.234V6.469ZM55.022,17a2.507,2.507,0,0,1-.227-.758,2.732,2.732,0,0,1-2.133.914,3,3,0,0,1-2.059-.719,2.312,2.312,0,0,1-.816-1.812,2.389,2.389,0,0,1,1-2.062,4.915,4.915,0,0,1,2.879-.727H54.7v-.484a1.393,1.393,0,0,0-.3-.937,1.183,1.183,0,0,0-.949-.352,1.345,1.345,0,0,0-.895.273.929.929,0,0,0-.324.75H49.975a2.268,2.268,0,0,1,.453-1.359,3,3,0,0,1,1.281-.98,4.669,4.669,0,0,1,1.859-.355,3.689,3.689,0,0,1,2.48.785,2.747,2.747,0,0,1,.918,2.207v3.664a4.041,4.041,0,0,0,.336,1.82V17Zm-1.867-1.57a1.945,1.945,0,0,0,.922-.223,1.462,1.462,0,0,0,.625-.6V13.156h-.844q-1.7,0-1.8,1.172l-.008.133a.9.9,0,0,0,.3.7A1.153,1.153,0,0,0,53.155,15.43Zm5.2-2.719a5.094,5.094,0,0,1,.887-3.148,2.877,2.877,0,0,1,2.426-1.172,2.589,2.589,0,0,1,2.039.922V5h2.266V17H63.928l-.109-.9a2.657,2.657,0,0,1-2.172,1.055,2.869,2.869,0,0,1-2.395-1.176A5.258,5.258,0,0,1,58.35,12.711Zm2.258.168a3.337,3.337,0,0,0,.414,1.823,1.349,1.349,0,0,0,1.2.634,1.511,1.511,0,0,0,1.477-.884V11.111a1.489,1.489,0,0,0-1.461-.884Q60.608,10.227,60.608,12.879Zm6.758-.184a5.013,5.013,0,0,1,.484-2.242A3.546,3.546,0,0,1,69.245,8.93a4.069,4.069,0,0,1,2.113-.539,3.849,3.849,0,0,1,2.793,1.047,4.2,4.2,0,0,1,1.207,2.844l.016.578a4.418,4.418,0,0,1-1.086,3.121,4.209,4.209,0,0,1-5.832,0,4.5,4.5,0,0,1-1.09-3.187Zm2.258.16a3.16,3.16,0,0,0,.453,1.843,1.628,1.628,0,0,0,2.578.008,3.457,3.457,0,0,0,.461-2.015,3.128,3.128,0,0,0-.461-1.831,1.5,1.5,0,0,0-1.3-.649,1.474,1.474,0,0,0-1.281.646A3.516,3.516,0,0,0,69.624,12.856Z" transform="translate(1013 708.863)" fill="#12263f"/>
      <path id="Trazado_622825" data-name="Trazado 622825" d="M6.532,12.836H4.665V17H2.322V5.625H6.548a4.778,4.778,0,0,1,3.109.9,3.1,3.1,0,0,1,1.094,2.539,3.5,3.5,0,0,1-.5,1.941A3.437,3.437,0,0,1,8.72,12.242l2.461,4.648V17H8.665Zm-1.867-1.9H6.556a1.936,1.936,0,0,0,1.367-.449A1.606,1.606,0,0,0,8.407,9.25,1.719,1.719,0,0,0,7.95,7.984a1.9,1.9,0,0,0-1.4-.461H4.665Zm11.609,6.219a4.15,4.15,0,0,1-3.027-1.141,4.054,4.054,0,0,1-1.168-3.039v-.219a5.106,5.106,0,0,1,.492-2.277,3.612,3.612,0,0,1,1.395-1.547,3.914,3.914,0,0,1,2.059-.543,3.508,3.508,0,0,1,2.73,1.094,4.444,4.444,0,0,1,1,3.1v.922H14.368a2.1,2.1,0,0,0,.66,1.328,2,2,0,0,0,1.395.5,2.437,2.437,0,0,0,2.039-.945l1.109,1.242A3.389,3.389,0,0,1,18.2,16.754,4.511,4.511,0,0,1,16.275,17.156Zm-.258-6.945a1.411,1.411,0,0,0-1.09.455,2.357,2.357,0,0,0-.535,1.3h3.141v-.181a1.681,1.681,0,0,0-.406-1.165A1.456,1.456,0,0,0,16.017,10.211Zm7.719-3.742V8.547h1.445V10.2H23.736v4.219a1.007,1.007,0,0,0,.18.672.9.9,0,0,0,.688.2,3.6,3.6,0,0,0,.664-.055v1.711a4.648,4.648,0,0,1-1.367.2,2.156,2.156,0,0,1-2.422-2.4V10.2H20.243V8.547h1.234V6.469Zm7.453,4.2a6.134,6.134,0,0,0-.812-.062,1.654,1.654,0,0,0-1.68.867V17H26.439V8.547h2.133l.063,1.008a2.092,2.092,0,0,1,1.883-1.164,2.366,2.366,0,0,1,.7.1Zm.453,2.031a5.013,5.013,0,0,1,.484-2.242A3.546,3.546,0,0,1,33.521,8.93a4.069,4.069,0,0,1,2.113-.539,3.849,3.849,0,0,1,2.793,1.047,4.2,4.2,0,0,1,1.207,2.844l.016.578a4.418,4.418,0,0,1-1.086,3.121,4.209,4.209,0,0,1-5.832,0,4.5,4.5,0,0,1-1.09-3.187Zm2.258.16a3.16,3.16,0,0,0,.453,1.843,1.628,1.628,0,0,0,2.578.008,3.457,3.457,0,0,0,.461-2.015,3.128,3.128,0,0,0-.461-1.831,1.5,1.5,0,0,0-1.3-.649,1.474,1.474,0,0,0-1.281.646A3.516,3.516,0,0,0,33.9,12.856ZM45.939,17a2.507,2.507,0,0,1-.227-.758,2.732,2.732,0,0,1-2.133.914,3,3,0,0,1-2.059-.719,2.312,2.312,0,0,1-.816-1.812,2.389,2.389,0,0,1,1-2.062,4.915,4.915,0,0,1,2.879-.727h1.039v-.484a1.393,1.393,0,0,0-.3-.937,1.183,1.183,0,0,0-.949-.352,1.345,1.345,0,0,0-.895.273.929.929,0,0,0-.324.75H40.892a2.268,2.268,0,0,1,.453-1.359,3,3,0,0,1,1.281-.98,4.669,4.669,0,0,1,1.859-.355,3.689,3.689,0,0,1,2.48.785,2.747,2.747,0,0,1,.918,2.207v3.664a4.041,4.041,0,0,0,.336,1.82V17Zm-1.867-1.57a1.945,1.945,0,0,0,.922-.223,1.462,1.462,0,0,0,.625-.6V13.156h-.844q-1.7,0-1.8,1.172l-.008.133a.9.9,0,0,0,.3.7A1.153,1.153,0,0,0,44.072,15.43ZM52,17H49.736V5H52Zm4.242,0H53.978V8.547h2.266Zm-2.4-10.641a1.112,1.112,0,0,1,.34-.836,1.465,1.465,0,0,1,1.848,0,1.105,1.105,0,0,1,.344.836,1.108,1.108,0,0,1-.348.844,1.448,1.448,0,0,1-1.836,0A1.108,1.108,0,0,1,53.845,6.359ZM60.22,8.547l.07.945a2.971,2.971,0,0,1,2.43-1.1A2.255,2.255,0,0,1,64.962,9.68,2.9,2.9,0,0,1,67.5,8.391a2.521,2.521,0,0,1,2.047.8,3.681,3.681,0,0,1,.672,2.41V17H67.954V11.609a1.61,1.61,0,0,0-.281-1.051,1.246,1.246,0,0,0-.992-.332,1.409,1.409,0,0,0-1.406.969l.008,5.8H63.025V11.617a1.59,1.59,0,0,0-.289-1.062,1.259,1.259,0,0,0-.984-.328,1.463,1.463,0,0,0-1.391.8V17H58.1V8.547Zm15.625,8.609a4.15,4.15,0,0,1-3.027-1.141,4.054,4.054,0,0,1-1.168-3.039v-.219a5.106,5.106,0,0,1,.492-2.277,3.612,3.612,0,0,1,1.395-1.547,3.914,3.914,0,0,1,2.059-.543,3.508,3.508,0,0,1,2.73,1.094,4.444,4.444,0,0,1,1,3.1v.922H73.939a2.1,2.1,0,0,0,.66,1.328,2,2,0,0,0,1.395.5,2.437,2.437,0,0,0,2.039-.945l1.109,1.242a3.389,3.389,0,0,1-1.375,1.121A4.511,4.511,0,0,1,75.845,17.156Zm-.258-6.945a1.411,1.411,0,0,0-1.09.455,2.357,2.357,0,0,0-.535,1.3H77.1v-.181a1.681,1.681,0,0,0-.406-1.165A1.456,1.456,0,0,0,75.587,10.211Zm7.094-1.664.07.977a2.951,2.951,0,0,1,2.43-1.133,2.453,2.453,0,0,1,2,.789,3.682,3.682,0,0,1,.672,2.359V17H85.595V11.594a1.465,1.465,0,0,0-.312-1.043,1.4,1.4,0,0,0-1.039-.324,1.553,1.553,0,0,0-1.43.813V17H80.556V8.547Zm9.586-2.078V8.547h1.445V10.2H92.267v4.219a1.007,1.007,0,0,0,.18.672.9.9,0,0,0,.688.2,3.6,3.6,0,0,0,.664-.055v1.711a4.648,4.648,0,0,1-1.367.2,2.156,2.156,0,0,1-2.422-2.4V10.2H88.775V8.547h1.234V6.469ZM99.868,17a2.507,2.507,0,0,1-.227-.758,2.732,2.732,0,0,1-2.133.914,3,3,0,0,1-2.059-.719,2.312,2.312,0,0,1-.816-1.812,2.389,2.389,0,0,1,1-2.062,4.915,4.915,0,0,1,2.879-.727h1.039v-.484a1.393,1.393,0,0,0-.3-.937,1.183,1.183,0,0,0-.949-.352,1.345,1.345,0,0,0-.895.273.929.929,0,0,0-.324.75H94.822a2.268,2.268,0,0,1,.453-1.359,3,3,0,0,1,1.281-.98,4.669,4.669,0,0,1,1.859-.355,3.689,3.689,0,0,1,2.48.785,2.747,2.747,0,0,1,.918,2.207v3.664a4.041,4.041,0,0,0,.336,1.82V17ZM98,15.43a1.945,1.945,0,0,0,.922-.223,1.462,1.462,0,0,0,.625-.6V13.156H98.7q-1.7,0-1.8,1.172l-.008.133a.9.9,0,0,0,.3.7A1.153,1.153,0,0,0,98,15.43Zm9.063-.094a1.481,1.481,0,0,0,1.016-.344,1.2,1.2,0,0,0,.406-.914H110.6a2.9,2.9,0,0,1-.469,1.574,3.093,3.093,0,0,1-1.262,1.109,3.949,3.949,0,0,1-1.77.395A3.67,3.67,0,0,1,104.243,16,4.56,4.56,0,0,1,103.2,12.82v-.148a4.508,4.508,0,0,1,1.039-3.117,3.627,3.627,0,0,1,2.852-1.164,3.555,3.555,0,0,1,2.543.9,3.2,3.2,0,0,1,.973,2.4h-2.117a1.551,1.551,0,0,0-.406-1.072,1.51,1.51,0,0,0-2.223.163,3.333,3.333,0,0,0-.4,1.866v.235a3.375,3.375,0,0,0,.4,1.878A1.377,1.377,0,0,0,107.064,15.336ZM114.275,17h-2.266V8.547h2.266Zm-2.4-10.641a1.112,1.112,0,0,1,.34-.836,1.465,1.465,0,0,1,1.848,0,1.105,1.105,0,0,1,.344.836,1.108,1.108,0,0,1-.348.844,1.448,1.448,0,0,1-1.836,0A1.108,1.108,0,0,1,111.876,6.359Zm3.906,6.336a5.013,5.013,0,0,1,.484-2.242,3.546,3.546,0,0,1,1.395-1.523,4.069,4.069,0,0,1,2.113-.539,3.849,3.849,0,0,1,2.793,1.047,4.2,4.2,0,0,1,1.207,2.844l.016.578A4.418,4.418,0,0,1,122.7,15.98a4.209,4.209,0,0,1-5.832,0,4.5,4.5,0,0,1-1.09-3.187Zm2.258.16a3.16,3.16,0,0,0,.453,1.843,1.628,1.628,0,0,0,2.578.008,3.457,3.457,0,0,0,.461-2.015,3.128,3.128,0,0,0-.461-1.831,1.5,1.5,0,0,0-1.3-.649,1.474,1.474,0,0,0-1.281.646A3.516,3.516,0,0,0,118.04,12.856ZM120.22,5h2.461l-2.164,2.422h-1.836Zm7.039,3.547.07.977a2.951,2.951,0,0,1,2.43-1.133,2.453,2.453,0,0,1,2,.789,3.682,3.682,0,0,1,.672,2.359V17h-2.258V11.594a1.465,1.465,0,0,0-.312-1.043,1.4,1.4,0,0,0-1.039-.324,1.553,1.553,0,0,0-1.43.813V17h-2.258V8.547Z" transform="translate(1161.5 708.863)" fill="#12263f"/>
      <g id="Grupo_887067" data-name="Grupo 887067">
        <path id="Trazado_621474" data-name="Trazado 621474" d="M3520.133-11017.1v30.681" transform="translate(-3148 11561.597)" fill="none" stroke="#973a50" stroke-width="1"/>
        <path id="Trazado_621475" data-name="Trazado 621475" d="M3520.133-11017.1v30.681" transform="translate(-2979.133 11561.597)" fill="none" stroke="#973a50" stroke-width="1"/>
        <path id="Trazado_621476" data-name="Trazado 621476" d="M3520.133-11017.1v30.681" transform="translate(-2807.133 11561.597)" fill="none" stroke="#973a50" stroke-width="1"/>
        <path id="Trazado_621477" data-name="Trazado 621477" d="M3520.133-11017.094v372.867" transform="translate(11389.229 4064.633) rotate(-90)" fill="none" stroke="#973a50" stroke-width="1"/>
      </g>
      <g id="Grupo_887068" data-name="Grupo 887068" transform="translate(856.13 544.5)">
        <path id="Trazado_621474-2" data-name="Trazado 621474" d="M3520.133-11017.1v30.681" transform="translate(-3147.262 11017.097)" fill="none" stroke="#973a50" stroke-width="1"/>
        <path id="Trazado_621475-2" data-name="Trazado 621475" d="M3520.133-11017.1v30.681" transform="translate(-3316.13 11017.097)" fill="none" stroke="#973a50" stroke-width="1"/>
        <path id="Trazado_621476-2" data-name="Trazado 621476" d="M3520.133-11017.1v30.681" transform="translate(-3488.13 11017.097)" fill="none" stroke="#973a50" stroke-width="1"/>
        <path id="Trazado_621477-2" data-name="Trazado 621477" d="M0,372.867V0" transform="translate(0 0) rotate(-90)" fill="none" stroke="#973a50" stroke-width="1"/>
      </g>
    </g>
  </g>
</svg>
