<svg xmlns="http://www.w3.org/2000/svg" width="248.992" height="42" viewBox="0 0 248.992 42">
  <g id="Grupo_888212" data-name="Grupo 888212" transform="translate(-180 -5278.766)">
    <g id="Grupo_888181" data-name="Grupo 888181" transform="translate(386.92 5278.766)">
      <g id="Grupo_888209" data-name="Grupo 888209">
        <g id="Grupo_888210" data-name="Grupo 888210">
          <path id="Trazado_622465" data-name="Trazado 622465" d="M320.6,88.107h0l-.011-.007,0,.025.008-.018h0" transform="translate(-285.416 -78.435)" fill="#fefefe"/>
          <path id="Trazado_622466" data-name="Trazado 622466" d="M42.072,42.743c-.835-.489-1.753-.216-2.634-.287-.236-.019-.491.053-.692-.137H33.155c0,.008-.008.017-.013.025-.05.022.02.014-.033.023a7.828,7.828,0,0,1-2.8-.007c-.01-.013-.016-.027-.024-.04H24.691c-.005.009-.009.018-.015.027a.423.423,0,0,1-.263.1c-.75.029-1.5.03-2.251,0a.423.423,0,0,1-.228-.083c-.011-.014-.019-.028-.028-.043l-2.435,0-3.244,0c-.006.01-.011.02-.018.03a.492.492,0,0,1-.305.1c-.71.02-1.419.018-2.129,0a.524.524,0,0,1-.308-.1c-.009-.013-.015-.026-.023-.038H11.008l-3.162,0c-.007.012-.014.024-.022.036a.875.875,0,0,1-.553.111q-2.729,0-5.457,0c-.626,0-.712-.086-.714-.712q-.008-2.888,0-5.775a1.14,1.14,0,0,1,.067-.482.352.352,0,0,1,.078-.084l0-1.174a.538.538,0,0,1-.068-.057,1.178,1.178,0,0,1-.078-.562q0-2.885,0-5.769a1.3,1.3,0,0,1,.07-.563.357.357,0,0,1,.076-.079q0-.583,0-1.166a.38.38,0,0,1-.066-.063,1.176,1.176,0,0,1-.078-.562q0-2.844,0-5.688a1.3,1.3,0,0,1,.07-.563.335.335,0,0,1,.074-.079q0-.584,0-1.168a.444.444,0,0,1-.068-.062A1.175,1.175,0,0,1,1.1,17.3q0-2.884,0-5.768a1.319,1.319,0,0,1,.069-.563.352.352,0,0,1,.078-.082q0-.58,0-1.16A.405.405,0,0,1,1.2,9.691a1.134,1.134,0,0,1-.092-.637q0-3.126,0-6.253c0-.123,0-.245,0-.368-.028-.674-.336-.847-.913-.509A.258.258,0,0,1,0,1.976V42.825a1.73,1.73,0,0,0,.74.738H41.661l.411-.41Z" transform="translate(0 -1.564)" fill="#685e68"/>
          <path id="Trazado_622467" data-name="Trazado 622467" d="M16.7,315.439h0c-2.106,0-4.213.007-6.319.018-.206,0-.249-.077-.248-.263q.013-3.318.015-6.636v-.026a.349.349,0,0,0-.078.084A1.141,1.141,0,0,0,10,309.1q0,2.887,0,5.775c0,.626.088.711.714.712q2.729.007,5.457,0a.875.875,0,0,0,.553-.111c.009-.012.015-.024.022-.036H16.7" transform="translate(-8.902 -274.684)" fill="#685e68"/>
          <path id="Trazado_622468" data-name="Trazado 622468" d="M10.166,240.741h0v-6.949c0-.015,0-.029,0-.044a.355.355,0,0,0-.076.079,1.3,1.3,0,0,0-.07.563q0,2.885,0,5.769a1.177,1.177,0,0,0,.078.562.536.536,0,0,0,.068.057C10.166,240.765,10.166,240.753,10.166,240.741Z" transform="translate(-8.919 -208.104)" fill="#685e68"/>
          <path id="Trazado_622469" data-name="Trazado 622469" d="M125.273,371.517H122.52c.008.013.014.026.024.038a.523.523,0,0,0,.308.1c.71.016,1.419.018,2.129,0a.491.491,0,0,0,.306-.1c.007-.01.012-.02.018-.03Z" transform="translate(-109.079 -330.758)" fill="#685e68"/>
          <path id="Trazado_622470" data-name="Trazado 622470" d="M10.163,166.655q0-3.449,0-6.9v-.03a.336.336,0,0,0-.074.079,1.3,1.3,0,0,0-.07.563q0,2.844,0,5.688a1.174,1.174,0,0,0,.078.562.379.379,0,0,0,.066.063Z" transform="translate(-8.919 -142.204)" fill="#685e68"/>
          <path id="Trazado_622471" data-name="Trazado 622471" d="M202.418,371.505h-2.745c.009.014.017.029.028.043a.422.422,0,0,0,.228.083c.75.032,1.5.03,2.251,0a.423.423,0,0,0,.263-.1c.006-.009.01-.018.015-.027Z" transform="translate(-177.768 -330.749)" fill="#685e68"/>
          <path id="Trazado_622472" data-name="Trazado 622472" d="M278.874,371.491h-2.818c.008.013.015.027.024.04a7.827,7.827,0,0,0,2.8.007c.053-.009-.017,0,.033-.023.005-.008.008-.017.013-.025Z" transform="translate(-245.771 -330.736)" fill="#685e68"/>
          <path id="Trazado_622473" data-name="Trazado 622473" d="M355.643,371.508c-.807.019-1.615,0-2.422-.006h-.04c.2.19.456.118.692.137.881.07,1.8-.2,2.634.287a.873.873,0,0,0-.864-.417" transform="translate(-314.435 -330.746)" fill="#685e68"/>
          <path id="Trazado_622474" data-name="Trazado 622474" d="M10.165,91.947V85c0-.017,0-.034,0-.05a.348.348,0,0,0-.078.082,1.321,1.321,0,0,0-.069.563q0,2.884,0,5.767a1.174,1.174,0,0,0,.078.562.444.444,0,0,0,.068.062v-.038" transform="translate(-8.919 -75.63)" fill="#685e68"/>
          <path id="Trazado_622475" data-name="Trazado 622475" d="M.191.361C.768.024,1.077.2,1.1.87c.005.122,0,.245,0,.368q0,3.126,0,6.253a1.133,1.133,0,0,0,.092.637.422.422,0,0,0,.043.032c0-.009,0-.018,0-.027Q1.238,4.488,1.236.843c0-.352-.045-.665-.421-.8S.2.134,0,.412A.257.257,0,0,0,.191.361" transform="translate(0 0)" fill="#685e68"/>
          <path id="Trazado_622476" data-name="Trazado 622476" d="M305.433,143.23h-.1c-.739.018-1.478,0-2.217.01-.514.01-.593.093-.609.6-.005.164,0,.328,0,.492q0,11.582,0,23.164a1.649,1.649,0,0,1-.068.729.847.847,0,0,1,.392-.07c.914,0,1.827-.015,2.741.008h.007q0-12.192.006-24.384a.911.911,0,0,0-.146-.55" transform="translate(-269.254 -127.516)" fill="#fdcd84"/>
          <path id="Trazado_622477" data-name="Trazado 622477" d="M301.888,166.489q0-11.582,0-23.164c0-.164,0-.328,0-.492.016-.507.1-.591.609-.6.739-.014,1.478.008,2.217-.01h.1a.77.77,0,0,0-.094-.111c-.835-.005-1.67-.013-2.505-.014-.312,0-.488.146-.473.479.007.15,0,.3,0,.451l0,24.236a.5.5,0,0,1,.076-.046,1.65,1.65,0,0,0,.068-.729" transform="translate(-268.642 -126.509)" fill="#fdcd84"/>
          <path id="Trazado_622478" data-name="Trazado 622478" d="M305.372,370.411c-.914-.024-1.827-.006-2.741-.008a.846.846,0,0,0-.392.07c-.007.015-.015.031-.024.046h3.164v-.108h-.007" transform="translate(-269.06 -329.763)" fill="#fdcd84"/>
          <path id="Trazado_622479" data-name="Trazado 622479" d="M301.745,371.119h.052c.009-.015.017-.03.024-.046a.5.5,0,0,0-.076.046" transform="translate(-268.642 -330.364)" fill="#fdcd84"/>
          <path id="Trazado_622480" data-name="Trazado 622480" d="M332.982,167.513q0-11.618,0-23.235c0-1.028,0-1.028-1.015-1.028-.456,0-.912,0-1.368-.006a.589.589,0,0,1,.177.431c.007.164.008.328.008.492q0,11.665,0,23.33a1.443,1.443,0,0,1-.059.678c.642-.018,1.285-.005,1.928-.006a.793.793,0,0,1,.4.073,1.723,1.723,0,0,1-.069-.729" transform="translate(-294.329 -127.529)" fill="#fcb341"/>
          <path id="Trazado_622481" data-name="Trazado 622481" d="M329.108,142.217c.456.005.912.006,1.368.006,1.014,0,1.015,0,1.015,1.028q0,11.618,0,23.235a1.721,1.721,0,0,0,.069.729.455.455,0,0,1,.064.043q0-12.16,0-24.319c0-.123,0-.246,0-.369a.427.427,0,0,0-.482-.48c-.739,0-1.478.01-2.218.015a.575.575,0,0,1,.183.112" transform="translate(-292.84 -126.502)" fill="#fcb341"/>
          <path id="Trazado_622482" data-name="Trazado 622482" d="M333.463,370.487a.793.793,0,0,0-.4-.073c-.643,0-1.285-.012-1.928.006a.563.563,0,0,1-.073.11h2.427l-.008-.007c-.006-.012-.01-.024-.015-.036" transform="translate(-294.741 -329.774)" fill="#fcb341"/>
          <path id="Trazado_622483" data-name="Trazado 622483" d="M353.03,371.152h0a.451.451,0,0,0-.064-.043c.005.012.009.024.015.036l.008.007Z" transform="translate(-314.243 -330.396)" fill="#fcb341"/>
          <path id="Trazado_622484" data-name="Trazado 622484" d="M330.052,167.491q.006-11.665,0-23.33c0-.164,0-.328-.008-.492a.589.589,0,0,0-.177-.431h-.09a.91.91,0,0,1,.146.55q-.01,12.192-.006,24.384l.073,0a1.441,1.441,0,0,0,.059-.678" transform="translate(-293.601 -127.523)" fill="#fcb341"/>
          <path id="Trazado_622485" data-name="Trazado 622485" d="M329.108,142.337a.575.575,0,0,0-.183-.112.763.763,0,0,1,.094.111h.09" transform="translate(-292.84 -126.622)" fill="#fcb341"/>
          <path id="Trazado_622486" data-name="Trazado 622486" d="M331.06,370.5v.108a.574.574,0,0,0,.073-.11h-.073" transform="translate(-294.741 -329.852)" fill="#fcb341"/>
          <path id="Trazado_622488" data-name="Trazado 622488" d="M224.758,233.777a1.337,1.337,0,0,0,.066-.605q0-2.929,0-5.858,0-4.793,0-9.586c0-.65.092-.734.737-.741.7-.007,1.4.01,2.092-.008h.151a.434.434,0,0,0-.141-.108c-.738-.006-1.476-.014-2.215-.018-.679,0-.758.078-.759.745q0,8.11,0,16.221a.447.447,0,0,1,.066-.044" transform="translate(-200.042 -193.065)" fill="#6cf4c1"/>
          <path id="Trazado_622489" data-name="Trazado 622489" d="M228.228,370.413c-.913-.023-1.826-.006-2.739-.008a.791.791,0,0,0-.4.072c-.007.015-.016.03-.025.044h3.178v-.109h-.014" transform="translate(-200.373 -329.766)" fill="#6cf4c1"/>
          <path id="Trazado_622490" data-name="Trazado 622490" d="M224.693,371.144h.041c.009-.015.018-.029.025-.044a.446.446,0,0,0-.066.044" transform="translate(-200.043 -330.388)" fill="#6cf4c1"/>
          <path id="Trazado_622491" data-name="Trazado 622491" d="M74.755,227.715h-.09c-.684.016-1.368,0-2.052.007s-.776.081-.776.785q0,5.573,0,11.147c0,1.079,0,2.158,0,3.237a1.228,1.228,0,0,1-.064.55.842.842,0,0,1,.391-.068c.913,0,1.827-.015,2.74.008h0q0-7.6.01-15.2a.773.773,0,0,0-.159-.469" transform="translate(-63.896 -202.732)" fill="#ca96e6"/>
          <path id="Trazado_622492" data-name="Trazado 622492" d="M71.212,241.924c0-1.079,0-2.158,0-3.237q0-5.573,0-11.147c0-.7.081-.779.776-.785s1.368.009,2.052-.007h.09c-.026-.037-.054-.074-.083-.11-.724,0-1.449-.008-2.173-.009s-.8.061-.8.786q0,7.553,0,15.107a.487.487,0,0,1,.076-.047,1.226,1.226,0,0,0,.064-.55" transform="translate(-63.275 -201.766)" fill="#ca96e6"/>
          <path id="Trazado_622493" data-name="Trazado 622493" d="M74.678,370.411c-.913-.024-1.827-.006-2.74-.008a.84.84,0,0,0-.391.068c-.008.016-.018.031-.027.047l3.162,0v-.109h0" transform="translate(-63.674 -329.763)" fill="#ca96e6"/>
          <path id="Trazado_622494" data-name="Trazado 622494" d="M71.071,371.109h.049c.01-.016.02-.031.027-.047a.487.487,0,0,0-.076.047" transform="translate(-63.274 -330.354)" fill="#ca96e6"/>
          <path id="Trazado_622495" data-name="Trazado 622495" d="M256.181,234.132q0-7.557,0-15.115c0-1.006,0-1.007-1.014-1.005-.442,0-.885,0-1.327-.007a.475.475,0,0,1,.132.328c.01.15.011.3.011.45q0,7.676,0,15.352a1.4,1.4,0,0,1-.052.6c.649-.019,1.3-.005,1.947-.007a.888.888,0,0,1,.372.065,1.457,1.457,0,0,1-.064-.662" transform="translate(-225.99 -194.089)" fill="#05e29b"/>
          <path id="Trazado_622496" data-name="Trazado 622496" d="M252.034,216.987c.442,0,.884.007,1.327.006,1.014,0,1.014,0,1.014,1.005q0,7.557,0,15.115a1.457,1.457,0,0,0,.064.662.6.6,0,0,1,.092.051q0-8.051,0-16.1c0-.137,0-.273,0-.41a.409.409,0,0,0-.461-.453c-.752,0-1.5.011-2.256.017a.44.44,0,0,1,.222.109" transform="translate(-224.187 -193.07)" fill="#05e29b"/>
          <path id="Trazado_622497" data-name="Trazado 622497" d="M256.047,370.406c-.649,0-1.3-.012-1.947.007a.53.53,0,0,1-.066.11h2.416c-.011-.017-.022-.034-.031-.051a.887.887,0,0,0-.372-.065" transform="translate(-226.165 -329.768)" fill="#05e29b"/>
          <path id="Trazado_622498" data-name="Trazado 622498" d="M275.869,371.082a.591.591,0,0,0-.092-.051c.008.017.02.034.031.051Z" transform="translate(-245.523 -330.327)" fill="#05e29b"/>
          <path id="Trazado_622499" data-name="Trazado 622499" d="M253.321,234.131q0-7.676,0-15.352c0-.15,0-.3-.011-.45a.474.474,0,0,0-.132-.328H253.1a.788.788,0,0,1,.1.533l0,16.2h.066a1.4,1.4,0,0,0,.052-.6" transform="translate(-225.333 -194.085)" fill="#05e29b"/>
          <path id="Trazado_622500" data-name="Trazado 622500" d="M251.953,217.124h.081a.44.44,0,0,0-.222-.109.433.433,0,0,1,.141.108" transform="translate(-224.187 -193.208)" fill="#05e29b"/>
          <path id="Trazado_622501" data-name="Trazado 622501" d="M254.033,370.5v.109a.526.526,0,0,0,.066-.11h-.066" transform="translate(-226.164 -329.85)" fill="#05e29b"/>
          <path id="Trazado_622502" data-name="Trazado 622502" d="M102.283,242.788q0-7.008,0-14.015c0-1.039,0-1.04-1.056-1.039-.443,0-.885,0-1.328-.005a.583.583,0,0,1,.177.432c0,.109.008.219.008.328q0,7.175,0,14.35a1.191,1.191,0,0,1-.059.553c.644-.018,1.287-.005,1.931-.006a.8.8,0,0,1,.4.073,1.421,1.421,0,0,1-.068-.67" transform="translate(-88.937 -202.745)" fill="#ae66d9"/>
          <path id="Trazado_622503" data-name="Trazado 622503" d="M98.407,226.783c.443,0,.885.006,1.328.005,1.056,0,1.056,0,1.056,1.039q0,7.008,0,14.015a1.419,1.419,0,0,0,.068.67.458.458,0,0,1,.067.045q0-1.762,0-3.524,0-5.859,0-11.718c0-.5-.121-.645-.567-.647-.711,0-1.423,0-2.134,0a.578.578,0,0,1,.183.111" transform="translate(-87.448 -201.8)" fill="#ae66d9"/>
          <path id="Trazado_622504" data-name="Trazado 622504" d="M102.346,370.413c-.644,0-1.287-.012-1.931.006a.479.479,0,0,1-.075.111h2.433c-.009-.015-.02-.029-.027-.044a.8.8,0,0,0-.4-.073" transform="translate(-89.332 -329.773)" fill="#ae66d9"/>
          <path id="Trazado_622505" data-name="Trazado 622505" d="M122.339,371.156h0a.452.452,0,0,0-.067-.044c.008.015.018.03.027.044Z" transform="translate(-108.858 -330.399)" fill="#ae66d9"/>
          <path id="Trazado_622506" data-name="Trazado 622506" d="M99.266,242.83q0-7.175,0-14.35c0-.109,0-.219-.008-.328a.583.583,0,0,0-.177-.432h-.1a.774.774,0,0,1,.159.469q-.015,7.6-.01,15.2l.075,0a1.192,1.192,0,0,0,.059-.553" transform="translate(-88.124 -202.738)" fill="#ae66d9"/>
          <path id="Trazado_622507" data-name="Trazado 622507" d="M98.407,226.824a.578.578,0,0,0-.183-.111c.03.037.057.073.083.11h.1" transform="translate(-87.448 -201.841)" fill="#ae66d9"/>
          <path id="Trazado_622508" data-name="Trazado 622508" d="M100.341,370.5v.109a.48.48,0,0,0,.075-.111l-.075,0" transform="translate(-89.333 -329.852)" fill="#ae66d9"/>
          <path id="Trazado_622509" data-name="Trazado 622509" d="M151.205,276.311h-.09c-.711.015-1.422,0-2.132.006-.678,0-.776.1-.779.788-.006,1.638,0,3.275,0,4.913,0,1.378,0,2.757,0,4.135a1.208,1.208,0,0,1-.067.562.668.668,0,0,1,.365-.075c.95,0,1.9-.016,2.851.006h0c0-3.279,0-6.558.01-9.838a.841.841,0,0,0-.157-.5" transform="translate(-131.882 -245.997)" fill="#fd92d2"/>
          <path id="Trazado_622510" data-name="Trazado 622510" d="M147.674,285.669a1.208,1.208,0,0,0,.067-.562c0-1.378,0-2.757,0-4.135,0-1.638,0-3.275,0-4.913,0-.692.1-.783.779-.788.711,0,1.422.009,2.132-.006h.091c-.028-.042-.059-.082-.092-.123q-1.129,0-2.258-.006c-.68,0-.775.1-.776.78q0,4.9,0,9.794h0a.39.39,0,0,1,.057-.042" transform="translate(-131.423 -244.953)" fill="#fd92d2"/>
          <path id="Trazado_622511" data-name="Trazado 622511" d="M151.142,370.414c-.95-.022-1.9-.008-2.851-.006a.668.668,0,0,0-.365.075c-.007.014-.017.028-.025.042l3.244,0v-.108h0" transform="translate(-131.675 -329.767)" fill="#fd92d2"/>
          <path id="Trazado_622512" data-name="Trazado 622512" d="M147.617,371.183h.031c.009-.014.018-.028.025-.042a.392.392,0,0,0-.057.042" transform="translate(-131.423 -330.425)" fill="#fd92d2"/>
          <path id="Trazado_622513" data-name="Trazado 622513" d="M179.494,286.1q-.005-4.427,0-8.854c0-.881-.037-.916-.933-.916-.482,0-.963,0-1.444-.005a.82.82,0,0,1,.176.62q0,1.942,0,3.885,0,2.637,0,5.275a1.176,1.176,0,0,1-.06.552c.64-.017,1.281-.006,1.921-.005a.722.722,0,0,1,.415.079,1.278,1.278,0,0,1-.071-.631" transform="translate(-157.684 -246.009)" fill="#fd4fb6"/>
          <path id="Trazado_622514" data-name="Trazado 622514" d="M175.495,275.247c.481,0,.963,0,1.444.005.9,0,.933.035.933.916q0,4.427,0,8.854a1.278,1.278,0,0,0,.071.631.405.405,0,0,1,.048.037h0q0-2.994,0-5.987,0-2.009,0-4.019c0-.33-.1-.569-.481-.569-.739,0-1.478.006-2.218.009a.581.581,0,0,1,.2.124" transform="translate(-156.064 -244.932)" fill="#fd4fb6"/>
          <path id="Trazado_622515" data-name="Trazado 622515" d="M179.47,370.419c-.64,0-1.281-.012-1.921.005a.478.478,0,0,1-.075.109l2.435,0c-.008-.012-.017-.024-.024-.037a.722.722,0,0,0-.415-.079" transform="translate(-158.004 -329.778)" fill="#fd4fb6"/>
          <path id="Trazado_622516" data-name="Trazado 622516" d="M199.5,371.212h0a.4.4,0,0,0-.048-.037c.007.012.016.025.024.037Z" transform="translate(-177.573 -330.455)" fill="#fd4fb6"/>
          <path id="Trazado_622517" data-name="Trazado 622517" d="M176.419,286.1q.006-2.637,0-5.275,0-1.942,0-3.885a.819.819,0,0,0-.176-.62h-.107a.84.84,0,0,1,.156.5c-.012,3.279-.009,6.558-.01,9.838h.075a1.177,1.177,0,0,0,.06-.552" transform="translate(-156.814 -246.002)" fill="#fd4fb6"/>
          <path id="Trazado_622518" data-name="Trazado 622518" d="M175.495,275.319a.581.581,0,0,0-.2-.124c.034.041.064.082.092.123h.107" transform="translate(-156.064 -245.004)" fill="#fd4fb6"/>
          <path id="Trazado_622519" data-name="Trazado 622519" d="M177.474,370.5v.108a.475.475,0,0,0,.075-.109h-.075" transform="translate(-158.004 -329.855)" fill="#fd4fb6"/>
          <path id="Trazado_622520" data-name="Trazado 622520" d="M258.362,87.453h0c.345-.331.692-.66,1.035-.992.894-.865,1.791-1.727,2.678-2.6.8-.786,1.584-1.584,2.375-2.377h0l0-.025a3.181,3.181,0,0,1-.818-.818h0q-2.364,2.3-4.728,4.591a17.01,17.01,0,0,0-1.372,1.344,2.568,2.568,0,0,1,.834.877" transform="translate(-229.276 -71.794)" fill="#fdcd85"/>
          <path id="Trazado_622521" data-name="Trazado 622521" d="M182.845,158.656h0c.772-.579,1.546-1.154,2.314-1.738q1.767-1.344,3.526-2.7a2.283,2.283,0,0,1-.685-.988h0l-5.893,4.447a2.152,2.152,0,0,1,.739.977" transform="translate(-162.128 -136.42)" fill="#fdcd85"/>
          <path id="Trazado_622522" data-name="Trazado 622522" d="M105.491,154.188h0l5.844,4.441h0a2.116,2.116,0,0,1,.74-.975l-5.883-4.448a2.264,2.264,0,0,1-.7.982" transform="translate(-93.918 -136.398)" fill="#fdcd85"/>
          <path id="Trazado_622523" data-name="Trazado 622523" d="M167.369,194.571c-.091.089-.258.118-.257.29a1.951,1.951,0,0,0,.956.141,1.728,1.728,0,0,0,1.425-2.172,5.741,5.741,0,0,1-.739-.977,1.858,1.858,0,0,0-1.645-.08c.211.32.537.547.677.932a1.794,1.794,0,0,1-.418,1.866" transform="translate(-148.777 -170.595)" fill="#fd4fb6"/>
          <path id="Trazado_622524" data-name="Trazado 622524" d="M182.107,193.771a5.731,5.731,0,0,0,.739.977,2.151,2.151,0,0,0-.739-.977" transform="translate(-162.129 -172.513)" fill="#fd4fb6"/>
          <path id="Trazado_622525" data-name="Trazado 622525" d="M90.467,136c-.149.267-.432.411-.58.673a1.883,1.883,0,0,0,1.7-.079h0a3.944,3.944,0,0,1,.7-.982,1.659,1.659,0,0,0-.614-1.816,1.61,1.61,0,0,0-1.8-.143A1.722,1.722,0,0,1,90.467,136" transform="translate(-80.013 -118.806)" fill="#fd4fb6"/>
          <path id="Trazado_622526" data-name="Trazado 622526" d="M105.492,154.188h0a2.264,2.264,0,0,0,.7-.982,3.941,3.941,0,0,0-.7.982" transform="translate(-93.919 -136.398)" fill="#fd4fb6"/>
          <path id="Trazado_622527" data-name="Trazado 622527" d="M243.916,136.313a1.963,1.963,0,0,1-.5.406,1.326,1.326,0,0,0,1.125.2,1.726,1.726,0,0,0,1.257-2.345h0a3.322,3.322,0,0,1-.834-.877,1.889,1.889,0,0,0-1.54.072,1.748,1.748,0,0,1,.489,2.542" transform="translate(-216.715 -118.917)" fill="#fd4fb6"/>
          <path id="Trazado_622528" data-name="Trazado 622528" d="M258.362,135.62a2.568,2.568,0,0,0-.834-.877,3.323,3.323,0,0,0,.834.877" transform="translate(-229.276 -119.961)" fill="#fd4fb6"/>
          <path id="Trazado_622529" data-name="Trazado 622529" d="M321.149,61.339c-.15.267-.436.408-.578.675h0l-.008.018h0l.355.085a1.689,1.689,0,1,0-.362-3.131,1.724,1.724,0,0,1,.593,2.353" transform="translate(-285.389 -52.342)" fill="#fd4fb6"/>
          <path id="Trazado_622530" data-name="Trazado 622530" d="M320.618,88.331h0" transform="translate(-285.444 -78.64)" fill="#fd4fb6"/>
          <path id="Trazado_622531" data-name="Trazado 622531" d="M158.338,194.094h0a1.752,1.752,0,0,0,.918,2.034h0c-.128-.179.053-.239.135-.324a1.627,1.627,0,0,0,0-2.437c-.083-.086-.26-.148-.135-.326l-.176.078h0a6.72,6.72,0,0,1-.74.975" transform="translate(-140.921 -171.863)" fill="#fd92d2"/>
          <path id="Trazado_622532" data-name="Trazado 622532" d="M158.762,194.727a6.718,6.718,0,0,0,.74-.975h0a2.117,2.117,0,0,0-.74.975" transform="translate(-141.345 -172.496)" fill="#fd92d2"/>
          <path id="Trazado_622533" data-name="Trazado 622533" d="M166.9,193.367a1.627,1.627,0,0,1,0,2.437c-.082.085-.263.145-.135.324,0-.172.166-.2.256-.29a1.8,1.8,0,0,0,.418-1.866c-.14-.385-.466-.612-.677-.932-.124.178.052.24.135.326" transform="translate(-148.429 -171.863)" fill="#fd92d2"/>
          <path id="Trazado_622534" data-name="Trazado 622534" d="M236.035,138.342l.148,0c.018-.119.112-.179.191-.253a1.581,1.581,0,0,0,.057-2.348c-.1-.1-.266-.159-.241-.346a1.64,1.64,0,0,0-.841,1.956h0a4.56,4.56,0,0,1,.686.988h0" transform="translate(-209.479 -120.544)" fill="#fd92d2"/>
          <path id="Trazado_622535" data-name="Trazado 622535" d="M236.508,154.22h0a4.562,4.562,0,0,0-.686-.988,2.284,2.284,0,0,0,.685.988Z" transform="translate(-209.951 -136.421)" fill="#fd92d2"/>
          <path id="Trazado_622536" data-name="Trazado 622536" d="M243.668,135.744a1.581,1.581,0,0,1-.057,2.348c-.079.074-.173.135-.191.253a1.963,1.963,0,0,0,.5-.406,1.748,1.748,0,0,0-.489-2.542c-.025.187.144.247.241.346" transform="translate(-216.715 -120.544)" fill="#fd92d2"/>
          <path id="Trazado_622537" data-name="Trazado 622537" d="M313.3,63.55l0,.032.011.007h0c-.051-.2.114-.292.219-.406a1.561,1.561,0,0,0-.021-2.3c-.088-.092-.243-.146-.213-.32-.807.441-1.034,1.057-.815,2.2h0a2.855,2.855,0,0,1,.814.786" transform="translate(-278.134 -53.917)" fill="#fd92d2"/>
          <path id="Trazado_622538" data-name="Trazado 622538" d="M313.944,81.458l0-.032a2.852,2.852,0,0,0-.814-.786h0a3.181,3.181,0,0,0,.818.818" transform="translate(-278.773 -71.793)" fill="#fd92d2"/>
          <path id="Trazado_622539" data-name="Trazado 622539" d="M320.737,60.881a1.561,1.561,0,0,1,.021,2.3c-.1.115-.27.2-.219.406.142-.267.429-.408.578-.675a1.724,1.724,0,0,0-.593-2.353c-.031.173.125.228.213.32" transform="translate(-285.357 -53.917)" fill="#fd92d2"/>
          <path id="Trazado_622540" data-name="Trazado 622540" d="M82.388,138.364h0c-.046-.2.118-.29.222-.4a1.561,1.561,0,0,0-.025-2.3c-.088-.092-.243-.146-.212-.319a1.69,1.69,0,0,0,.014,3.021" transform="translate(-72.514 -120.495)" fill="#fd92d2"/>
          <path id="Trazado_622541" data-name="Trazado 622541" d="M90.053,135.661a1.561,1.561,0,0,1,.025,2.3c-.1.115-.268.2-.222.4.149-.262.431-.406.58-.673a1.722,1.722,0,0,0-.595-2.348c-.031.173.125.227.212.319" transform="translate(-79.981 -120.494)" fill="#fd92d2"/>
          <path id="Trazado_622542" data-name="Trazado 622542" d="M13.155,150.259a2.089,2.089,0,0,0,.408-.023c.269-.055.463-.2.459-.49a.455.455,0,0,0-.481-.458c-.49-.039-.983,0-1.474-.019a1.023,1.023,0,0,1-.567-.077,1.5,1.5,0,0,1,0,1.143.7.7,0,0,1,.389-.072c.423-.011.846,0,1.27,0" transform="translate(-10.236 -132.826)" fill="#fdcd85"/>
          <path id="Trazado_622543" data-name="Trazado 622543" d="M11.935,148.86c.491.015.984-.021,1.474.019a.455.455,0,0,1,.482.458c0,.29-.191.435-.459.49a2.082,2.082,0,0,1-.408.023c-.423,0-.846-.006-1.27,0a.7.7,0,0,0-.389.072c-.006.014-.01.029-.016.043.669,0,1.339,0,2.008,0a.626.626,0,0,0,.691-.64c0-.349-.27-.581-.689-.585-.669-.006-1.339,0-2.008-.006.007.017.012.034.019.05a1.023,1.023,0,0,0,.567.077" transform="translate(-10.103 -132.416)" fill="#fdcd85"/>
          <path id="Trazado_622544" data-name="Trazado 622544" d="M11.368,149.1l-.019-.012q0,.584,0,1.168l.016-.013a1.5,1.5,0,0,0,0-1.143" transform="translate(-10.103 -132.729)" fill="#fdcd85"/>
          <path id="Trazado_622545" data-name="Trazado 622545" d="M11.364,159.61l-.016.013v.03c.006-.014.011-.029.016-.043" transform="translate(-10.103 -142.1)" fill="#fdcd85"/>
          <path id="Trazado_622546" data-name="Trazado 622546" d="M11.362,148.734v.038l.019.012c-.006-.017-.012-.034-.019-.05" transform="translate(-10.116 -132.417)" fill="#fdcd85"/>
          <path id="Trazado_622547" data-name="Trazado 622547" d="M13.372,224.26c.39-.012.613-.179.629-.447.017-.286-.209-.491-.611-.521-.49-.036-.982,0-1.473-.017a.789.789,0,0,1-.451-.079,1.5,1.5,0,0,1,.012,1.141.78.78,0,0,1,.421-.068c.491-.011.982.006,1.473-.008" transform="translate(-10.208 -198.71)" fill="#fdcd85"/>
          <path id="Trazado_622548" data-name="Trazado 622548" d="M11.357,222.908a.789.789,0,0,0,.451.079c.491.013.983-.02,1.473.017.4.03.628.235.611.521-.016.269-.239.436-.629.447-.491.014-.982,0-1.473.008a.781.781,0,0,0-.421.068c-.008.02-.014.041-.022.061l2.006,0a.633.633,0,0,0,.426-.1.584.584,0,0,0,.238-.681.639.639,0,0,0-.667-.441c-.669-.011-1.337-.005-2.006-.006.005.012.009.023.013.035" transform="translate(-10.099 -198.422)" fill="#fdcd85"/>
          <path id="Trazado_622549" data-name="Trazado 622549" d="M11.357,223.125l-.013-.009,0,1.166.023-.017a1.5,1.5,0,0,0-.012-1.14" transform="translate(-10.099 -198.639)" fill="#fdcd85"/>
          <path id="Trazado_622550" data-name="Trazado 622550" d="M11.388,233.593l-.023.017c0,.015,0,.03,0,.044.008-.02.015-.041.022-.061" transform="translate(-10.118 -207.966)" fill="#fdcd85"/>
          <path id="Trazado_622551" data-name="Trazado 622551" d="M11.344,222.877h0v.026l.013.009c0-.012-.008-.023-.013-.035" transform="translate(-10.099 -198.426)" fill="#fdcd85"/>
          <path id="Trazado_622552" data-name="Trazado 622552" d="M13.127,299.02a1.647,1.647,0,0,0,.487-.051.462.462,0,0,0,.388-.5.449.449,0,0,0-.441-.412c-.449-.05-.9,0-1.35-.025-.244-.012-.508.065-.73-.08a1.5,1.5,0,0,1-.006,1.15.739.739,0,0,1,.424-.076c.409-.01.819,0,1.229,0" transform="translate(-10.215 -265.263)" fill="#fdcd85"/>
          <path id="Trazado_622553" data-name="Trazado 622553" d="M12.1,297.625c.45.022.9-.024,1.35.025a.449.449,0,0,1,.441.412.462.462,0,0,1-.388.5,1.647,1.647,0,0,1-.487.051c-.41,0-.819-.006-1.229,0a.739.739,0,0,0-.424.076c-.005.012-.009.025-.014.037.655,0,1.31.007,1.965-.005.472-.008.739-.255.734-.643,0-.36-.277-.58-.732-.583-.655,0-1.31,0-1.965-.005.007.017.012.033.018.05.222.145.486.068.73.08" transform="translate(-10.099 -264.859)" fill="#fdcd85"/>
          <path id="Trazado_622554" data-name="Trazado 622554" d="M11.366,297.843l-.018-.013q0,.587,0,1.174l.014-.011a1.5,1.5,0,0,0,.006-1.15" transform="translate(-10.1 -265.156)" fill="#fdcd85"/>
          <path id="Trazado_622555" data-name="Trazado 622555" d="M11.365,297.5h0c0,.012,0,.024,0,.037l.018.013c-.006-.017-.011-.033-.018-.05" transform="translate(-10.118 -264.859)" fill="#fdcd85"/>
          <path id="Trazado_622556" data-name="Trazado 622556" d="M11.358,308.43l-.014.011c0,.009,0,.017,0,.026.005-.012.009-.025.014-.037" transform="translate(-10.099 -274.593)" fill="#fdcd85"/>
          <path id="Trazado_622557" data-name="Trazado 622557" d="M13.289,75.529a.957.957,0,0,0,.44-.069A.449.449,0,0,0,14,75.081a.429.429,0,0,0-.226-.406,1.023,1.023,0,0,0-.55-.131c-.436-.006-.873,0-1.309,0a.853.853,0,0,1-.449-.072,1.5,1.5,0,0,1,.015,1.13.789.789,0,0,1,.414-.065c.463-.01.927,0,1.391,0" transform="translate(-10.211 -66.298)" fill="#fdcd85"/>
          <path id="Trazado_622558" data-name="Trazado 622558" d="M11.351,74.152a.852.852,0,0,0,.449.072c.436.007.872,0,1.309,0a1.023,1.023,0,0,1,.55.131.429.429,0,0,1,.226.406.448.448,0,0,1-.273.379.957.957,0,0,1-.44.069c-.464,0-.927-.005-1.391,0a.791.791,0,0,0-.414.065c-.009.023-.016.047-.025.07l2-.007a.627.627,0,0,0,.427-.1.583.583,0,0,0,.239-.681.655.655,0,0,0-.669-.442c-.668-.014-1.336-.006-2-.007h0c.006.012.009.025.014.037" transform="translate(-10.093 -65.982)" fill="#fdcd85"/>
          <path id="Trazado_622559" data-name="Trazado 622559" d="M11.352,74.383l-.014-.01q0,.58,0,1.16c.008-.007.017-.014.026-.02a1.5,1.5,0,0,0-.015-1.131" transform="translate(-10.094 -66.214)" fill="#fdcd85"/>
          <path id="Trazado_622560" data-name="Trazado 622560" d="M11.4,84.772c-.009.006-.017.013-.026.02s0,.034,0,.05c.01-.023.017-.047.025-.07" transform="translate(-10.125 -75.472)" fill="#fdcd85"/>
          <path id="Trazado_622561" data-name="Trazado 622561" d="M11.337,74.126h0c0,.009,0,.018,0,.027l.014.01c-.005-.012-.009-.025-.014-.037" transform="translate(-10.093 -65.994)" fill="#fdcd85"/>
        </g>
      </g>
    </g>
    <g id="Grupo_888211" data-name="Grupo 888211">
      <rect id="Rect치ngulo_325958" data-name="Rect치ngulo 325958" width="200.991" height="42" transform="translate(180 5278.766)" fill="#a3314f"/>
      <path id="Trazado_622487" data-name="Trazado 622487" d="M228.344,217.992h-.151c-.7.017-1.4,0-2.092.008-.645.007-.736.091-.737.741q-.007,4.793,0,9.586,0,2.929,0,5.858a1.337,1.337,0,0,1-.066.605.791.791,0,0,1,.4-.072c.913,0,1.826-.015,2.739.008h.014q0-8.1,0-16.2a.788.788,0,0,0-.1-.533" transform="translate(186.342 5084.69)" fill="#6cf4c1"/>
      <rect id="Rect치ngulo_326657" data-name="Rect치ngulo 326657" width="42.072" height="42" transform="translate(386.92 5278.766)" fill="none"/>
    </g>
  </g>
</svg>
