<svg xmlns="http://www.w3.org/2000/svg" xmlns:xlink="http://www.w3.org/1999/xlink" width="112" height="112" viewBox="0 0 112 112">
  <defs>
    <clipPath id="clip-path">
      <rect id="Rectángulo_325870" data-name="Rectángulo 325870" width="75.022" height="75" fill="none"/>
    </clipPath>
  </defs>
  <g id="Grupo_888216" data-name="Grupo 888216" transform="translate(-481.546 -8504.966)">
    <circle id="Elipse_6594" data-name="Elipse 6594" cx="56" cy="56" r="56" transform="translate(481.546 8504.966)" fill="#ffe9b2"/>
    <g id="Grupo_887217" data-name="Grupo 887217" transform="translate(499.546 8523.966)">
      <g id="Grupo_887216" data-name="Grupo 887216" clip-path="url(#clip-path)">
        <path id="Trazado_621805" data-name="Trazado 621805" d="M13.636,62.884c.24-.238.135-.541.135-.814q.012-4.636,0-9.272a1.236,1.236,0,0,1,.89-1.311,1.186,1.186,0,0,1,1.379.464,1.612,1.612,0,0,1,.236,1.041q0,5.3.011,10.6h0a21.587,21.587,0,0,0,7.062.059,20.087,20.087,0,0,0,16.665-19.19c.022-1.371-.367-1.769-1.737-1.77-5.39,0-10.779-.014-16.168.017-.694,0-.858-.173-.854-.858.03-5.415.018-10.831.016-16.246,0-1.265-.421-1.674-1.694-1.659a20.382,20.382,0,0,0-3.1.313A20.025,20.025,0,0,0,.425,47.818c1.615,7.423,6.1,12.42,13.211,15.066" transform="translate(0 -18.942)" fill="#febb42"/>
        <path id="Trazado_621806" data-name="Trazado 621806" d="M115.438,21.243q9.019,0,18.039,0c1.212,0,1.644-.435,1.62-1.651A20.254,20.254,0,0,0,132.438,10c-2.778,0-5.555-.012-8.333,0a1.328,1.328,0,0,1-1.453-.919A1.24,1.24,0,0,1,123.958,7.5c1.947-.015,3.894,0,5.841-.011.272,0,.575.107.812-.136h0c-.173-.195-.343-.391-.518-.583A19.862,19.862,0,0,0,115.518,0c-1.24-.041-1.665.386-1.665,1.6q0,9.019,0,18.039c0,1.183.417,1.607,1.585,1.607" transform="translate(-90.078 0.001)" fill="#fe6b6b"/>
        <path id="Trazado_621807" data-name="Trazado 621807" d="M312.888,280.837q0-7.924-.006-15.848c0-1.22-.414-1.626-1.643-1.629q-2.069,0-4.138,0c-1.341,0-1.717.374-1.718,1.707q0,7.885-.006,15.771h7.511" transform="translate(-241.609 -208.364)" fill="#33b8ee"/>
        <path id="Trazado_621808" data-name="Trazado 621808" d="M186.785,347.081c-.65,0-1.3-.014-1.949-.021h0a1.107,1.107,0,0,1-.932.27q-2.823.019-5.647,0a1.107,1.107,0,0,1-.932-.27h-30c-.832.008-1.664-.005-2.5.028a1.232,1.232,0,0,0-1.233,1.648c.227.72.8.852,1.486.852q14.278-.013,28.557-.006h13.108c1.278,0,1.844-.393,1.83-1.269-.014-.853-.561-1.227-1.792-1.231" transform="translate(-113.557 -274.588)" fill="#336589"/>
        <path id="Trazado_621809" data-name="Trazado 621809" d="M311.956,347.331a1.108,1.108,0,0,0,.932-.27h-7.511a1.108,1.108,0,0,0,.932.27q2.823.019,5.647,0" transform="translate(-241.609 -274.589)" fill="#336589"/>
        <path id="Trazado_621810" data-name="Trazado 621810" d="M210.488,299.55q2.872-.012,5.745,0a1.308,1.308,0,0,1,.883.227q0-5.463-.007-10.927c0-1.12-.434-1.546-1.563-1.55q-2.146-.007-4.292,0c-1.231,0-1.641.407-1.643,1.628q-.006,5.424-.007,10.849h0a1.305,1.305,0,0,1,.883-.227" transform="translate(-165.835 -227.305)" fill="#33b8ee"/>
        <path id="Trazado_621811" data-name="Trazado 621811" d="M217.116,346.177a1.308,1.308,0,0,0-.883-.227q-2.873-.012-5.745,0a1.305,1.305,0,0,0-.883.227h7.511" transform="translate(-165.835 -273.705)" fill="#33b8ee"/>
        <path id="Trazado_621812" data-name="Trazado 621812" d="M163.886,35.585c-1.665.022-3.331.007-5,.01a3.178,3.178,0,0,0-1.007.089.911.911,0,0,0-.7.924.928.928,0,0,0,.707.922,3.248,3.248,0,0,0,1.007.086c2.238,0,4.476,0,6.714.005.381,0,.79-.073,1.109.24,5.643,0,11.287,0,16.93-.018.587,0,.773.172.746.754-.043.934-.017,1.872-.01,2.808s.46,1.451,1.252,1.449,1.24-.524,1.244-1.457c.006-1.456,0-2.913,0-4.369,0-1.3-.365-1.672-1.656-1.672q-9.674,0-19.349,0a1.669,1.669,0,0,1-.986-.141c-.2.483-.645.368-1.008.372" transform="translate(-124.362 -27.86)" fill="#dae7ec"/>
        <path id="Trazado_621813" data-name="Trazado 621813" d="M162.911,35.348c-1.947.01-3.894,0-5.841.011a1.24,1.24,0,0,0-1.306,1.582,1.329,1.329,0,0,0,1.453.919c2.778-.011,5.555,0,8.333,0-.319-.313-.728-.238-1.109-.24-2.238-.01-4.476,0-6.713-.005a3.243,3.243,0,0,1-1.008-.086.928.928,0,0,1-.707-.922.911.911,0,0,1,.7-.923,3.179,3.179,0,0,1,1.007-.09c1.665,0,3.331.011,5-.01.363,0,.806.11,1.008-.372h0c-.237.243-.54.134-.812.136" transform="translate(-123.19 -27.859)" fill="#dae7ec"/>
        <path id="Trazado_621814" data-name="Trazado 621814" d="M258.377,309.021q2.872-.012,5.744,0a1.3,1.3,0,0,1,.883.227q0-4.213-.008-8.425c0-1.115-.441-1.547-1.564-1.551q-2.146-.007-4.291,0c-1.228,0-1.64.41-1.642,1.63q-.006,4.174-.006,8.347a1.3,1.3,0,0,1,.883-.227" transform="translate(-203.725 -236.776)" fill="#33b8ee"/>
        <path id="Trazado_621815" data-name="Trazado 621815" d="M265,346.178a1.3,1.3,0,0,0-.883-.227q-2.872-.012-5.744,0a1.3,1.3,0,0,0-.883.227H265" transform="translate(-203.724 -273.706)" fill="#33b8ee"/>
        <path id="Trazado_621816" data-name="Trazado 621816" d="M162.6,318.489q2.873-.012,5.745,0a1.307,1.307,0,0,1,.883.227c0-2,0-4-.009-6.006-.005-1.016-.46-1.463-1.486-1.469-1.482-.008-2.964-.006-4.446,0-1.128,0-1.56.431-1.564,1.548-.006,1.976-.005,3.952-.007,5.929a1.307,1.307,0,0,1,.883-.227" transform="translate(-127.946 -246.243)" fill="#33b8ee"/>
        <path id="Trazado_621817" data-name="Trazado 621817" d="M169.227,346.178a1.306,1.306,0,0,0-.883-.227q-2.872-.012-5.745,0a1.307,1.307,0,0,0-.883.227h7.512" transform="translate(-127.946 -273.706)" fill="#33b8ee"/>
        <path id="Trazado_621818" data-name="Trazado 621818" d="M240.939,146.14q4.837,0,9.674,0,4.915,0,9.83,0c.974,0,1.524-.484,1.5-1.287-.023-.772-.552-1.209-1.5-1.209q-9.752,0-19.5,0c-1.017,0-1.524.43-1.524,1.257s.493,1.239,1.523,1.24" transform="translate(-189.422 -113.646)" fill="#336589"/>
        <path id="Trazado_621819" data-name="Trazado 621819" d="M13.434,325.7q9.713,0,19.426,0a3.963,3.963,0,0,0,.468-.009,1.2,1.2,0,0,0,1.119-1.267,1.178,1.178,0,0,0-1.093-1.211,4.184,4.184,0,0,0-.623-.012H23.212c-3.277,0-6.553-.005-9.83,0-1.028,0-1.572.575-1.445,1.476.1.7.563,1.019,1.5,1.019" transform="translate(-9.43 -255.707)" fill="#336589"/>
        <path id="Trazado_621820" data-name="Trazado 621820" d="M67.7,167.738c-.01-2.962,0-5.924-.006-8.886a3.4,3.4,0,0,0-.092-1.083.948.948,0,0,0-1.833.011,3.524,3.524,0,0,0-.088,1.083c0,2.754.007,5.508-.009,8.262,0,.389.118.853-.374,1.088a1.542,1.542,0,0,1,.139.91q0,3.046,0,6.093c0,1.012.426,1.539,1.236,1.548s1.259-.521,1.263-1.52q.011-3.163.015-6.327c-.34-.338-.251-.775-.252-1.179" transform="translate(-51.663 -124.271)" fill="#dae8ed"/>
        <path id="Trazado_621821" data-name="Trazado 621821" d="M67.705,156.074a1.186,1.186,0,0,0-1.379-.464,1.236,1.236,0,0,0-.889,1.311q.006,4.636,0,9.272c0,.273.1.576-.135.813.492-.234.372-.7.374-1.088.016-2.754.007-5.508.009-8.262a3.524,3.524,0,0,1,.088-1.083.948.948,0,0,1,1.833-.011,3.4,3.4,0,0,1,.092,1.083c0,2.962,0,5.924.006,8.886,0,.4-.088.842.252,1.179q-.007-5.3-.012-10.6a1.613,1.613,0,0,0-.236-1.041" transform="translate(-51.663 -123.064)" fill="#dae8ed"/>
        <path id="Trazado_621822" data-name="Trazado 621822" d="M217.343,230.9h0c-.078-.3-.137-.607-.238-.9a3.737,3.737,0,0,0-5.467-1.977c-1.474.9-2.012,2.312-1.67,4.381a5.448,5.448,0,0,0,1.462,1.941h0c2.266,1.076,3.7.786,5.3-1.076a4.581,4.581,0,0,0,.613-2.369" transform="translate(-166.044 -179.977)" fill="#febb42"/>
        <path id="Trazado_621823" data-name="Trazado 621823" d="M167.637,263.99h0c-.331-.147-.652-.323-.994-.437a3.74,3.74,0,0,0-4.215,5.7,3.747,3.747,0,0,0,4.2,1.427c1.934-.619,2.858-2.394,2.468-4.742a5.446,5.446,0,0,0-1.458-1.947" transform="translate(-127.967 -208.369)" fill="#febb42"/>
        <path id="Trazado_621824" data-name="Trazado 621824" d="M308.078,210.787a3.733,3.733,0,1,0,.293-7.1c-2.053.591-3.018,2.36-2.609,4.782a5.448,5.448,0,0,0,1.465,1.938h0c.283.127.561.268.85.379" transform="translate(-241.841 -161.043)" fill="#febb42"/>
        <path id="Trazado_621825" data-name="Trazado 621825" d="M263.332,240.036h0c-2.26-1.082-3.67-.8-5.3,1.063a4.638,4.638,0,0,0-.614,2.378c.069.277.123.56.21.831a3.739,3.739,0,0,0,5.184,2.208c1.648-.8,2.329-2.365,1.975-4.535a5.524,5.524,0,0,0-1.456-1.945" transform="translate(-203.664 -189.414)" fill="#febb42"/>
        <path id="Trazado_621826" data-name="Trazado 621826" d="M263.52,96.979c-.013.8.536,1.27,1.521,1.272q3.593.008,7.186,0,3.632,0,7.264,0c.986,0,1.535-.468,1.523-1.27-.011-.778-.539-1.226-1.482-1.227q-7.264-.006-14.528,0c-.943,0-1.471.447-1.484,1.225" transform="translate(-208.492 -75.757)" fill="#336589"/>
        <path id="Trazado_621827" data-name="Trazado 621827" d="M52.2,277.823a1.245,1.245,0,1,0-.006-2.488c-4.947-.01-9.894,0-14.84-.007a1.206,1.206,0,0,0-1.314.981c-.2.85.4,1.513,1.4,1.517,2.421.01,4.843,0,7.264,0,2.5,0,5,.01,7.5-.006" transform="translate(-28.479 -217.835)" fill="#336589"/>
        <path id="Trazado_621828" data-name="Trazado 621828" d="M246.908,122.194c2.027,0,4.054.005,6.081,0,.922,0,1.457-.48,1.451-1.257s-.535-1.236-1.468-1.238q-6.042-.007-12.084,0c-.959,0-1.459.432-1.474,1.225-.016.842.477,1.269,1.491,1.271,2,0,4,0,6,0" transform="translate(-189.42 -94.699)" fill="#336589"/>
        <path id="Trazado_621829" data-name="Trazado 621829" d="M290.346,168.859c.017-.78-.518-1.275-1.431-1.276q-6.082-.01-12.165,0c-.941,0-1.44.463-1.434,1.266s.488,1.226,1.455,1.229c2.028.005,4.055,0,6.083,0s4.055.006,6.082,0c.876,0,1.394-.466,1.41-1.218" transform="translate(-217.825 -132.585)" fill="#336589"/>
        <path id="Trazado_621830" data-name="Trazado 621830" d="M13.425,299.274c-1,0-1.506.457-1.488,1.291.017.8.5,1.2,1.481,1.2,2,0,4,0,6.006,0,2.028,0,4.056.005,6.084,0,.937,0,1.458-.46,1.46-1.246s-.517-1.248-1.453-1.25q-6.045-.008-12.09,0" transform="translate(-9.444 -236.778)" fill="#336589"/>
        <path id="Trazado_621831" data-name="Trazado 621831" d="M61.461,347.16q-6.081-.01-12.162,0c-.942,0-1.44.461-1.436,1.265s.485,1.228,1.452,1.23c2.027.005,4.054,0,6.081,0s4.054.006,6.081,0c.877,0,1.394-.465,1.413-1.215.019-.778-.52-1.277-1.429-1.279" transform="translate(-37.869 -274.663)" fill="#336589"/>
        <path id="Trazado_621832" data-name="Trazado 621832" d="M290,227.124l-4.254,3.195h0a2.375,2.375,0,0,1,1.456,1.945l4.263-3.2h0A2.3,2.3,0,0,1,290,227.124" transform="translate(-226.074 -179.697)" fill="#33658a"/>
        <path id="Trazado_621833" data-name="Trazado 621833" d="M306.112,227.124h0a2.3,2.3,0,0,0,1.465,1.938,5.452,5.452,0,0,1-1.465-1.938" transform="translate(-242.191 -179.697)" fill="#33658a"/>
        <path id="Trazado_621834" data-name="Trazado 621834" d="M285.743,242.425a5.524,5.524,0,0,1,1.456,1.945,2.375,2.375,0,0,0-1.456-1.945" transform="translate(-226.075 -191.803)" fill="#33658a"/>
        <path id="Trazado_621835" data-name="Trazado 621835" d="M194.227,251.059l-4.254,3.2h0a2.316,2.316,0,0,1,1.458,1.947l4.258-3.2a2.3,2.3,0,0,1-1.462-1.941" transform="translate(-150.303 -198.634)" fill="#33658a"/>
        <path id="Trazado_621836" data-name="Trazado 621836" d="M210.345,251.059h0A2.3,2.3,0,0,0,211.807,253a5.448,5.448,0,0,1-1.462-1.941" transform="translate(-166.421 -198.634)" fill="#33658a"/>
        <path id="Trazado_621837" data-name="Trazado 621837" d="M189.974,266.364a5.446,5.446,0,0,1,1.458,1.947,2.316,2.316,0,0,0-1.458-1.947" transform="translate(-150.304 -210.743)" fill="#33658a"/>
        <path id="Trazado_621838" data-name="Trazado 621838" d="M327.069,119.656c-.906-.034-1.816-.041-2.72.005a1.165,1.165,0,0,0-1.14,1.3,1.151,1.151,0,0,0,1.192,1.172c.439.023.881,0,1.322,0s.883.023,1.321-.006a1.206,1.206,0,0,0,1.194-1.269,1.18,1.18,0,0,0-1.169-1.209" transform="translate(-255.716 -94.648)" fill="#33658a"/>
        <path id="Trazado_621839" data-name="Trazado 621839" d="M240.59,170.018c.44.024.881,0,1.322,0h1.245a1.331,1.331,0,0,0,.156-.005,1.2,1.2,0,0,0,1.125-1.254,1.117,1.117,0,0,0-1.07-1.213,23.3,23.3,0,0,0-2.875,0,1.239,1.239,0,0,0,.1,2.466" transform="translate(-189.418 -132.529)" fill="#33658a"/>
        <path id="Trazado_621840" data-name="Trazado 621840" d="M99.572,299.234c-.88-.032-1.763-.034-2.643,0a1.242,1.242,0,0,0,.024,2.483c.414.02.829,0,1.244,0v0c.466,0,.935.027,1.4-.006a1.241,1.241,0,0,0-.024-2.479" transform="translate(-75.745 -236.73)" fill="#33658a"/>
        <path id="Trazado_621841" data-name="Trazado 621841" d="M15.875,347.12a24.769,24.769,0,0,0-2.8-.005,1.168,1.168,0,0,0-1.139,1.308,1.148,1.148,0,0,0,1.194,1.168c.414.021.829,0,1.244,0v-.005c.493,0,.988.033,1.477-.008a1.175,1.175,0,0,0,1.11-1.263,1.125,1.125,0,0,0-1.088-1.2" transform="translate(-9.444 -274.602)" fill="#33658a"/>
        <path id="Trazado_621842" data-name="Trazado 621842" d="M246.41,244.617l-3.07-.764a2.087,2.087,0,0,1-.613,2.369L245.8,247a2.087,2.087,0,0,1,.614-2.378" transform="translate(-192.041 -192.932)" fill="#34658a"/>
        <path id="Trazado_621843" data-name="Trazado 621843" d="M243.339,243.853h0a4.579,4.579,0,0,1-.613,2.369h0a2.087,2.087,0,0,0,.613-2.369" transform="translate(-192.041 -192.932)" fill="#34658a"/>
        <path id="Trazado_621844" data-name="Trazado 621844" d="M257.481,247.514a2.087,2.087,0,0,0-.614,2.378h0a4.637,4.637,0,0,1,.614-2.378" transform="translate(-203.113 -195.829)" fill="#34658a"/>
      </g>
    </g>
  </g>
</svg>
