<svg xmlns="http://www.w3.org/2000/svg" xmlns:xlink="http://www.w3.org/1999/xlink" width="347.082" height="42" viewBox="0 0 347.082 42">
  <defs>
    <clipPath id="clip-path">
      <rect id="Rect치ngulo_326656" data-name="Rect치ngulo 326656" width="72.628" height="42" fill="none"/>
    </clipPath>
  </defs>
  <g id="Grupo_888213" data-name="Grupo 888213" transform="translate(-180 -3876.652)">
    <rect id="Rect치ngulo_325958" data-name="Rect치ngulo 325958" width="269.404" height="42" transform="translate(180 3876.652)" fill="#a3314f"/>
    <g id="Grupo_888177" data-name="Grupo 888177" transform="translate(454.454 3876.652)">
      <g id="Grupo_888176" data-name="Grupo 888176" clip-path="url(#clip-path)">
        <path id="Trazado_622454" data-name="Trazado 622454" d="M72.263,21.824a26.653,26.653,0,0,1-3.959,4c-3.05,2.691-6.24,5.213-9.466,7.689-.7.537-1.231.432-1.649-.347a26.383,26.383,0,0,1-3.223-10.459c-.024-.3-.106-.45-.456-.452q-2.677-.019-5.353-.09c-.315-.008-.413.2-.545.394q-2.631,3.778-5.256,7.56-2.006,2.89-4.006,5.784,1.614.007,3.229.014a2.072,2.072,0,0,1,2.256,2.244c0,.594.009,1.189,0,1.783a2,2,0,0,1-2.046,2.045q-5.93.015-11.86,0a1.957,1.957,0,0,1-2.011-2.012c-.008-.626,0-1.253,0-1.879a2.023,2.023,0,0,1,2.161-2.173c2.057-.006,4.114,0,6.171,0,.176,0,.353-.012.529-.019q2.124-3.073,4.248-6.145,2.472-3.566,4.95-7.128c.1-.141.188-.288.282-.433-.152-.132-.3-.08-.438-.082-2.895-.046-5.789-.081-8.684-.129-3.152-.052-6.3-.1-9.454-.184a1.2,1.2,0,0,0-1.172.591q-4.569,6.629-9.182,13.228c-.064.092-.117.191-.176.287h0l3.279.02a2.037,2.037,0,0,1,2.188,2.2c0,.627.01,1.254,0,1.88a1.963,1.963,0,0,1-1.954,1.979q-6.006.022-12.013,0a1.912,1.912,0,0,1-1.917-1.756,13.071,13.071,0,0,1,0-2.5,1.962,1.962,0,0,1,2.078-1.8c2.058-.006,4.117,0,6.175,0,.193,0,.385-.013.578-.02q3-4.337,6.01-8.673,1.758-2.535,3.52-5.066c.07-.1.178-.189.164-.354-1.2-.12-2.4-.071-3.6-.093-4-.071-8.005-.131-12.008-.207a1.054,1.054,0,0,0-.809.313Q4.651,25.749.444,29.65A.918.918,0,0,1,0,29.961c.487-1.166.959-2.284,1.422-3.4.588-1.424,1.166-2.85,1.632-4.322a3.926,3.926,0,0,0,.006-2.451c-.662-2.1-1.55-4.113-2.4-6.142a10.822,10.822,0,0,1-.562-1.6c.393.36.789.717,1.179,1.08Q5,16.588,8.715,20.064a1.377,1.377,0,0,0,1.059.419c4.919-.09,9.838-.16,14.757-.239.239,0,.477-.037.8-.064-.317-.463-.6-.882-.889-1.3L15.566,6.1,9.011,6.075A2.079,2.079,0,0,1,6.7,3.749c0-.562-.007-1.124,0-1.686A2,2,0,0,1,8.779,0Q14.66,0,20.542.006a1.988,1.988,0,0,1,2.075,2.053c.009.642.007,1.285,0,1.927a2.02,2.02,0,0,1-2.1,2.088c-1.124.013-2.249.016-3.373.024l8.776,12.628c.248.356.518.7.736,1.072a.729.729,0,0,0,.737.395q7.5-.131,15-.233c1.269-.018,2.539,0,3.778,0,.109-.288-.061-.386-.144-.5q-4.549-6.555-9.107-13.1c-.054-.078-.095-.166-.142-.249q-3.277-.011-6.555-.021a2.062,2.062,0,0,1-2.311-2.317c0-.578-.006-1.156,0-1.734A1.951,1.951,0,0,1,29.873.011q6.026-.023,12.051,0a1.973,1.973,0,0,1,1.9,1.936c.025.69.021,1.381.006,2.071a2.04,2.04,0,0,1-2.1,2.056c-1.124.013-2.249.014-3.373.021q3.06,4.417,6.12,8.835c1.044,1.505,2.1,3,3.13,4.517a.784.784,0,0,0,.782.389c1.672-.052,3.345-.065,5.017-.061.412,0,.54-.112.572-.533A26.043,26.043,0,0,1,57.262,8.7.9.9,0,0,1,58.723,8.4a138.3,138.3,0,0,1,12.086,10.11,12.614,12.614,0,0,1,1.461,1.666,1.125,1.125,0,0,1-.007,1.651" transform="translate(0 0)" fill="#fdfdfd"/>
        <path id="Trazado_622455" data-name="Trazado 622455" d="M70.809,64.847a138.276,138.276,0,0,0-12.086-10.11.9.9,0,0,0-1.461.307,26.043,26.043,0,0,0-3.283,10.538c-.033.42-.16.534-.572.533-1.673,0-3.346.01-5.017.061a.784.784,0,0,1-.782-.389c-1.032-1.513-2.086-3.012-3.13-4.517q-3.062-4.416-6.12-8.835l-1.579,0c.047.083.088.171.142.249q4.555,6.551,9.107,13.1c.082.118.253.216.144.5-1.239,0-2.509-.015-3.778,0q-7.5.1-15,.233a.729.729,0,0,1-.737-.395c-.219-.373-.489-.716-.736-1.072L17.141,52.437H15.566l8.872,12.788c.288.415.572.834.889,1.3-.319.026-.557.06-.8.064-4.919.079-9.838.148-14.757.239A1.378,1.378,0,0,1,8.715,66.4q-3.7-3.487-7.434-6.944C.891,59.1.495,58.741.1,58.381a10.81,10.81,0,0,0,.562,1.6c.845,2.029,1.734,4.04,2.4,6.142a3.926,3.926,0,0,1-.006,2.451c-.466,1.471-1.044,2.9-1.632,4.322C.959,74.018.487,75.135,0,76.3a.919.919,0,0,0,.444-.311q4.2-3.907,8.394-7.823a1.054,1.054,0,0,1,.809-.313c4,.076,8.005.137,12.008.207,1.2.021,2.4-.028,3.6.093.014.166-.094.253-.164.354q-1.758,2.534-3.52,5.066-3.007,4.335-6.01,8.674h1.588c.058-.1.112-.2.176-.287q4.6-6.611,9.182-13.228a1.2,1.2,0,0,1,1.172-.591c3.151.085,6.3.133,9.454.184,2.895.048,5.789.083,8.684.129.134,0,.285-.05.438.082-.095.146-.185.292-.282.433Q43.5,72.537,41.025,76.1q-2.128,3.07-4.248,6.145l1.573,0h0q2-2.892,4.006-5.784,2.625-3.782,5.256-7.56c.132-.19.23-.4.545-.394q2.676.068,5.353.09c.349,0,.432.15.456.452a26.382,26.382,0,0,0,3.223,10.459c.419.779.949.885,1.649.347,3.226-2.476,6.416-5,9.466-7.689a26.654,26.654,0,0,0,3.959-4,1.125,1.125,0,0,0,.007-1.651,12.614,12.614,0,0,0-1.461-1.666m-9.987-1.409a1.759,1.759,0,0,1-1.734-1.762,1.8,1.8,0,0,1,1.774-1.788,1.832,1.832,0,0,1,1.775,1.8,1.8,1.8,0,0,1-1.815,1.747" transform="translate(0 -46.34)" fill="#b0c0d2"/>
        <path id="Trazado_622456" data-name="Trazado 622456" d="M248.964,308.861c-.176.007-.353.019-.529.019-2.057,0-4.114,0-6.171,0a2.023,2.023,0,0,0-2.162,2.173c0,.626-.008,1.253,0,1.879a1.957,1.957,0,0,0,2.011,2.012q5.93.017,11.86,0a2,2,0,0,0,2.046-2.044c.011-.594,0-1.188,0-1.783a2.072,2.072,0,0,0-2.256-2.244q-1.615-.005-3.229-.014h0a1.893,1.893,0,0,1-1.573,0" transform="translate(-212.187 -272.956)" fill="#c9da2a"/>
        <path id="Trazado_622457" data-name="Trazado 622457" d="M316.363,308.861a1.893,1.893,0,0,0,1.573,0h0l-1.573,0" transform="translate(-279.586 -272.956)" fill="#c9da2a"/>
        <path id="Trazado_622458" data-name="Trazado 622458" d="M68.045,6.109c1.124-.007,2.249-.01,3.373-.024A2.02,2.02,0,0,0,73.522,4c.006-.642.008-1.285,0-1.927A1.988,1.988,0,0,0,71.446.018Q65.565.01,59.683.017A2,2,0,0,0,57.6,2.075c-.009.562,0,1.124,0,1.686a2.079,2.079,0,0,0,2.312,2.326l6.555.021a1.8,1.8,0,0,1,1.574,0" transform="translate(-50.904 -0.012)" fill="#fe006a"/>
        <path id="Trazado_622459" data-name="Trazado 622459" d="M133.9,51.063h1.574a1.8,1.8,0,0,0-1.574,0" transform="translate(-118.339 -44.967)" fill="#fe006a"/>
        <path id="Trazado_622460" data-name="Trazado 622460" d="M250.541,6.1c1.124-.007,2.249-.008,3.373-.021a2.04,2.04,0,0,0,2.1-2.056c.015-.69.019-1.382-.006-2.071a1.973,1.973,0,0,0-1.9-1.936q-6.025-.022-12.051,0A1.951,1.951,0,0,0,240.1,2.026c-.008.578,0,1.156,0,1.734a2.062,2.062,0,0,0,2.311,2.317q3.277.007,6.555.021h0a1.8,1.8,0,0,1,1.579,0" transform="translate(-212.182 0.001)" fill="#1fc1c8"/>
        <path id="Trazado_622461" data-name="Trazado 622461" d="M317.956,51.058a1.8,1.8,0,0,0-1.579,0h0l1.579,0" transform="translate(-279.598 -44.962)" fill="#1fc1c8"/>
        <path id="Trazado_622462" data-name="Trazado 622462" d="M66.29,308.887c-.193.007-.385.019-.578.02-2.058,0-4.117,0-6.175,0a1.962,1.962,0,0,0-2.078,1.8,13.06,13.06,0,0,0,0,2.5,1.912,1.912,0,0,0,1.916,1.756q6.006.019,12.013,0a1.963,1.963,0,0,0,1.954-1.978c.014-.626.007-1.253,0-1.88a2.037,2.037,0,0,0-2.188-2.2l-3.279-.02h0a2.042,2.042,0,0,1-1.588,0" transform="translate(-50.726 -272.979)" fill="#fe8a00"/>
        <path id="Trazado_622463" data-name="Trazado 622463" d="M135.474,308.888h-1.588a2.042,2.042,0,0,0,1.588,0" transform="translate(-118.322 -272.979)" fill="#fe8a00"/>
        <path id="Trazado_622464" data-name="Trazado 622464" d="M510.059,116.54a1.8,1.8,0,0,0-1.774,1.788,1.759,1.759,0,0,0,1.734,1.762,1.8,1.8,0,0,0,1.815-1.747,1.832,1.832,0,0,0-1.775-1.8" transform="translate(-449.197 -102.992)" fill="#fefefe"/>
      </g>
    </g>
  </g>
</svg>
