<svg xmlns="http://www.w3.org/2000/svg" xmlns:xlink="http://www.w3.org/1999/xlink" width="525.032" height="42" viewBox="0 0 525.032 42">
  <defs>
    <clipPath id="clip-path">
      <rect id="Rect치ngulo_325869" data-name="Rect치ngulo 325869" width="42.001" height="42.001" fill="none"/>
    </clipPath>
  </defs>
  <g id="Grupo_888215" data-name="Grupo 888215" transform="translate(-180 -7794.621)">
    <rect id="Rect치ngulo_325123" data-name="Rect치ngulo 325123" width="478.299" height="42" transform="translate(180 7794.621)" fill="#a3314f"/>
    <g id="Grupo_887213" data-name="Grupo 887213" transform="translate(663.031 7794.621)">
      <g id="Grupo_887213-2" data-name="Grupo 887213" clip-path="url(#clip-path)">
        <path id="Trazado_621760" data-name="Trazado 621760" d="M39.195,251.86q-3.52,0-7.039.006H3.341c-.175,0-.35,0-.524-.006l-2.8.009c0,1.092-.012,2.183-.014,3.274a2.116,2.116,0,0,0,2.331,2.323l13.757.006h9.822c.626,0,1.252-.005,1.878-.005q6,0,12.01,0A2.087,2.087,0,0,0,42,255.449c.023-1.193,0-2.387-.006-3.58ZM37.1,254.71a.7.7,0,1,1-.643-.741.712.712,0,0,1,.643.741m1.428.655a.7.7,0,1,1,.672-.715.707.707,0,0,1-.672.715" transform="translate(-0.006 -222.466)" fill="#212121"/>
        <path id="Trazado_621761" data-name="Trazado 621761" d="M2.811,87.552q-.005-3.306-.01-6.612,0-5.6,0-11.2c0-.744.216-.959.964-.958l14.129.01a11.771,11.771,0,0,1,1.338-2.8c-.16,0-.32-.01-.48-.01H2.361A2.122,2.122,0,0,0,0,68.323q0,9.462,0,18.925c0,.145.009.291.014.436A.625.625,0,0,1,.5,87.545c.769,0,1.538-.016,2.307.006" transform="translate(0 -58.282)" fill="#424242"/>
        <path id="Trazado_621762" data-name="Trazado 621762" d="M2.919,250.707c-.769-.022-1.538-.008-2.307-.006a.625.625,0,0,0-.489.139l2.8-.009c0-.041,0-.083,0-.124" transform="translate(-0.109 -221.437)" fill="#424242"/>
        <path id="Trazado_621763" data-name="Trazado 621763" d="M151.528,34.7a12.421,12.421,0,0,0-.969,2.026c-.052.14-.092.29-.232.364a9.829,9.829,0,0,0,.421,6.588c.113.266.266.514.4.77h0l4.146-2.235,4.456-2.4q0-4.89,0-9.78h0c-.087,0-.174-.014-.261-.011a10.1,10.1,0,0,0-5,1.514q.468,1.124.936,2.248c.211.509.1.889-.3,1.07s-.757-.01-.981-.516q-.422-.953-.841-1.906h0a12.359,12.359,0,0,0-1.62,1.8h0c.07.2-.069.33-.152.471" transform="translate(-132.45 -26.52)" fill="#fabf2d"/>
        <path id="Trazado_621764" data-name="Trazado 621764" d="M153.2,68.869c-.006.02-.01.041-.016.061.141-.073.181-.224.232-.364a12.421,12.421,0,0,1,.969-2.026c.084-.141.222-.276.152-.471a11.768,11.768,0,0,0-1.338,2.8Z" transform="translate(-135.304 -58.358)" fill="#fabf2d"/>
        <path id="Trazado_621765" data-name="Trazado 621765" d="M234.046,39.617a.975.975,0,0,1-.016.129.565.565,0,0,1-.058.16l9.73.006a8.706,8.706,0,0,0-.4-2.786,10.266,10.266,0,0,0-1.325-2.806h0c-.089-.114-.178-.229-.268-.342a9.64,9.64,0,0,0-7.792-3.852.573.573,0,0,1,.136.447c0,3.015.018,6.03-.007,9.044" transform="translate(-206.617 -26.61)" fill="#7cb242"/>
        <path id="Trazado_621766" data-name="Trazado 621766" d="M233.918,39.906h.054a.56.56,0,0,0,.058-.16.975.975,0,0,0,.016-.129c.025-3.015.01-6.03.007-9.044a.573.573,0,0,0-.136-.447q0,4.89,0,9.78" transform="translate(-206.617 -26.61)" fill="#7cb242"/>
        <path id="Trazado_621767" data-name="Trazado 621767" d="M309.618,68.141a2.084,2.084,0,0,0-2.049-2.165c-1.529-.016-3.059,0-4.588,0a.743.743,0,0,1,.31.295,10.38,10.38,0,0,1,1.139,2.51c.556-.006,1.111-.019,1.667-.009a.691.691,0,0,1,.723.713c0,.058,0,.117,0,.175q0,8.892,0,17.784c0,.031,0,.062,0,.094.766-.021,1.533-.008,2.3-.006a.627.627,0,0,1,.49.14q.007-4.959.014-9.919,0-4.807,0-9.614" transform="translate(-267.621 -58.271)" fill="#424242"/>
        <path id="Trazado_621768" data-name="Trazado 621768" d="M335.791,250.707c0,.041,0,.083-.007.124l2.8.009a.627.627,0,0,0-.49-.14c-.766,0-1.533-.014-2.3.006" transform="translate(-296.596 -221.437)" fill="#424242"/>
        <path id="Trazado_621769" data-name="Trazado 621769" d="M304.3,68.868h.124a10.377,10.377,0,0,0-1.139-2.51.743.743,0,0,0-.31-.294,10.266,10.266,0,0,1,1.325,2.806" transform="translate(-267.62 -58.352)" fill="#424242"/>
        <path id="Trazado_621770" data-name="Trazado 621770" d="M119.939,326.065c0,.393-.005.787,0,1.18a.705.705,0,0,0,.769.8q6.229.006,12.458,0a.706.706,0,0,0,.77-.8c.006-.393,0-.787,0-1.18a2.107,2.107,0,0,0-2.089-2.224h-9.821a2.106,2.106,0,0,0-2.089,2.224" transform="translate(-105.939 -286.046)" fill="#212121"/>
        <path id="Trazado_621771" data-name="Trazado 621771" d="M138.438,300.079a.86.86,0,0,1-.583-.136q0,1.394,0,2.789a.86.86,0,0,1,.583-.136q4.328,0,8.655,0a.86.86,0,0,1,.583.136q0-1.395,0-2.789a.859.859,0,0,1-.583.136q-4.328,0-8.655,0" transform="translate(-121.766 -264.937)" fill="#424242"/>
        <path id="Trazado_621772" data-name="Trazado 621772" d="M138.438,300.079q4.328,0,8.655,0a.859.859,0,0,0,.583-.136h-9.822a.86.86,0,0,0,.583.136" transform="translate(-121.766 -264.937)" fill="#424242"/>
        <path id="Trazado_621773" data-name="Trazado 621773" d="M138.439,322.659a.859.859,0,0,0-.583.136h9.821a.86.86,0,0,0-.583-.136q-4.328,0-8.655,0" transform="translate(-121.767 -285.001)" fill="#424242"/>
        <path id="Trazado_621774" data-name="Trazado 621774" d="M142.98,22.09c.236.514.448,1.04.678,1.557.186.417.482.579.812.447s.439-.479.252-.924c-.253-.6-.518-1.2-.768-1.8-.064-.155-.185-.308-.057-.488-.345-.781-.7-1.558-1.031-2.346a.834.834,0,0,0-.869-.576c-1.048.015-2.1,0-3.144.005-.575,0-.907.269-.9.716s.332.682.885.683c.859,0,1.717,0,2.576,0,.172,0,.3.016.372.206.3.74.61,1.474.917,2.21h0c.215,0,.216.192.272.314" transform="translate(-121.857 -15.862)" fill="#212121"/>
        <path id="Trazado_621775" data-name="Trazado 621775" d="M180.487,46.316c.406-.181.515-.561.3-1.07q-.467-1.124-.936-2.248c-.128.179-.008.333.057.488.251.6.516,1.2.768,1.8.186.445.09.788-.252.924s-.626-.03-.812-.447c-.23-.517-.442-1.043-.678-1.557-.056-.122-.058-.319-.272-.314q.42.953.841,1.906c.224.506.582.694.981.516" transform="translate(-157.813 -37.98)" fill="#212121"/>
        <path id="Trazado_621776" data-name="Trazado 621776" d="M72.825,1.4c.888,0,1.775,0,2.663,0s1.746,0,2.619,0c.547,0,.87-.261.873-.7s-.32-.7-.864-.7q-2.641,0-5.282,0c-.535,0-.862.281-.851.716s.323.68.842.682" transform="translate(-63.582 0)" fill="#212121"/>
        <path id="Trazado_621777" data-name="Trazado 621777" d="M72.831,19.392c.888,0,1.775,0,2.663,0s1.775,0,2.663,0c.508,0,.824-.278.822-.7s-.317-.7-.827-.7q-2.663,0-5.325,0c-.52,0-.832.257-.844.679s.314.717.849.719" transform="translate(-63.581 -15.892)" fill="#212121"/>
        <path id="Trazado_621778" data-name="Trazado 621778" d="M78.123,35.989q-2.641,0-5.282,0c-.539,0-.865.275-.857.71s.329.687.879.689c.858,0,1.717,0,2.575,0,.888,0,1.775,0,2.663,0,.55,0,.872-.256.879-.689s-.318-.709-.858-.709" transform="translate(-63.583 -31.788)" fill="#212121"/>
        <path id="Trazado_621779" data-name="Trazado 621779" d="M58.92,93.43a9.788,9.788,0,0,1-18.174,5.023c-.078-.129-.136-.27-.2-.407-.022,0-.045,0-.068,0a4.215,4.215,0,0,1-.812-1.722,9.706,9.706,0,0,1-.229-5.052,1.33,1.33,0,0,1,.209-.579h0a3.325,3.325,0,0,1-.785.042q-6.449,0-12.9,0c-.175,0-.35-.007-.524.008a.605.605,0,0,0-.643.628,5.571,5.571,0,0,0-.013.612q0,8.351,0,16.7a1.632,1.632,0,0,1-.054.673c.224-.016.448-.008.672-.008H60.446c.168,0,.336-.005.5.008a1.638,1.638,0,0,1-.053-.673q-.006-8.326,0-16.651c0-1.256-.044-1.294-1.3-1.3a2.682,2.682,0,0,1-.925-.055,9.673,9.673,0,0,1,.386,2.183.622.622,0,0,1-.132.57m-16.17,14.663q-6.975,0-13.95,0a2.066,2.066,0,0,1-2.06-2.067c-.011-3.469-.005-6.939,0-10.408,0-.506.285-.824.707-.818s.69.322.69.837q0,4.963,0,9.927c0,.981.161,1.142,1.138,1.134.087,0,.174-.009.261-.014q0-3.061,0-6.123a1.414,1.414,0,0,1,1.573-1.562H31.5a1.412,1.412,0,0,1,1.532,1.519q0,3.083,0,6.167h.7q0-4.09,0-8.179a1.425,1.425,0,0,1,1.617-1.606h.306a1.421,1.421,0,0,1,1.576,1.562q0,4.111,0,8.223h.7q0-2.362,0-4.724a1.411,1.411,0,0,1,1.573-1.562H39.9a1.407,1.407,0,0,1,1.532,1.518q.005,2.384,0,4.768c.437,0,.874.005,1.311.015a.7.7,0,1,1,0,1.4" transform="translate(-21.836 -80.094)" fill="#8fc9f8"/>
        <path id="Trazado_621780" data-name="Trazado 621780" d="M60.386,250.682c-.168-.013-.336-.008-.5-.008H24.828c-.224,0-.448-.008-.672.008a.6.6,0,0,1-.075.128c.175,0,.35.006.524.006H53.421q3.52,0,7.039-.006h0a.6.6,0,0,1-.074-.129" transform="translate(-21.271 -221.417)" fill="#8fc9f8"/>
        <path id="Trazado_621781" data-name="Trazado 621781" d="M24.073,108.741a1.631,1.631,0,0,0,.054-.673q.006-8.351,0-16.7a5.6,5.6,0,0,1,.013-.612.605.605,0,0,1,.643-.628c.174-.015.35-.008.524-.008h12.9a3.324,3.324,0,0,0,.785-.042h0a.608.608,0,0,1,.085-.088l-14.129-.01c-.748,0-.964.214-.964.958q0,5.6,0,11.2,0,3.306.01,6.612h0l.071,0" transform="translate(-21.188 -79.476)" fill="#8fc9f8"/>
        <path id="Trazado_621782" data-name="Trazado 621782" d="M24.084,250.764h0q0,.062,0,.124a.6.6,0,0,0,.075-.128l-.071,0" transform="translate(-21.27 -221.494)" fill="#8fc9f8"/>
        <path id="Trazado_621783" data-name="Trazado 621783" d="M149.056,91.19a9.706,9.706,0,0,0,.228,5.052,4.219,4.219,0,0,0,.812,1.722c.023,0,.046,0,.068,0l-.01-.021h0c-.134-.256-.287-.5-.4-.77a9.83,9.83,0,0,1-.421-6.588.354.354,0,0,1-.069.027,1.33,1.33,0,0,0-.209.579" transform="translate(-131.457 -80.012)" fill="#8fc9f8"/>
        <path id="Trazado_621784" data-name="Trazado 621784" d="M152.587,90.15a.36.36,0,0,0,.069-.027c.005-.02.01-.041.016-.061a.608.608,0,0,0-.085.088" transform="translate(-134.779 -79.551)" fill="#8fc9f8"/>
        <path id="Trazado_621785" data-name="Trazado 621785" d="M314.863,92.353a9.672,9.672,0,0,0-.386-2.183.9.9,0,0,1-.145-.067,8.7,8.7,0,0,1,.4,2.786c0,.011,0,.023,0,.034a.622.622,0,0,0,.132-.57" transform="translate(-277.647 -79.587)" fill="#8fc9f8"/>
        <path id="Trazado_621786" data-name="Trazado 621786" d="M315.414,90.062a2.679,2.679,0,0,0,.925.055c1.26.009,1.3.047,1.3,1.3q0,8.326,0,16.651a1.64,1.64,0,0,0,.053.673l.064,0h.017c0-.031,0-.062,0-.094q0-8.892,0-17.784c0-.058,0-.117,0-.175a.691.691,0,0,0-.722-.713c-.555-.01-1.111,0-1.667.009l.006.02c.005.016.01.033.015.049" transform="translate(-278.584 -79.479)" fill="#8fc9f8"/>
        <path id="Trazado_621787" data-name="Trazado 621787" d="M335.147,250.756a.6.6,0,0,0,.074.129c0-.041,0-.083.007-.124h-.017l-.064,0" transform="translate(-296.033 -221.491)" fill="#8fc9f8"/>
        <path id="Trazado_621788" data-name="Trazado 621788" d="M314.476,90.159c-.005-.016-.01-.032-.015-.049l-.006-.02h-.124a.9.9,0,0,0,.145.067" transform="translate(-277.646 -79.576)" fill="#8fc9f8"/>
        <path id="Trazado_621789" data-name="Trazado 621789" d="M306.647,269.913a.7.7,0,1,0,.643.741.707.707,0,0,0-.643-.741" transform="translate(-270.193 -238.41)" fill="#f8be2d"/>
        <path id="Trazado_621790" data-name="Trazado 621790" d="M324.578,269.918a.7.7,0,1,0,.7.683.7.7,0,0,0-.7-.683" transform="translate(-286.084 -238.416)" fill="#f14236"/>
        <path id="Trazado_621791" data-name="Trazado 621791" d="M160.84,119.253a9.7,9.7,0,0,0,15.15,1.664,9.3,9.3,0,0,0,2.692-5.651,3.575,3.575,0,0,1,.148-1.057l-.012.011a1.514,1.514,0,0,1-.646.075q-4.2,0-8.4,0a.743.743,0,0,0-1.085.214c-2.433,1.26-4.827,2.593-7.262,3.849a2.507,2.507,0,0,1-.929.447c.175.1.24.292.34.45" transform="translate(-141.768 -100.853)" fill="#f34336"/>
        <path id="Trazado_621792" data-name="Trazado 621792" d="M161.179,118.132c2.435-1.256,4.829-2.588,7.262-3.849a1,1,0,0,0,.416-.329c-.012-.01-.025-.018-.038-.03h0l-4.456,2.4-4.146,2.235c.012.006.022.013.033.019a2.506,2.506,0,0,0,.929-.447" transform="translate(-141.519 -100.629)" fill="#f34336"/>
        <path id="Trazado_621793" data-name="Trazado 621793" d="M234.917,114.07q4.2.006,8.4,0a1.515,1.515,0,0,0,.646-.075l.012-.011c.008-.018.014-.036.023-.054l-9.73-.006c-.005.01-.01.02-.016.03a.99.99,0,0,0,.669.115" transform="translate(-206.91 -100.629)" fill="#f34336"/>
        <path id="Trazado_621794" data-name="Trazado 621794" d="M233.98,113.925h-.054c.012.012.025.02.038.03.006-.009.011-.02.016-.03" transform="translate(-206.625 -100.629)" fill="#f34336"/>
        <path id="Trazado_621795" data-name="Trazado 621795" d="M172.65,123.276a9.762,9.762,0,0,0,6.026-9.012l-.022.02a3.574,3.574,0,0,0-.148,1.057,9.663,9.663,0,0,1-10.841,8.477,9.414,9.414,0,0,1-7-4.49c-.1-.158-.166-.349-.34-.45l-.023,0c.066.137.124.278.2.407a9.8,9.8,0,0,0,12.148,3.989" transform="translate(-141.592 -100.929)" fill="#f34336"/>
        <path id="Trazado_621796" data-name="Trazado 621796" d="M160.225,153.657l.023,0c-.011-.006-.021-.014-.033-.019h0l.01.021" transform="translate(-141.517 -135.706)" fill="#f34336"/>
        <path id="Trazado_621797" data-name="Trazado 621797" d="M317.585,114.009c0-.011,0-.023,0-.034-.009.018-.015.036-.023.054l.022-.02" transform="translate(-280.501 -100.673)" fill="#f34336"/>
        <path id="Trazado_621798" data-name="Trazado 621798" d="M57.981,137.872c-.437-.009-.874-.01-1.311-.015h-11.9c-.087,0-.174.013-.261.014-.977.008-1.138-.153-1.138-1.134q0-4.964,0-9.927c0-.515-.268-.831-.69-.837s-.707.312-.707.818c0,3.469-.008,6.939,0,10.408a2.066,2.066,0,0,0,2.06,2.067q6.975.016,13.95,0a.7.7,0,1,0,0-1.4" transform="translate(-37.068 -111.27)" fill="#212121"/>
        <path id="Trazado_621799" data-name="Trazado 621799" d="M105.011,153.616a.668.668,0,0,1,.45.123q0-4.111,0-8.223a1.421,1.421,0,0,0-1.576-1.562h-.306a1.425,1.425,0,0,0-1.617,1.606q0,4.09,0,8.179a.668.668,0,0,1,.45-.123q1.3-.009,2.6,0" transform="translate(-90.062 -127.153)" fill="#fabf2d"/>
        <path id="Trazado_621800" data-name="Trazado 621800" d="M105.012,226.708q-1.3-.009-2.6,0a.668.668,0,0,0-.45.123h3.5a.668.668,0,0,0-.45-.123" transform="translate(-90.062 -200.246)" fill="#fabf2d"/>
        <path id="Trazado_621801" data-name="Trazado 621801" d="M69.023,169.508a.668.668,0,0,1,.45.123q0-3.083,0-6.167a1.412,1.412,0,0,0-1.532-1.519h-.394a1.414,1.414,0,0,0-1.573,1.562q0,3.061,0,6.123a.667.667,0,0,1,.45-.123q1.3-.009,2.6,0" transform="translate(-58.273 -143.045)" fill="#f34336"/>
        <path id="Trazado_621802" data-name="Trazado 621802" d="M69.025,226.708q-1.3-.009-2.6,0a.668.668,0,0,0-.45.123h3.5a.668.668,0,0,0-.45-.123" transform="translate(-58.275 -200.246)" fill="#f34336"/>
        <path id="Trazado_621803" data-name="Trazado 621803" d="M138.38,180.1q1.3-.01,2.6,0a.675.675,0,0,1,.451.124q0-2.384,0-4.768a1.407,1.407,0,0,0-1.532-1.518h-.394a1.411,1.411,0,0,0-1.573,1.562q0,2.362,0,4.724h0a.675.675,0,0,1,.451-.124" transform="translate(-121.832 -153.641)" fill="#7cb242"/>
        <path id="Trazado_621804" data-name="Trazado 621804" d="M141.434,226.83a.675.675,0,0,0-.451-.124q-1.3-.01-2.6,0a.674.674,0,0,0-.451.124h3.5" transform="translate(-121.833 -200.243)" fill="#7cb242"/>
      </g>
    </g>
  </g>
</svg>
