<svg xmlns="http://www.w3.org/2000/svg" xmlns:xlink="http://www.w3.org/1999/xlink" width="123" height="123" viewBox="0 0 123 123">
  <defs>
    <filter id="Elipse_6683" x="0" y="0" width="123" height="123" filterUnits="userSpaceOnUse">
      <feOffset dy="3" input="SourceAlpha"/>
      <feGaussianBlur stdDeviation="3" result="blur"/>
      <feFlood flood-opacity="0.161"/>
      <feComposite operator="in" in2="blur"/>
      <feComposite in="SourceGraphic"/>
    </filter>
    <clipPath id="clip-path">
      <rect id="Rectángulo_326654" data-name="Rectángulo 326654" width="59.155" height="72.866" fill="none"/>
    </clipPath>
  </defs>
  <g id="Grupo_888212" data-name="Grupo 888212" transform="translate(-275.546 -3122.497)">
    <g id="Grupo_888170" data-name="Grupo 888170" transform="translate(0 -298.503)">
      <g transform="matrix(1, 0, 0, 1, 275.55, 3421)" filter="url(#Elipse_6683)">
        <g id="Elipse_6683-2" data-name="Elipse 6683" transform="translate(9 6)" fill="#fff" stroke="#cfd27e" stroke-width="1">
          <circle cx="52.5" cy="52.5" r="52.5" stroke="none"/>
          <circle cx="52.5" cy="52.5" r="52" fill="none"/>
        </g>
      </g>
      <g id="Grupo_888169" data-name="Grupo 888169" transform="translate(307.546 3443)">
        <g id="Grupo_888168" data-name="Grupo 888168" clip-path="url(#clip-path)">
          <path id="Trazado_622200" data-name="Trazado 622200" d="M25.04,36.635a1.17,1.17,0,0,0-.157.815q0,17.352,0,34.7c2.321-1.324,4.649-2.636,6.962-3.975Q41.2,62.765,50.54,57.335a5.278,5.278,0,0,1,.487-.221,7.561,7.561,0,0,1-.109-.913c-.009-5.154-.03-10.307,0-15.461a3.9,3.9,0,0,1,2.4-3.726c1.264-.614,2.44-1.405,3.656-2.118-.3-.239-.174-.571-.175-.863q-.012-7.927-.008-15.853Q42.144,26.682,27.5,35.186c-.823.478-1.639.966-2.458,1.45m9.034,25.037c-.645.366-1.285.741-2.081,1.2,0-1.9,0-3.645,0-5.391a.507.507,0,0,1,.238-.522c.668-.372,1.328-.757,2.112-1.208,0,1.917,0,3.7,0,5.492a.457.457,0,0,1-.27.427m4.267-2.89a.649.649,0,0,1-.36.633c-.664.332-1.393,1.187-1.909.964s-.152-1.3-.171-2c-.04-1.467,0-2.937-.028-4.4a.859.859,0,0,1,.516-.921,14.6,14.6,0,0,1,1.784-.934c.191,2.249.171,4.457.169,6.664m4.8-18.012q4.5-2.663,9-5.34c.2-.118.383-.262.589-.364s.4-.318.631-.215c.292.133.153.453.214.855.11.381-.235.633-.63.871q-4.846,2.912-9.687,5.832c-.5.3-.681.126-.717-.416a1.185,1.185,0,0,1,.6-1.224m-.926,7.577c.011,2.675,0,5.35.028,8.024a.86.86,0,0,1-.522.908c-.589.292-1.147.647-1.851,1.052,0-.769,0-1.377,0-1.986-.02-2.134-.028-4.268-.075-6.4a1.019,1.019,0,0,1,.617-1.1c.575-.274,1.113-.625,1.644-.929.237.121.159.3.159.432m-1.98-4.391a13.469,13.469,0,0,1-3.969,5.317c-.154.122-.307.355-.516.261s-.117-.368-.119-.562c-.012-1.7-.01-3.391-.022-5.086a.749.749,0,0,1,.358-.778c1.7-.961,3.382-1.938,5.215-2.991a10.21,10.21,0,0,1-.947,3.839m-4.29-8.326a3.474,3.474,0,0,1,5.209,2.854c.015.221.1.473-.161.625l-5.4,3.118c0-2.132,0-4.06,0-5.989a.592.592,0,0,1,.354-.607m-1.559.925a1.2,1.2,0,0,1,.268-.078c0,2.817,0,5.568,0,8.318,0,1.648-.012,3.3.018,4.943a.724.724,0,0,1-.546.788,3.439,3.439,0,0,1-5.016-3.2c-.2-4.5,1.8-8.02,5.275-10.774m-5.8,24.629c.459-.227.9-.5,1.336-.763.352-.213.559-.231.53.283-.025.46-.005.923-.005,1.608.513,1.313-.537,1.859-1.64,2.412-.778.39-.762.424-.768-.423,0-.718.026-1.438-.018-2.153a.893.893,0,0,1,.564-.965" transform="translate(-19.739 -14.424)" fill="#f2f0fb"/>
          <path id="Trazado_622201" data-name="Trazado 622201" d="M5.638,20.956c.386.255.7.045,1-.131,1.959-1.129,3.912-2.27,5.867-3.4q4.633-2.69,9.266-5.378Q26.239,9.447,30.7,6.849q3.4-1.977,6.8-3.95a1.105,1.105,0,0,1,.375-.062c-.018-.332-.319-.367-.529-.489-1.177-.686-2.379-1.334-3.531-2.06A1.382,1.382,0,0,0,32.15.27c-3.276,1.937-6.586,3.816-9.885,5.715L16.7,9.214h0c-.082.058-.161.124-.248.174Q9.213,13.595,1.977,17.8c-.32.187-.72.277-.912.649a22.373,22.373,0,0,1,3.378,1.8,12.871,12.871,0,0,1,1.194.7" transform="translate(-0.845 0)" fill="#f35170"/>
          <path id="Trazado_622202" data-name="Trazado 622202" d="M5,132.289l.14-.125a.7.7,0,0,1-.176-.278,5.364,5.364,0,0,1-.069-1.231q0-16.2,0-32.409a4.164,4.164,0,0,1,.125-1.45.91.91,0,0,1,.107-.18,3.891,3.891,0,0,1-1.134-.594c-1.274-.726-2.536-1.474-3.8-2.213a17.246,17.246,0,0,1-.014,1.776,1.062,1.062,0,0,0,.721,1.2c.235.1.455.242.686.356a1.4,1.4,0,0,1,.8,1.425c.015,1.238-.18,2.458-.179,3.691q.011,12.943,0,25.887c0,.265-.022.53-.037.873-.617-.331-1.129-.615-1.649-.881-.168-.086-.461-.244-.451.115a6.767,6.767,0,0,0,.123,2.5h0v-1.3L5,132.289" transform="translate(0 -74.425)" fill="#dddefa"/>
          <path id="Trazado_622203" data-name="Trazado 622203" d="M23.919,142.934q0-17.352,0-34.7a1.171,1.171,0,0,1,.157-.814,1.227,1.227,0,0,1-.175-.022.883.883,0,0,0-.107.18,4.16,4.16,0,0,0-.125,1.45q0,16.2,0,32.409a5.354,5.354,0,0,0,.069,1.232.7.7,0,0,0,.176.277l.009-.008" transform="translate(-18.771 -85.204)" fill="#dddefa"/>
          <path id="Trazado_622204" data-name="Trazado 622204" d="M153.633,81.679c.026-5.151,0-10.3.022-15.454a3.606,3.606,0,0,1,1.874-3.254q10.751-6.234,21.524-12.43c.437-.251.92-.422,1.381-.631a9.455,9.455,0,0,1-.9-.573,2.181,2.181,0,0,0-2.8-.015c-2.762,1.671-5.578,3.253-8.38,4.859q-4.4,2.522-8.81,5.023c-.026.37-.327.509-.589.656-.966.542-1.9,1.142-2.9,1.621a3.909,3.909,0,0,0-2.349,3.836c.01,5.326-.02,10.652.018,15.978a.439.439,0,0,1-.08.2,2.53,2.53,0,0,0,.757.689l1.251.662c.322-.388-.018-.779-.016-1.168" transform="translate(-120.309 -38.732)" fill="#1d2943"/>
          <path id="Trazado_622205" data-name="Trazado 622205" d="M150.84,104.924c-.03,5.153-.009,10.307,0,15.46a7.56,7.56,0,0,0,.11.913c.013.026.029.05.044.074a.435.435,0,0,0,.08-.2c-.037-5.325-.007-10.652-.018-15.978a3.91,3.91,0,0,1,2.349-3.836c1-.479,1.935-1.079,2.9-1.621.262-.147.562-.286.589-.656-1.215.713-2.392,1.5-3.656,2.118a3.9,3.9,0,0,0-2.4,3.726" transform="translate(-119.661 -78.608)" fill="#1d2943"/>
          <path id="Trazado_622206" data-name="Trazado 622206" d="M186.145,54.1c.037.157-.062.238-.179.3-4.7,2.465-9.217,5.256-13.833,7.87-2.78,1.574-5.525,3.208-8.311,4.772a4.139,4.139,0,0,0-2.27,3.976c.043,4.76.015,9.52.014,14.28,0,.412.015.822.056,1.233.02.2.108.486-.262.508a1.62,1.62,0,0,0,2.111.134q10.827-6.259,21.661-12.5a3.862,3.862,0,0,0,2.043-3.491c0-5.224-.053-10.448-.079-15.672a1.3,1.3,0,0,0-.95-1.4M184.9,73.721q-10.657,6.114-21.3,12.258c-.978.563-1.3.385-1.3-.729-.012-5.049-.013-10.1-.036-15.148a2.12,2.12,0,0,1,1.159-2.014q10.717-6.165,21.422-12.351c1.059-.61,1.31-.468,1.312.735q0,3.787,0,7.574h.033c0,2.473-.024,4.947.011,7.419a2.339,2.339,0,0,1-1.306,2.255" transform="translate(-128.019 -42.919)" fill="#4c5c75"/>
          <path id="Trazado_622207" data-name="Trazado 622207" d="M161.561,86.526c-.04-.411-.056-.821-.056-1.233,0-4.76.029-9.52-.014-14.28a4.139,4.139,0,0,1,2.27-3.976c2.785-1.564,5.531-3.2,8.311-4.772,4.617-2.614,9.132-5.405,13.833-7.87.117-.061.215-.142.179-.3-.462.208-.945.379-1.381.631q-10.769,6.2-21.524,12.43a3.606,3.606,0,0,0-1.874,3.254c-.022,5.151,0,10.3-.022,15.454,0,.39.338.78.016,1.168.37-.022.282-.306.262-.508" transform="translate(-127.958 -42.919)" fill="#4c5c75"/>
          <path id="Trazado_622208" data-name="Trazado 622208" d="M204.217,230.591q0-.529.008-1.057c-.006-2.128-.008-4.256-.024-6.384,0-.267.113-.571-.158-.79h0a16.134,16.134,0,0,1-3.726,2.2,1.537,1.537,0,0,1,.157.9c0,4.76,0,9.519-.008,14.279,0,.56-.1,1.119-.149,1.678a27.75,27.75,0,0,0,3.673-2c.266-.144.2-.394.2-.615.013-.95.018-1.9.025-2.851h0q0-2.679,0-5.358" transform="translate(-158.928 -176.416)" fill="#748afc"/>
          <path id="Trazado_622209" data-name="Trazado 622209" d="M185.726,241.419c.225-5.286.056-10.575.089-15.86a.591.591,0,0,1,.079-.285,35.428,35.428,0,0,0-3.67-1.993q-.026,3.545-.052,7.09h0c.222.273.643.285.816.622a9.248,9.248,0,0,1,.068,2.286c.006,2.436,0,4.872-.006,7.308l2.871,1.556a.982.982,0,0,1-.195-.723" transform="translate(-144.531 -177.146)" fill="#6789ed"/>
          <path id="Trazado_622210" data-name="Trazado 622210" d="M199.719,233.839a1.537,1.537,0,0,0-.157-.9l-.027-.015a.59.59,0,0,0-.078.285c-.033,5.286.136,10.574-.089,15.86a.983.983,0,0,0,.195.723c.052-.559.148-1.118.149-1.678q.018-7.139.008-14.279" transform="translate(-158.172 -184.8)" fill="#6789ed"/>
          <path id="Trazado_622211" data-name="Trazado 622211" d="M153.2,274.921q-.009-6.017,0-12.033h0c-1.265-.74-2.51-1.515-3.833-2.152q-.02,6.28-.047,12.559a.677.677,0,0,0,.431.648c1.026.585,2.045,1.182,3.068,1.772.173.1.353.256.535.008-.251-.229-.15-.53-.15-.8" transform="translate(-118.462 -206.862)" fill="#f8a73d"/>
          <path id="Trazado_622212" data-name="Trazado 622212" d="M171.852,269.669c.038-2.309-.137-4.622.128-6.927a7.049,7.049,0,0,0-.015-1.383.42.42,0,0,0-.068-.2l-3.456,2.023a.964.964,0,0,1,.114.29c.123,1.184.05,2.369.056,3.553.013,2.653,0,5.307.006,7.96a4.234,4.234,0,0,1-.095,1.073c1.027-.579,2.045-1.176,3.085-1.728a.882.882,0,0,0,.508-.922c-.015-.923.024-1.847.04-2.77-.384-.234-.31-.628-.3-.969" transform="translate(-133.638 -207.199)" fill="#fdbb1f"/>
          <path id="Trazado_622213" data-name="Trazado 622213" d="M185.176,262.887a9.257,9.257,0,0,0-.068-2.286l-.2.115a.421.421,0,0,1,.068.2,7.049,7.049,0,0,1,.015,1.383c-.265,2.305-.09,4.618-.128,6.927-.006.341-.079.736.3.969,0-2.436.013-4.872.006-7.308" transform="translate(-146.65 -206.755)" fill="#fdbb1f"/>
          <path id="Trazado_622214" data-name="Trazado 622214" d="M168.271,274.792c-.006-1.184.067-2.369-.056-3.553a.963.963,0,0,0-.114-.29l-.072.042q0,6.017,0,12.033c0,.27-.1.572.15.8a4.233,4.233,0,0,0,.095-1.073c0-2.653.007-5.307-.006-7.96" transform="translate(-133.297 -214.965)" fill="#fdbb1f"/>
          <path id="Trazado_622215" data-name="Trazado 622215" d="M56.032,295.2c1.177.689,2.348,1.39,3.536,2.059.391.22.552.389.071.666l-5.951,3.438a.509.509,0,0,1-.572.034c-2.154-1.25-4.314-2.49-6.556-3.781a45.148,45.148,0,0,1,4-2.266l.012-1.68c-1.132.647-2.276,1.273-3.392,1.946a28.888,28.888,0,0,0-3.381,2.057q3.643,2.068,7.286,4.135c.759.43,1.52.856,2.28,1.284h0l9.476-5.447c-2.189-1.481-4.518-2.725-6.834-3.99Q56.021,294.425,56.032,295.2Z" transform="translate(-34.752 -232.978)" fill="#4c5c74"/>
          <path id="Trazado_622216" data-name="Trazado 622216" d="M90.135,257.683c.784-.432,1.565-.871,2.355-1.292.292-.155.261-.4.264-.659.008-.8.02-1.6.031-2.395a.9.9,0,0,1-.184-.332,1.664,1.664,0,0,1,.164-1.365V240.7h0l-2.635,1.537q0,7.724.006,15.447" transform="translate(-71.506 -190.965)" fill="#e8e6fb"/>
          <path id="Trazado_622217" data-name="Trazado 622217" d="M101.839,295.018a.894.894,0,0,0,.184.332c0-.051,0-.1,0-.152q-.011-.772-.022-1.545a1.663,1.663,0,0,0-.164,1.365" transform="translate(-80.745 -232.978)" fill="#e8e6fb"/>
          <path id="Trazado_622218" data-name="Trazado 622218" d="M1.548,30.452c1.454.813,2.873,1.689,4.343,2.474a.231.231,0,0,1,.053.047,2.506,2.506,0,0,1,.529-.367q9.516-5.531,19.04-11.047,5.677-3.3,11.355-6.593c.277-.161.524-.444.907-.317q-.011-.46-.022-.919c-1.4,1.018-2.956,1.777-4.443,2.65-4.245,2.491-8.515,4.938-12.769,7.413-4.588,2.67-9.2,5.3-13.766,8.008a1.478,1.478,0,0,1-1.722,0c-1.345-.856-2.8-1.53-4.109-2.451h0l-.032.93c.258-.108.443.069.636.177" transform="translate(-0.724 -10.893)" fill="#e83565"/>
          <path id="Trazado_622219" data-name="Trazado 622219" d="M56.188,18.376q-5.674,3.3-11.355,6.593Q35.316,30.5,25.794,36.016a2.5,2.5,0,0,0-.53.367.32.32,0,0,1,.081.132c.819-.483,1.635-.972,2.458-1.45Q42.448,26.56,57.1,18.058c-.383-.126-.631.156-.907.317" transform="translate(-20.044 -14.302)" fill="#e83565"/>
          <path id="Trazado_622220" data-name="Trazado 622220" d="M6.9,31.8c4.567-2.707,9.178-5.338,13.766-8.008,4.254-2.476,8.525-4.923,12.77-7.414,1.487-.872,3.043-1.631,4.443-2.65a1.105,1.105,0,0,0-.375.062q-3.4,1.967-6.8,3.95-4.464,2.6-8.929,5.192-4.632,2.691-9.266,5.378c-1.955,1.135-3.908,2.276-5.867,3.4-.306.176-.617.385-1,.131a12.9,12.9,0,0,0-1.194-.7,22.382,22.382,0,0,0-3.378-1.8c1.308.92,2.764,1.595,4.109,2.451a1.478,1.478,0,0,0,1.722,0" transform="translate(-0.846 -10.893)" fill="#e83565"/>
          <path id="Trazado_622221" data-name="Trazado 622221" d="M5.85,96.486a1,1,0,0,1,.094-.11.229.229,0,0,0-.053-.047C4.421,95.544,3,94.669,1.549,93.856c-.193-.108-.378-.284-.636-.177,1.267.739,2.529,1.487,3.8,2.213a3.891,3.891,0,0,0,1.134.594" transform="translate(-0.724 -74.297)" fill="#e83565"/>
          <path id="Trazado_622222" data-name="Trazado 622222" d="M24.9,106.863a1.021,1.021,0,0,0-.094.11,1.2,1.2,0,0,0,.175.022.321.321,0,0,0-.081-.132" transform="translate(-19.682 -84.783)" fill="#e83565"/>
          <path id="Trazado_622223" data-name="Trazado 622223" d="M76.7,259.375a2.255,2.255,0,0,1-.175.2c.007.757.047,1.516.008,2.271a.843.843,0,0,0,.564.943c.766.323,1.361.988,2.228,1.11a.452.452,0,0,1-.11-.123,1.885,1.885,0,0,1-.128-.832q-.007-6.825,0-13.65a3.066,3.066,0,0,1,.053-.612.818.818,0,0,1,.042-.144,26.813,26.813,0,0,0-2.643,1.562l0,7.774a1.852,1.852,0,0,1,.163,1.5" transform="translate(-60.713 -197.186)" fill="#dddefa"/>
          <path id="Trazado_622224" data-name="Trazado 622224" d="M76.522,295.425a2.26,2.26,0,0,0,.175-.2,1.851,1.851,0,0,0-.163-1.5q-.007.84-.013,1.68c0,.007,0,.015,0,.022" transform="translate(-60.711 -233.034)" fill="#dddefa"/>
          <path id="Trazado_622225" data-name="Trazado 622225" d="M88.966,248.367a3.066,3.066,0,0,0-.053.612q-.01,6.825,0,13.65a1.888,1.888,0,0,0,.127.832.455.455,0,0,0,.11.123l.016,0q0-7.723-.006-15.447l-.152.082a.8.8,0,0,0-.042.144" transform="translate(-70.538 -196.869)" fill="#dddefa"/>
          <path id="Trazado_622226" data-name="Trazado 622226" d="M49.888,207.2a1.411,1.411,0,0,1-.339.231q-9.051,5.255-18.1,10.508c-2.317,1.343-4.625,2.7-6.956,4.018-.239.135-.521.367-.749.178.01.121-.056.167-.156.178-.045.346.121.722-.149,1.035h0c.238.267.425.02.605-.078.543-.3,1.072-.617,1.608-.925l8.772-5.042c.426-.75,1.263-.934,1.918-1.366.224-.148.459-.39.779-.309a1.289,1.289,0,0,1,.461-.432c.585-.362,1.186-.7,1.787-1.032.145-.081.308-.206.485-.042h0l10.832-6.28c-.389-.084-.754-.193-.793-.642" transform="translate(-18.592 -164.384)" fill="#f35170"/>
          <path id="Trazado_622227" data-name="Trazado 622227" d="M51.052,206.609a5.259,5.259,0,0,0-.487.221q-9.347,5.421-18.692,10.845c-2.313,1.339-4.641,2.651-6.962,3.975h0c0,.006,0,.009,0,.015.229.189.511-.042.749-.177,2.332-1.317,4.64-2.675,6.956-4.018q9.054-5.25,18.1-10.508a1.406,1.406,0,0,0,.339-.231A.865.865,0,0,1,51.052,206.609Z" transform="translate(-19.763 -163.919)" fill="#f35170"/>
          <path id="Trazado_622228" data-name="Trazado 622228" d="M24.162,279.565c0,.02,0,.04-.007.06.1-.011.165-.057.156-.178l-.008-.007-.14.125" transform="translate(-19.164 -221.702)" fill="#f35170"/>
          <path id="Trazado_622229" data-name="Trazado 622229" d="M24.878,279.4h0l-.009.008.008.007C24.877,279.41,24.879,279.406,24.878,279.4Z" transform="translate(-19.731 -221.67)" fill="#f35170"/>
          <path id="Trazado_622230" data-name="Trazado 622230" d="M151.5,206.969a.475.475,0,0,1-.037.047c.039.449.4.559.793.642a2.53,2.53,0,0,1-.757-.689" transform="translate(-120.168 -164.205)" fill="#f35170"/>
          <path id="Trazado_622231" data-name="Trazado 622231" d="M151.435,206.73a.472.472,0,0,0,.037-.047c-.015-.025-.03-.048-.044-.074a.865.865,0,0,0,.007.121" transform="translate(-120.14 -163.919)" fill="#f35170"/>
          <path id="Trazado_622232" data-name="Trazado 622232" d="M91.9,240.433c-.6.335-1.2.67-1.787,1.032a1.289,1.289,0,0,0-.461.432.576.576,0,0,1,.1.031l2.635-1.537c-.176-.164-.34-.039-.485.042" transform="translate(-71.128 -190.658)" fill="#f35170"/>
          <path id="Trazado_622233" data-name="Trazado 622233" d="M79.244,248.042a.83.83,0,0,1,.054-.113c-.32-.08-.555.161-.779.309-.654.432-1.491.616-1.918,1.366a26.85,26.85,0,0,1,2.643-1.562" transform="translate(-60.774 -196.689)" fill="#f35170"/>
          <path id="Trazado_622234" data-name="Trazado 622234" d="M89.543,248.021a.578.578,0,0,0-.1-.031.813.813,0,0,0-.054.113l.152-.082" transform="translate(-70.921 -196.75)" fill="#f35170"/>
          <path id="Trazado_622235" data-name="Trazado 622235" d="M79.178,12.653A12.35,12.35,0,0,1,82.295,11q-.007-1.887-.013-3.774c0-1.026-.126-1.1-1.067-.618a7.648,7.648,0,0,0-.793.47,1.374,1.374,0,0,1-1.756.057,5.054,5.054,0,0,0-1.07-.6c-.419-.172-.745-.133-.743.473.007,2.408.046,4.817-.126,7.222a8.671,8.671,0,0,1,2.45-1.576" transform="translate(-60.874 -5.015)" fill="#e3e2fa"/>
          <path id="Trazado_622236" data-name="Trazado 622236" d="M79.178,30.62a8.671,8.671,0,0,0-2.45,1.576l5.567-3.228a12.35,12.35,0,0,0-3.117,1.653" transform="translate(-60.874 -22.982)" fill="#e3e2fa"/>
          <path id="Trazado_622237" data-name="Trazado 622237" d="M50.924,317.47l-6.614-3.8a1.928,1.928,0,0,1-.71-.574c-.011.693.019,1.389-.046,2.076a.935.935,0,0,0,.6,1.007c2.784,1.581,5.552,3.192,8.331,4.782.213.122.4.335.684.3l0-2.662a7.679,7.679,0,0,1-2.242-1.131" transform="translate(-34.55 -248.404)" fill="#111d33"/>
          <path id="Trazado_622238" data-name="Trazado 622238" d="M44.513,313.671l6.614,3.8a7.679,7.679,0,0,0,2.242,1.131v-.085h0c-.76-.428-1.521-.854-2.28-1.284q-3.644-2.066-7.286-4.135a1.928,1.928,0,0,0,.71.574" transform="translate(-34.752 -248.404)" fill="#111d33"/>
          <path id="Trazado_622239" data-name="Trazado 622239" d="M98.569,313.739c-2.536,1.463-5.049,2.967-7.6,4.411a2.127,2.127,0,0,1-.831.346,3.449,3.449,0,0,1-.029,2.66c.051,0,.112.018.15,0q4.5-2.6,9-5.212c.21-.121.4-.246.382-.524a14.953,14.953,0,0,0-.061-2.454c-.2.443-.652.565-1.018.776" transform="translate(-71.494 -248.298)" fill="#1d2943"/>
          <path id="Trazado_622240" data-name="Trazado 622240" d="M90.1,318.41c.012.029.02.058.032.087a2.124,2.124,0,0,0,.831-.346c2.547-1.444,5.06-2.947,7.6-4.411.365-.211.82-.334,1.017-.776L90.1,318.41Z" transform="translate(-71.481 -248.298)" fill="#1d2943"/>
          <path id="Trazado_622241" data-name="Trazado 622241" d="M90.13,339.738l-.017,0-.015,0q0,1.331,0,2.662a3.449,3.449,0,0,0,.029-2.66" transform="translate(-71.482 -269.539)" fill="#1d2943"/>
          <path id="Trazado_622242" data-name="Trazado 622242" d="M90.112,339.413l.017,0c-.011-.029-.02-.058-.032-.087,0,.028,0,.057,0,.085l.015,0" transform="translate(-71.481 -269.212)" fill="#1d2943"/>
          <path id="Trazado_622243" data-name="Trazado 622243" d="M233.3,262.119q0,2.615,0,5.23c1.275-.546,2.4-1.356,3.62-2.009a.518.518,0,0,0,.245-.523q-.021-2.426-.033-4.853l-3.829,2.155" transform="translate(-185.094 -206.25)" fill="#be7d5a"/>
          <path id="Trazado_622244" data-name="Trazado 622244" d="M150.106,252.194c.98.52,1.93,1.094,2.9,1.64a1.221,1.221,0,0,1,.4.352.6.6,0,0,1,.278-.307c.993-.572,1.991-1.135,2.976-1.721a.567.567,0,0,1,.132-.056c-.2-.179-.505-.286-.508-.611l-2.534-1.418c-.2-.111-.378-.259-.629-.1-1.184.738-2.461,1.323-3.578,2.17.206-.181.391-.039.563.052" transform="translate(-118.644 -198.268)" fill="#fecf6c"/>
          <path id="Trazado_622245" data-name="Trazado 622245" d="M182.679,258.2a.459.459,0,0,1,.309.011c-.173-.337-.594-.349-.817-.621,0,.325.305.432.508.611" transform="translate(-144.531 -204.369)" fill="#fecf6c"/>
          <path id="Trazado_622246" data-name="Trazado 622246" d="M153.377,262.552a.487.487,0,0,1,.03-.107,1.219,1.219,0,0,0-.4-.352c-.966-.546-1.916-1.12-2.9-1.64-.173-.092-.358-.233-.563-.052,1.323.637,2.568,1.412,3.833,2.152" transform="translate(-118.645 -206.527)" fill="#fecf6c"/>
          <path id="Trazado_622247" data-name="Trazado 622247" d="M171.626,260.548a.6.6,0,0,0-.132.056c-.985.586-1.983,1.148-2.976,1.721a.6.6,0,0,0-.279.307c.015.021.029.043.042.065l3.456-2.023a.6.6,0,0,0-.111-.126" transform="translate(-133.477 -206.713)" fill="#fecf6c"/>
          <path id="Trazado_622248" data-name="Trazado 622248" d="M184.63,260.466a.6.6,0,0,1,.111.126l.2-.115a.459.459,0,0,0-.309-.011" transform="translate(-146.481 -206.631)" fill="#fecf6c"/>
          <path id="Trazado_622249" data-name="Trazado 622249" d="M168.1,270.74l.072-.042c-.013-.022-.027-.044-.042-.065a.488.488,0,0,0-.03.107" transform="translate(-133.364 -214.714)" fill="#fecf6c"/>
          <path id="Trazado_622250" data-name="Trazado 622250" d="M182.991,214.933c.957.54,1.928,1.055,2.856,1.644a.563.563,0,0,1,.26.318.429.429,0,0,1,.149-.14c1.2-.662,2.328-1.461,3.588-2.022-.734-.614-1.674-.9-2.415-1.491a1.754,1.754,0,0,0-2.459.016c-.795.633-1.848.882-2.549,1.665a.45.45,0,0,1,.569.009" transform="translate(-144.73 -168.789)" fill="#8eaafd"/>
          <path id="Trazado_622251" data-name="Trazado 622251" d="M200.26,224.523c0,.012.009.023.012.036a16.139,16.139,0,0,0,3.726-2.2c-1.26.561-2.385,1.36-3.589,2.021a.424.424,0,0,0-.149.141" transform="translate(-158.882 -176.416)" fill="#8eaafd"/>
          <path id="Trazado_622252" data-name="Trazado 622252" d="M186.109,224.871a.566.566,0,0,0-.261-.318c-.928-.589-1.9-1.1-2.856-1.644a.449.449,0,0,0-.569-.009,35.4,35.4,0,0,1,3.67,1.993c0-.007.01-.014.015-.021" transform="translate(-144.73 -176.764)" fill="#8eaafd"/>
          <path id="Trazado_622253" data-name="Trazado 622253" d="M200.186,232.845l.027.015c0-.013-.009-.024-.012-.036l-.015.021" transform="translate(-158.823 -184.718)" fill="#8eaafd"/>
          <path id="Trazado_622254" data-name="Trazado 622254" d="M219.42,252.145c0,.015,0,.031,0,.046l2.648,1.537a.372.372,0,0,1,.1-.1,25.567,25.567,0,0,1,3.5-2.01.531.531,0,0,1,.3,0c-1.1-.8-2.325-1.382-3.48-2.085-.3-.184-.531-.049-.782.094-.823.469-1.651.931-2.476,1.395h0a1.708,1.708,0,0,1,.19,1.126" transform="translate(-173.932 -197.9)" fill="#daa560"/>
          <path id="Trazado_622255" data-name="Trazado 622255" d="M219.19,258.137l.2.116c0-.016,0-.031,0-.046a1.708,1.708,0,0,0-.19-1.126h0l-.008,1.057" transform="translate(-173.901 -203.962)" fill="#daa560"/>
          <path id="Trazado_622256" data-name="Trazado 622256" d="M236.568,259.882a25.568,25.568,0,0,0-3.5,2.01.373.373,0,0,0-.1.1l.07.04,3.83-2.155a.533.533,0,0,0-.3,0" transform="translate(-184.834 -206.166)" fill="#daa560"/>
          <path id="Trazado_622257" data-name="Trazado 622257" d="M221.911,264.975a1.126,1.126,0,0,1,.067-.206.237.237,0,0,1-.176-.028,13.713,13.713,0,0,1-2.422-1.49c.038,1.425.015,2.85.013,4.275a1.166,1.166,0,0,1-.217.865h0l2.917,1.566a1.219,1.219,0,0,1-.229-.715c.008-1.423-.07-2.846.045-4.267" transform="translate(-173.89 -208.858)" fill="#a96256"/>
          <path id="Trazado_622258" data-name="Trazado 622258" d="M219.394,266.69c0-1.425.024-2.85-.013-4.275a2.931,2.931,0,0,1-.2-.218q0,2.679,0,5.358h0a1.167,1.167,0,0,0,.217-.865" transform="translate(-173.89 -208.021)" fill="#a96256"/>
          <path id="Trazado_622259" data-name="Trazado 622259" d="M232.352,270.393a.375.375,0,0,1-.119.042,1.116,1.116,0,0,0-.067.206c-.115,1.421-.037,2.844-.045,4.267a1.219,1.219,0,0,0,.229.715Q232.35,273.008,232.352,270.393Z" transform="translate(-184.145 -214.524)" fill="#a96256"/>
          <path id="Trazado_622260" data-name="Trazado 622260" d="M220.154,262.757c0,.034,0,.068,0,.1a13.708,13.708,0,0,0,2.422,1.49.237.237,0,0,0,.176.028.547.547,0,0,1,.049-.083l-2.648-1.537" transform="translate(-174.665 -208.466)" fill="#a96256"/>
          <path id="Trazado_622261" data-name="Trazado 622261" d="M219.19,262.2c.064.077.132.149.2.218,0-.034,0-.068,0-.1l-.2-.116" transform="translate(-173.901 -208.021)" fill="#a96256"/>
          <path id="Trazado_622262" data-name="Trazado 622262" d="M232.785,270.2a.543.543,0,0,0-.049.083.373.373,0,0,0,.118-.042l-.07-.041" transform="translate(-184.648 -214.369)" fill="#a96256"/>
          <path id="Trazado_622263" data-name="Trazado 622263" d="M5.642,270.346h0a31.966,31.966,0,0,1-3.17-1.742c-.515-.289-1.017-.6-1.52-.867a.859.859,0,0,1-.075,1.006h0l4.661,2.633h0a1.243,1.243,0,0,1,.1-1.03" transform="translate(-0.695 -212.417)" fill="#de3360"/>
          <path id="Trazado_622264" data-name="Trazado 622264" d="M.951,266.625c.5.264,1,.578,1.52.867a31.93,31.93,0,0,0,3.17,1.742h0a.78.78,0,0,1,.051-.065L.876,266.335v1.3a.859.859,0,0,0,.075-1.006" transform="translate(-0.695 -211.304)" fill="#de3360"/>
          <path id="Trazado_622265" data-name="Trazado 622265" d="M23.354,280.338c-.015,0-.028,0-.044.005a1.244,1.244,0,0,0-.1,1.03c.27-.314.1-.69.149-1.036" transform="translate(-18.363 -222.414)" fill="#de3360"/>
          <path id="Trazado_622266" data-name="Trazado 622266" d="M23.942,280.112c.016,0,.029,0,.044-.005,0-.02,0-.04.007-.06a.758.758,0,0,0-.051.065" transform="translate(-18.995 -222.183)" fill="#de3360"/>
          <path id="Trazado_622267" data-name="Trazado 622267" d="M50.306,120.783a.724.724,0,0,0,.546-.788c-.03-1.647-.017-3.3-.018-4.943,0-2.75,0-5.5,0-8.318a1.2,1.2,0,0,0-.268.077c-3.475,2.754-5.474,6.277-5.275,10.774a3.439,3.439,0,0,0,5.016,3.2" transform="translate(-35.922 -84.68)" fill="#57b2fd"/>
          <path id="Trazado_622268" data-name="Trazado 622268" d="M76.712,107.49l5.4-3.118c.263-.152.176-.4.161-.625a3.474,3.474,0,0,0-5.209-2.854.593.593,0,0,0-.354.607c.006,1.928,0,3.857,0,5.989" transform="translate(-60.859 -79.688)" fill="#78e65a"/>
          <path id="Trazado_622269" data-name="Trazado 622269" d="M76.792,128.116c.012,1.7.01,3.391.022,5.086,0,.194-.1.462.119.562s.363-.139.516-.261a13.467,13.467,0,0,0,3.969-5.317,10.209,10.209,0,0,0,.947-3.839c-1.832,1.053-3.519,2.03-5.215,2.991a.749.749,0,0,0-.358.778" transform="translate(-60.925 -98.654)" fill="#fdbb1f"/>
          <path id="Trazado_622270" data-name="Trazado 622270" d="M97.05,164.115c.047,2.133.055,4.268.075,6.4.006.608,0,1.217,0,1.986.7-.4,1.262-.761,1.851-1.052a.86.86,0,0,0,.522-.908c-.024-2.674-.018-5.349-.028-8.024,0-.136.078-.312-.159-.432-.531.3-1.069.655-1.644.929a1.02,1.02,0,0,0-.617,1.1" transform="translate(-76.997 -128.596)" fill="#f35170"/>
          <path id="Trazado_622271" data-name="Trazado 622271" d="M111.022,106.32q4.842-2.918,9.687-5.832c.4-.238.739-.49.63-.871-.06-.4.078-.722-.214-.855-.226-.1-.43.116-.631.215s-.39.246-.589.364q-4.5,2.672-9,5.34a1.184,1.184,0,0,0-.6,1.224c.036.542.216.718.717.416" transform="translate(-87.51 -78.334)" fill="#e3e7f0"/>
          <path id="Trazado_622272" data-name="Trazado 622272" d="M78.3,183.367a.859.859,0,0,0-.516.921c.03,1.468-.012,2.937.028,4.4.019.7-.339,1.783.172,2s1.245-.632,1.909-.964a.649.649,0,0,0,.36-.633c0-2.207.022-4.415-.169-6.664a14.6,14.6,0,0,0-1.784.934" transform="translate(-61.654 -144.738)" fill="#b28afc"/>
          <path id="Trazado_622273" data-name="Trazado 622273" d="M61.655,200.024c-.785.45-1.445.836-2.112,1.208a.506.506,0,0,0-.238.522c0,1.746,0,3.492,0,5.391.8-.461,1.436-.836,2.081-1.2a.458.458,0,0,0,.27-.427c0-1.788,0-3.575,0-5.492" transform="translate(-47.051 -158.695)" fill="#daa560"/>
          <path id="Trazado_622274" data-name="Trazado 622274" d="M40.066,225.957c.005.847-.01.812.768.423,1.1-.552,2.153-1.1,1.64-2.412,0-.685-.02-1.148.005-1.608.028-.515-.178-.5-.53-.283-.439.265-.877.536-1.336.763a.893.893,0,0,0-.565.965c.044.716.013,1.435.018,2.153" transform="translate(-31.771 -176.079)" fill="#fdbc21"/>
          <path id="Trazado_622275" data-name="Trazado 622275" d="M189.692,68.994h-.033q0-3.787,0-7.574c0-1.2-.253-1.346-1.312-.735q-10.711,6.176-21.422,12.351a2.12,2.12,0,0,0-1.159,2.014c.023,5.049.024,10.1.036,15.148,0,1.114.32,1.292,1.3.729q10.648-6.13,21.3-12.258a2.339,2.339,0,0,0,1.306-2.255c-.035-2.473-.011-4.946-.011-7.419m-20.97,9.177c0-.707.611-1.492,1.132-1.514.419-.018.522.262.532.592.02.636-.693,1.55-1.187,1.516a.487.487,0,0,1-.478-.594m1.038,9.649c-1.143.664-1.147.658-1.15-.642,0-1.672.023-3.344-.026-5.014a1.1,1.1,0,0,1,.746-1.249,6.526,6.526,0,0,1,1.253-.605c0,2.234-.022,4.394.014,6.552.011.639-.459.738-.837.958m4.609-2.649c-.508.287-1.015.578-1.645.938,0-1.683,0-3.237,0-4.79a.524.524,0,0,1,.307-.489c.488-.276.973-.558,1.611-.925,0,1.683,0,3.22,0,4.758a.522.522,0,0,1-.274.508m3.6-2.068a12.233,12.233,0,0,0-1.2.663c0-2.328.02-4.512-.013-6.7-.01-.615.457-.678.806-.884,1.163-.686,1.168-.678,1.172.68,0,1.62-.03,3.241.031,4.859a1.217,1.217,0,0,1-.8,1.377m3.347-1.922c-.4.193-.493.076-.492-.314.006-1.36.012-2.72-.012-4.08a.75.75,0,0,1,.529-.753c.458-.214.963-.813,1.319-.627.391.2.1.931.141,1.428.029.331.005.667.005,1h0a4.264,4.264,0,0,0,.012,1c.33,1.333-.506,1.871-1.506,2.348m1.994-11.531c-.9-.487-1.789-.991-2.683-1.49l-.6.363c-1.012,1.8-2.348,3.429-2.758,5.524a1.932,1.932,0,0,1-.59.879c-.361.274-.731.407-1.022-.105-.469-1.168-1.555-1.545-2.577-2.005-.336.184-.646.674-1.067.254-.38-.379-.12-.832.084-1.213.222-.416.517-.834,1.068-.725.5.1.316.57.372.9a22.984,22.984,0,0,0,2.583,1.392h0l.5-.342h0a15.907,15.907,0,0,0,1.711-2.79c.416-.642.742-1.341,1.109-2.014a1.668,1.668,0,0,1,.364-1.356c.237-.306.529-.608.961-.471.458.145.317.57.326.911.767.547,1.555,1.068,2.293,1.653.383.3.528.1.7-.181a5.906,5.906,0,0,1,1.062-1.417q-.6,1.1-1.19,2.205c-.2.374-.44.136-.642.027m3.229,8.507c-.494.259-.97.551-1.593.909,0-1.1,0-2.057,0-3.018,0-1.078.047-2.159-.027-3.232a1.206,1.206,0,0,1,.817-1.367c.348-.147.668-.359,1.122-.608,0,2.325,0,4.505,0,6.686a.6.6,0,0,1-.322.631m-.529-12c-.415.025-.527-.245-.544-.583-.03-.619.679-1.554,1.176-1.533a.5.5,0,0,1,.508.541c0,.714-.639,1.545-1.141,1.576" transform="translate(-131.515 -47.866)" fill="#fefefe"/>
          <path id="Trazado_622276" data-name="Trazado 622276" d="M64.889,306.357a5.461,5.461,0,0,1-.866-.486c-.507-.321-1.263-.457-1.391-1.105a4.933,4.933,0,0,1,.076-2.737,9.135,9.135,0,0,1-1.825,1.158c-.557.353-1.146.656-1.757,1.073,2.046,1.214,4.03,2.346,6.017,3.475a.793.793,0,0,0,.867-.056c1.784-1.03,3.563-2.068,5.353-3.087.463-.263.4-.435-.005-.679-.839-.5-1.691-.985-2.541-1.469a2.842,2.842,0,0,1-.547-.362,7.894,7.894,0,0,1,.059,2.578.692.692,0,0,1-.307.517,12.76,12.76,0,0,1-2,1.161.471.471,0,0,1-.491.011c-.2.334-.441.091-.644.009" transform="translate(-46.909 -239.623)" fill="#1d2943"/>
          <path id="Trazado_622277" data-name="Trazado 622277" d="M66.7,301.367a2.851,2.851,0,0,0,.547.362c.85.484,1.7.965,2.541,1.469.406.244.468.415.005.679-1.79,1.019-3.569,2.057-5.353,3.087a.793.793,0,0,1-.867.056c-1.986-1.129-3.971-2.261-6.017-3.475.611-.417,1.2-.72,1.757-1.073a9.135,9.135,0,0,0,1.825-1.158c0-.012.007-.024.012-.036a45.162,45.162,0,0,0-4,2.266c2.242,1.291,4.4,2.531,6.556,3.781a.509.509,0,0,0,.572-.034q2.975-1.72,5.951-3.438c.481-.277.319-.446-.071-.666-1.188-.669-2.359-1.37-3.536-2.059.031.079.056.158.08.238" transform="translate(-45.342 -238.909)" fill="#1d2943"/>
          <path id="Trazado_622278" data-name="Trazado 622278" d="M90.626,306.208a12.766,12.766,0,0,0,2-1.161.692.692,0,0,0,.307-.517,7.894,7.894,0,0,0-.059-2.578,1.033,1.033,0,0,1-.081-.085c-.011.8-.024,1.6-.031,2.395,0,.256.029.5-.263.659-.791.421-1.571.86-2.355,1.292l0,.007a.471.471,0,0,0,.491-.011" transform="translate(-71.511 -239.495)" fill="#1d2943"/>
          <path id="Trazado_622279" data-name="Trazado 622279" d="M103.065,301.367c-.023-.079-.049-.159-.08-.238l0,.152a1.065,1.065,0,0,0,.081.085" transform="translate(-81.705 -238.909)" fill="#1d2943"/>
          <path id="Trazado_622280" data-name="Trazado 622280" d="M75.5,304.711c.128.648.884.785,1.391,1.105a5.47,5.47,0,0,0,.866.486c.2.081.44.325.644-.009l-.012-.01c-.866-.123-1.462-.788-2.228-1.111a.842.842,0,0,1-.564-.942c.038-.755,0-1.513-.008-2.271l-.012.014a4.931,4.931,0,0,0-.076,2.737" transform="translate(-59.774 -239.569)" fill="#1d2943"/>
          <path id="Trazado_622281" data-name="Trazado 622281" d="M76.476,301.875c0-.007,0-.015,0-.022,0,.012-.007.024-.012.036l.012-.014" transform="translate(-60.665 -239.484)" fill="#1d2943"/>
          <path id="Trazado_622282" data-name="Trazado 622282" d="M90.091,322.9l0-.007-.016,0,.012.01" transform="translate(-71.467 -256.171)" fill="#1d2943"/>
          <path id="Trazado_622283" data-name="Trazado 622283" d="M181.4,157.021a6.527,6.527,0,0,0-1.253.605,1.1,1.1,0,0,0-.745,1.249c.049,1.67.022,3.343.026,5.014,0,1.3.006,1.306,1.15.642.378-.22.848-.319.837-.958-.036-2.159-.014-4.318-.014-6.552" transform="translate(-142.333 -124.577)" fill="#daa661"/>
          <path id="Trazado_622284" data-name="Trazado 622284" d="M220.969,136.024c0-1.358-.009-1.365-1.172-.68-.349.206-.815.269-.806.884.033,2.184.013,4.368.013,6.7a12.153,12.153,0,0,1,1.2-.663,1.217,1.217,0,0,0,.8-1.377c-.061-1.618-.027-3.239-.031-4.859" transform="translate(-173.743 -107.023)" fill="#f35270"/>
          <path id="Trazado_622285" data-name="Trazado 622285" d="M260.4,111.194c-.454.249-.774.461-1.122.608a1.205,1.205,0,0,0-.817,1.367c.074,1.073.025,2.154.027,3.232,0,.961,0,1.921,0,3.018.623-.358,1.1-.65,1.593-.909a.6.6,0,0,0,.322-.631c-.006-2.18,0-4.361,0-6.686" transform="translate(-205.053 -88.219)" fill="#78e65a"/>
          <path id="Trazado_622286" data-name="Trazado 622286" d="M240.605,135.586h0c0-.333.023-.669-.005-1-.043-.5.249-1.223-.141-1.428-.356-.187-.86.412-1.319.627a.75.75,0,0,0-.529.753c.024,1.36.018,2.72.012,4.08,0,.391.088.507.492.314,1-.477,1.836-1.015,1.506-2.348a4.265,4.265,0,0,1-.012-1" transform="translate(-189.306 -105.617)" fill="#daa661"/>
          <path id="Trazado_622287" data-name="Trazado 622287" d="M201.353,155.061c-.638.367-1.123.649-1.611.925a.524.524,0,0,0-.307.489c0,1.554,0,3.108,0,4.791.631-.36,1.137-.651,1.645-.938a.522.522,0,0,0,.274-.508c0-1.538,0-3.075,0-4.758" transform="translate(-158.227 -123.022)" fill="#78e65a"/>
          <path id="Trazado_622288" data-name="Trazado 622288" d="M241.166,95.836c-.17.281-.316.484-.7.181-.738-.584-1.526-1.105-2.293-1.653l-.461.8c.893.5,1.784,1,2.683,1.49.2.109.441.347.642-.027.395-.736.793-1.471,1.19-2.205a5.9,5.9,0,0,0-1.062,1.417" transform="translate(-188.596 -74.866)" fill="#e4e7ef"/>
          <path id="Trazado_622289" data-name="Trazado 622289" d="M220.021,100.81a15.916,15.916,0,0,1-1.711,2.79c.8-.073.616.52.651.964.41-2.095,1.746-3.728,2.758-5.524a.758.758,0,0,1-.59-.245c-.366.674-.693,1.373-1.108,2.014" transform="translate(-173.202 -78.383)" fill="#e4e7ef"/>
          <path id="Trazado_622290" data-name="Trazado 622290" d="M204.226,118.359a22.984,22.984,0,0,1-2.583-1.392l-.457.782c1.022.46,2.109.837,2.577,2.005a2.088,2.088,0,0,1,.463-1.4Z" transform="translate(-159.617 -92.799)" fill="#e3e7ef"/>
          <path id="Trazado_622291" data-name="Trazado 622291" d="M180.54,141.449c.494.034,1.207-.88,1.187-1.516-.01-.331-.113-.61-.532-.592-.522.022-1.133.807-1.133,1.514a.487.487,0,0,0,.478.594" transform="translate(-142.855 -110.549)" fill="#7ae75d"/>
          <path id="Trazado_622292" data-name="Trazado 622292" d="M196.8,113.435c-.056-.332.124-.8-.372-.9-.551-.109-.846.309-1.068.725-.2.381-.464.834-.084,1.213.421.42.731-.069,1.067-.254-.11-.413.14-.617.457-.782" transform="translate(-154.775 -89.267)" fill="#5ab4fd"/>
          <path id="Trazado_622293" data-name="Trazado 622293" d="M201.084,117.749l.457-.782c-.317.165-.567.369-.457.782" transform="translate(-159.515 -92.799)" fill="#5ab4fd"/>
          <path id="Trazado_622294" data-name="Trazado 622294" d="M233.5,90.734h0c-.009-.341.132-.766-.326-.911-.432-.137-.724.165-.961.471a1.669,1.669,0,0,0-.364,1.356.506.506,0,0,1,.59.245l.6-.363a.656.656,0,0,1,.461-.8" transform="translate(-183.926 -71.236)" fill="#fdbc23"/>
          <path id="Trazado_622295" data-name="Trazado 622295" d="M238.147,94.364a.656.656,0,0,0-.461.8l.461-.8" transform="translate(-188.57 -74.866)" fill="#fdbc23"/>
          <path id="Trazado_622296" data-name="Trazado 622296" d="M231.954,98.753h0a.758.758,0,0,0,.59.245.506.506,0,0,0-.59-.245" transform="translate(-184.027 -78.339)" fill="#fdbc23"/>
          <path id="Trazado_622297" data-name="Trazado 622297" d="M262.3,78.277c-.5-.021-1.206.914-1.176,1.533.017.338.129.609.544.583.5-.031,1.142-.862,1.14-1.576a.5.5,0,0,0-.508-.541" transform="translate(-207.171 -62.103)" fill="#f35473"/>
          <path id="Trazado_622298" data-name="Trazado 622298" d="M214.62,122.047h0l-.5.342h0a2.221,2.221,0,0,1-.463,1.4c.291.512.661.38,1.022.105a1.931,1.931,0,0,0,.59-.879c-.272-.285-.315-.723-.651-.964" transform="translate(-169.512 -96.829)" fill="#daa661"/>
          <path id="Trazado_622299" data-name="Trazado 622299" d="M218.31,122.024c.336.242.379.68.651.964-.035-.444.152-1.037-.651-.964" transform="translate(-173.202 -96.806)" fill="#daa661"/>
          <path id="Trazado_622300" data-name="Trazado 622300" d="M214.115,123.7a2.088,2.088,0,0,0-.463,1.4,2.221,2.221,0,0,0,.463-1.4" transform="translate(-169.505 -98.143)" fill="#daa661"/>
        </g>
      </g>
    </g>
  </g>
</svg>
