<svg id="Grupo_888185" data-name="Grupo 888185" xmlns="http://www.w3.org/2000/svg" xmlns:xlink="http://www.w3.org/1999/xlink" width="89.913" height="90.108" viewBox="0 0 89.913 90.108">
  <defs>
    <clipPath id="clip-path">
      <rect id="Rectángulo_326661" data-name="Rectángulo 326661" width="89.913" height="90.108" fill="none"/>
    </clipPath>
  </defs>
  <g id="Grupo_888185-2" data-name="Grupo 888185" clip-path="url(#clip-path)">
    <path id="Trazado_622607" data-name="Trazado 622607" d="M33.733.412a36.67,36.67,0,0,0-14.8,4.953A36.461,36.461,0,0,0,1.4,30.253,35.418,35.418,0,0,0,4.921,54.4C10.6,65.074,19.54,71.491,31.393,73.784a30.579,30.579,0,0,0,6.805.583,37.241,37.241,0,0,0,22.558-8.125,2.093,2.093,0,0,1,.9-.529.658.658,0,0,1,.227.012l4.206-4.213a.781.781,0,0,1-.02-.2,1.989,1.989,0,0,1,.516-.9A37.024,37.024,0,0,0,71.2,21.649a36.058,36.058,0,0,0-8.471-11.643A36.44,36.44,0,0,0,42.709.583,5.621,5.621,0,0,1,41.087.245a.213.213,0,0,1-.052-.074l-.854,0c-.3-.037-.632.116-.88-.174H35.963a.792.792,0,0,1-1.054,0h-.351c-.09.5-.516.374-.825.412M37.7,4.66a32.622,32.622,0,1,1-.2,65.244c-17.741-.1-32.588-14.782-32.3-32.719A32.448,32.448,0,0,1,37.7,4.66" transform="translate(-0.502)" fill="#bcc2c6"/>
    <path id="Trazado_622608" data-name="Trazado 622608" d="M6.408,16.381A36.27,36.27,0,0,0,.126,40.254,37.057,37.057,0,0,0,15.235,67.347a37.163,37.163,0,0,0,22.186,7.237,33.975,33.975,0,0,0,5.484-.473A36.76,36.76,0,0,0,59.1,67.4q1.1-.8,2.193-1.592l.087-.087a.657.657,0,0,0-.227-.012,2.094,2.094,0,0,0-.9.529A37.24,37.24,0,0,1,37.7,74.367a30.578,30.578,0,0,1-6.805-.583C19.038,71.491,10.1,65.074,4.419,54.4A35.419,35.419,0,0,1,.9,30.253,36.461,36.461,0,0,1,18.433,5.364,36.669,36.669,0,0,1,33.231.412c.309-.038.735.093.825-.412-1.308.228-2.623.425-3.923.689A36.472,36.472,0,0,0,6.408,16.381" transform="translate(0)" fill="#bcc2c6"/>
    <path id="Trazado_622609" data-name="Trazado 622609" d="M197.794,62a8.535,8.535,0,0,1,.475-.731,37.4,37.4,0,0,0,8.3-22.558,34.432,34.432,0,0,0-.689-7.842,36.959,36.959,0,0,0-9.461-18.584A36.955,36.955,0,0,0,172.694.73h-.025a.214.214,0,0,0,.052.074,5.619,5.619,0,0,0,1.622.338,36.442,36.442,0,0,1,20.015,9.422,36.063,36.063,0,0,1,8.471,11.644,37.022,37.022,0,0,1-4.614,38.76,1.992,1.992,0,0,0-.515.9.78.78,0,0,0,.02.2l.074-.074" transform="translate(-132.136 -0.559)" fill="#bcc2c6"/>
    <path id="Trazado_622610" data-name="Trazado 622610" d="M312.641,309.635v-1.76c-.392.023-.372-.316-.435-.539a4.552,4.552,0,0,0-1.245-1.987c-3.974-3.979-7.964-7.943-11.907-11.952a6.031,6.031,0,0,0-3.788-1.6c-.041-.033-.079-.067-.12-.1a4.868,4.868,0,0,0-4.1,4.107l.091.1a7.009,7.009,0,0,0,2.511,4.735c3.56,3.464,7.039,7.012,10.543,10.533a6.027,6.027,0,0,0,2.474,1.751c.177.053.414.12.352.409h1.756a5.288,5.288,0,0,0,3.864-3.7" transform="translate(-222.728 -223.223)" fill="#e54c3c"/>
    <path id="Trazado_622611" data-name="Trazado 622611" d="M306.583,326.311a6.027,6.027,0,0,1-2.474-1.751c-3.5-3.522-6.982-7.07-10.543-10.534a7.008,7.008,0,0,1-2.511-4.735l-.091-.1c-.008.037-.017.073-.024.11a5.481,5.481,0,0,0,1.83,4.2q5.319,5.235,10.549,10.56a9.605,9.605,0,0,0,3.615,2.655c.062-.29-.175-.356-.352-.409" transform="translate(-222.643 -236.612)" fill="#e54c3c"/>
    <path id="Trazado_622612" data-name="Trazado 622612" d="M312.8,293.412a5.435,5.435,0,0,0-4.2-1.823c-.036.007-.071.016-.107.023.04.033.079.068.12.1a6.031,6.031,0,0,1,3.789,1.6c3.944,4.009,7.933,7.973,11.907,11.952a4.556,4.556,0,0,1,1.245,1.987c.063.223.043.562.435.539a7.469,7.469,0,0,0-2.276-3.436q-5.492-5.437-10.916-10.943" transform="translate(-236.079 -223.139)" fill="#e54c3c"/>
    <path id="Trazado_622613" data-name="Trazado 622613" d="M147.629,0h-1.054a1.341,1.341,0,0,0,1.054,0" transform="translate(-112.168)" fill="#d5d8db"/>
    <path id="Trazado_622614" data-name="Trazado 622614" d="M147.629,0a1.341,1.341,0,0,1-1.054,0,.792.792,0,0,0,1.054,0" transform="translate(-112.168)" fill="#d5d8db"/>
    <path id="Trazado_622615" data-name="Trazado 622615" d="M166.161.087c0-.029,0-.058,0-.087h-.878c.279.174.585.066.879.087" transform="translate(-126.483)" fill="#d2d6d9"/>
    <path id="Trazado_622616" data-name="Trazado 622616" d="M166.162.175c0-.029,0-.058,0-.087-.294-.021-.6.087-.879-.086.248.289.583.136.88.174" transform="translate(-126.483 -0.001)" fill="#d2d6d9"/>
    <path id="Trazado_622617" data-name="Trazado 622617" d="M169.088.092c.262.029.535-.065.787.066A.176.176,0,0,1,169.9,0h-.878c.046.03.066.061.064.091" transform="translate(-129.347 -0.001)" fill="#e6e8ea"/>
    <path id="Trazado_622618" data-name="Trazado 622618" d="M172.622.157c.01.005.02.008.03.014q0-.085,0-.171a.176.176,0,0,0-.027.157" transform="translate(-132.094)" fill="#e6e8ea"/>
    <path id="Trazado_622619" data-name="Trazado 622619" d="M169.093.37a.065.065,0,0,1-.006.024c-.019.039-.037.058-.057.058l.854,0a.147.147,0,0,1,0-.015c-.252-.131-.525-.037-.787-.066" transform="translate(-129.352 -0.279)" fill="#e6e8ea"/>
    <path id="Trazado_622620" data-name="Trazado 622620" d="M172.677.682c-.01-.006-.02-.009-.03-.014s0,.01.005.015h.025Z" transform="translate(-132.119 -0.511)" fill="#e6e8ea"/>
    <path id="Trazado_622621" data-name="Trazado 622621" d="M169.083.091h.005c0-.031-.019-.061-.064-.091,0,.029,0,.058,0,.087.02,0,.039,0,.058,0" transform="translate(-129.347)" fill="#e6e8ea"/>
    <path id="Trazado_622622" data-name="Trazado 622622" d="M169.084.4a.066.066,0,0,0,.006-.024h-.005c-.019,0-.039,0-.058,0,0,.029,0,.058,0,.087.019,0,.038-.019.057-.058" transform="translate(-129.349 -0.283)" fill="#e6e8ea"/>
    <path id="Trazado_622623" data-name="Trazado 622623" d="M269.457,266.01c-1.065-1.037-2.107-2.1-3.151-3.156a1.7,1.7,0,0,1-.538-.724,16.753,16.753,0,0,1-4.185,4.2.843.843,0,0,1,.375.23c2.174,2.182,4.418,4.294,6.5,6.571a3.441,3.441,0,0,1,1.3-2.855,3.392,3.392,0,0,1,2.784-1.249c-1.108-.922-2.053-2.012-3.083-3.015" transform="translate(-200.178 -200.597)" fill="#7f8b8c"/>
    <path id="Trazado_622624" data-name="Trazado 622624" d="M268.086,286.814c-2.079-2.276-4.323-4.389-6.5-6.571a.841.841,0,0,0-.375-.23c-.038.027-.074.055-.113.081,1.656,1.657,3.3,3.324,4.973,4.965a13.368,13.368,0,0,0,2.033,1.914c-.01-.054-.015-.107-.021-.159" transform="translate(-199.809 -214.282)" fill="#7f8b8c"/>
    <path id="Trazado_622625" data-name="Trazado 622625" d="M279.411,261.819a1.7,1.7,0,0,0,.539.724c1.044,1.058,2.086,2.119,3.151,3.156,1.03,1,1.976,2.093,3.083,3.015.054.007.107.012.161.023-.1-.328-.389-.5-.612-.729q-3.121-3.147-6.254-6.283c-.022.032-.046.063-.069.1" transform="translate(-213.821 -200.285)" fill="#7f8b8c"/>
    <path id="Trazado_622626" data-name="Trazado 622626" d="M265.683,262.06l-.005-.021-4.206,4.213.026.006a16.754,16.754,0,0,0,4.185-4.2" transform="translate(-200.093 -200.527)" fill="#7f8b8c"/>
    <path id="Trazado_622627" data-name="Trazado 622627" d="M261.214,279.995l-.026-.006-.087.087c.039-.026.075-.055.113-.081" transform="translate(-199.809 -214.264)" fill="#7f8b8c"/>
    <path id="Trazado_622628" data-name="Trazado 622628" d="M279.461,261.723h0l-.074.074.005.021c.023-.032.046-.063.069-.1" transform="translate(-213.803 -200.285)" fill="#7f8b8c"/>
    <path id="Trazado_622629" data-name="Trazado 622629" d="M292.1,292.688a3.441,3.441,0,0,0-1.3,2.855l.046.049a4.869,4.869,0,0,1,4.1-4.107l-.055-.046a3.393,3.393,0,0,0-2.784,1.249" transform="translate(-222.518 -223.011)" fill="#7f8b8c"/>
    <path id="Trazado_622630" data-name="Trazado 622630" d="M290.877,309.142h0c.007-.038.016-.073.024-.11l-.046-.049c.006.053.012.105.022.159" transform="translate(-222.579 -236.451)" fill="#7f8b8c"/>
    <path id="Trazado_622631" data-name="Trazado 622631" d="M308.263,291.5l.055.046c.036-.007.07-.017.106-.023-.055-.01-.108-.016-.161-.023" transform="translate(-235.9 -223.073)" fill="#7f8b8c"/>
    <path id="Trazado_622632" data-name="Trazado 622632" d="M20.015,52.376C19.729,70.312,34.577,85,52.318,85.1a32.623,32.623,0,1,0-32.3-32.719M46.7,23.563c9.7-1.926,18.348.6,25.742,7.232a26.633,26.633,0,0,1,5.336,6.587A28.444,28.444,0,0,1,81.9,50.923a28.718,28.718,0,0,1-6.881,20.554A28.493,28.493,0,0,1,56.229,81.73a28.82,28.82,0,0,1-19.815-4.546c-.2-.126-.373-.279-.559-.42h0A29.4,29.4,0,0,1,23.067,51.136,29.318,29.318,0,0,1,46.7,23.563" transform="translate(-15.313 -15.191)" fill="#fefefe"/>
    <path id="Trazado_622633" data-name="Trazado 622633" d="M105.9,83.077a1.774,1.774,0,0,0-.38.176q5.279,9.475,10.559,18.951c1.155,2.072,2.334,4.13,3.468,6.212a6.1,6.1,0,0,1-5.412,9.151q-15.275.007-30.55.012a8.506,8.506,0,0,1-3.171-.543c-.313.957.117,1.855.241,2.773A46.876,46.876,0,0,0,82,124.766c.186.141.364.294.559.42a28.819,28.819,0,0,0,19.815,4.546,29.471,29.471,0,0,0,25.67-30.807,28.442,28.442,0,0,0-4.12-13.542,31.846,31.846,0,0,0-9.445-2.607,27.566,27.566,0,0,0-8.572.3" transform="translate(-61.454 -63.193)" fill="#2fa7cb"/>
    <path id="Trazado_622634" data-name="Trazado 622634" d="M35.719,75.156a28.424,28.424,0,0,0,9.972,11.657h0a8.326,8.326,0,0,1-1.074-2.74,24.587,24.587,0,0,1-.822-4.094c-.039-.346-.145-.717.214-.955a6.2,6.2,0,0,1-3.348-4.9A5.9,5.9,0,0,1,41.44,70.5q2.7-4.876,5.418-9.743,5.137-9.2,10.29-18.382a5.85,5.85,0,0,1,10.284-.184c.611.986,1.16,2.011,1.735,3.02.256-.407.7-.418,1.109-.477a30.727,30.727,0,0,1,16,1.886,3.966,3.966,0,0,1,1.339.814,26.63,26.63,0,0,0-5.335-6.586c-7.394-6.637-16.038-9.157-25.742-7.232A29.318,29.318,0,0,0,32.9,61.186a28.5,28.5,0,0,0,2.815,13.97m.287-13.7a26.162,26.162,0,0,1,8.13-18.006,1.554,1.554,0,1,1,2.139,2.235,23.387,23.387,0,0,0-6.639,11.741,38.839,38.839,0,0,0-.594,5.131,1.561,1.561,0,0,1-1.578,1.536,1.588,1.588,0,0,1-1.456-1.67c-.008-.322,0-.644,0-.966" transform="translate(-25.15 -25.241)" fill="#67b8cb"/>
    <path id="Trazado_622635" data-name="Trazado 622635" d="M188.618,81.938c-.405.059-.853.07-1.109.477l.053.093a1.773,1.773,0,0,1,.38-.176,27.566,27.566,0,0,1,8.572-.3,31.845,31.845,0,0,1,9.445,2.607,3.962,3.962,0,0,0-1.339-.814,30.727,30.727,0,0,0-16-1.886" transform="translate(-143.493 -62.449)" fill="#67b8cb"/>
    <path id="Trazado_622636" data-name="Trazado 622636" d="M79.6,229.177c-.035-.019-.068-.04-.1-.059-.359.238-.253.609-.214.954a24.585,24.585,0,0,0,.822,4.095,8.326,8.326,0,0,0,1.074,2.74,46.876,46.876,0,0,1-1.338-4.957c-.124-.918-.554-1.816-.241-2.773" transform="translate(-60.639 -175.334)" fill="#67b8cb"/>
    <path id="Trazado_622637" data-name="Trazado 622637" d="M87.025,100.611c5.617.1,11.237.04,16.855.014a5.486,5.486,0,0,0,5.463-3.535,5.759,5.759,0,0,0-.231-5.178c-2.783-5.057-5.622-10.083-8.438-15.121-1.715-3.069-3.416-6.146-5.146-9.207a1.739,1.739,0,0,1-.34-1.033c-.381-.047-.442-.419-.584-.684-.457-.852-.949-1.683-1.439-2.516a5.687,5.687,0,0,0-9.659.2q-2.814,5.019-5.628,10.039Q73.569,81.292,69.267,89a17.1,17.1,0,0,0-2.23,4.655A5.79,5.79,0,0,0,69.4,99.586c.268.188.666.268.751.655,5.608.831,11.249.269,16.874.37M70.362,92.879c5.206-9.165,10.312-18.386,15.445-27.593a2.83,2.83,0,0,1,5.166-.027c5.161,9.258,10.309,18.523,15.526,27.749a3.116,3.116,0,0,1-2.849,4.785c-5.089-.145-10.185-.042-15.277-.042-5.063,0-10.13-.112-15.189.045a3.147,3.147,0,0,1-2.822-4.917" transform="translate(-51.207 -46.499)" fill="#ebeff0"/>
    <path id="Trazado_622638" data-name="Trazado 622638" d="M106.08,86.449c1.73,3.061,3.431,6.138,5.146,9.207,2.816,5.039,5.655,10.065,8.439,15.121a5.76,5.76,0,0,1,.23,5.178,5.486,5.486,0,0,1-5.463,3.535c-5.619.026-11.239.086-16.855-.014s-11.266.461-16.874-.37a.639.639,0,0,1,.019.1,8.51,8.51,0,0,0,3.171.543q15.275-.026,30.55-.011a6.1,6.1,0,0,0,5.412-9.151c-1.135-2.083-2.314-4.141-3.468-6.212q-5.281-9.474-10.559-18.951a.592.592,0,0,1-.088-.009,1.739,1.739,0,0,0,.34,1.033" transform="translate(-61.759 -65.365)" fill="#ebeff0"/>
    <path id="Trazado_622639" data-name="Trazado 622639" d="M69.386,99.3c-.085-.387-.482-.467-.751-.655a5.79,5.79,0,0,1-2.362-5.928,17.1,17.1,0,0,1,2.23-4.656q4.294-7.714,8.611-15.416,2.808-5.022,5.628-10.038a5.687,5.687,0,0,1,9.659-.2c.49.833.982,1.664,1.439,2.516.142.265.2.637.584.684,0-.012,0-.024,0-.036s.022-.031.033-.048c-.574-1.009-1.123-2.034-1.735-3.02a5.85,5.85,0,0,0-10.284.184q-5.172,9.176-10.29,18.382-2.719,4.866-5.418,9.743a5.9,5.9,0,0,0-.778,3.624,6.2,6.2,0,0,0,3.348,4.9.725.725,0,0,1,.065-.044l.019,0" transform="translate(-50.441 -45.562)" fill="#ebeff0"/>
    <path id="Trazado_622640" data-name="Trazado 622640" d="M80.428,228.933l-.019,0a.721.721,0,0,0-.065.044c.035.02.068.04.1.059a.637.637,0,0,0-.019-.1" transform="translate(-61.484 -175.19)" fill="#ebeff0"/>
    <path id="Trazado_622641" data-name="Trazado 622641" d="M187.36,85.142a.63.63,0,0,0,.088.009l-.053-.093c-.011.017-.023.03-.033.048s0,.024,0,.036" transform="translate(-143.379 -65.091)" fill="#ebeff0"/>
    <path id="Trazado_622642" data-name="Trazado 622642" d="M47.7,96.381a1.562,1.562,0,0,0,1.578-1.536,38.878,38.878,0,0,1,.594-5.131,23.385,23.385,0,0,1,6.639-11.741,1.554,1.554,0,1,0-2.139-2.235,26.16,26.16,0,0,0-8.13,18.006c0,.322-.007.644,0,.966a1.588,1.588,0,0,0,1.456,1.67" transform="translate(-35.384 -57.532)" fill="#fefefe"/>
    <path id="Trazado_622643" data-name="Trazado 622643" d="M97.959,107c5.093,0,10.188-.1,15.277.042a3.116,3.116,0,0,0,2.849-4.784c-5.217-9.226-10.365-18.491-15.526-27.749a2.83,2.83,0,0,0-5.166.027c-5.133,9.206-10.24,18.428-15.446,27.593a3.148,3.148,0,0,0,2.822,4.917C87.828,106.886,92.9,107,97.959,107m.018-4.641a1.558,1.558,0,0,1-.027-3.116,1.558,1.558,0,1,1,.027,3.116M96.433,80.982c0-1.208.6-1.934,1.562-1.929s1.556.728,1.558,1.949q.011,6.6,0,13.2c0,1.228-.588,1.912-1.579,1.907s-1.538-.676-1.541-1.926c0-2.2,0-4.4,0-6.6s0-4.4,0-6.6" transform="translate(-60.792 -55.746)" fill="#e54c3c"/>
    <path id="Trazado_622644" data-name="Trazado 622644" d="M151.823,114.414c0,1.25.545,1.92,1.541,1.926s1.577-.679,1.579-1.907q.012-6.6,0-13.2c0-1.22-.6-1.944-1.558-1.948s-1.559.722-1.562,1.929c-.005,2.2,0,4.4,0,6.6s0,4.4,0,6.6" transform="translate(-116.181 -75.979)" fill="#ebeff0"/>
    <path id="Trazado_622645" data-name="Trazado 622645" d="M153.36,185.29a1.558,1.558,0,0,0,.027,3.115,1.558,1.558,0,1,0-.027-3.115" transform="translate(-116.201 -141.794)" fill="#ebeeef"/>
  </g>
</svg>
