<svg xmlns="http://www.w3.org/2000/svg" xmlns:xlink="http://www.w3.org/1999/xlink" width="112" height="112" viewBox="0 0 112 112">
  <defs>
    <clipPath id="clip-path">
      <rect id="Rectángulo_325871" data-name="Rectángulo 325871" width="74.987" height="75" fill="none"/>
    </clipPath>
  </defs>
  <g id="Grupo_888217" data-name="Grupo 888217" transform="translate(-1006.546 -8504.966)">
    <circle id="Elipse_6595" data-name="Elipse 6595" cx="56" cy="56" r="56" transform="translate(1006.546 8504.966)" fill="#ffe9b2"/>
    <g id="Grupo_887219" data-name="Grupo 887219" transform="translate(1025.546 8523.966)">
      <g id="Grupo_887218" data-name="Grupo 887218" clip-path="url(#clip-path)">
        <path id="Trazado_621845" data-name="Trazado 621845" d="M76.3,71.913a24.537,24.537,0,0,0-5.023-.2Q39.51,71.7,7.744,71.709c-1.819,0-1.82,0-1.82-1.831q0-5.673,0-11.346c0-.268-.008-.537.009-.805.047-.758.217-.928.978-.977.292-.018.585-.01.878-.01H59.61C61,56.746,61,56.746,61.2,58.114a3.068,3.068,0,0,0,2.87,2.663,3.012,3.012,0,0,0,3.012-2.2,6.062,6.062,0,0,0,.175-.785c.154-.96.233-1.038,1.225-1.044,1.976-.012,3.953-.018,5.929,0,.633.007,1.258-.126,1.891-.066V20.95c-1.069-.062-2.139-.052-3.208-.081a1.81,1.81,0,0,1-1.174-.537,11.908,11.908,0,0,0-15.338-.109,2.777,2.777,0,0,1-1.942.675Q31.028,20.882,7.42,20.89c-.146,0-.293,0-.439,0-.845-.038-1.035-.205-1.045-1.055-.025-2.221-.008-4.441-.009-6.662q0-4.942,0-9.883a7.979,7.979,0,0,0-.032-.95.76.76,0,0,0-.813-.761q-1.39-.031-2.781,0a.664.664,0,0,0-.726.728c-.011.268-.015.537-.015.8q0,35.764-.008,71.527a13.972,13.972,0,0,1,.068,1.673H75.639a1.531,1.531,0,0,1,.292,0c.316.063.381-.054.376-.369-.023-1.342-.01-2.685-.01-4.027M66.2,57.98a1.841,1.841,0,0,1-1.621,1.766A2.034,2.034,0,0,1,62.1,57.54q-.01-4.428,0-8.856a2.058,2.058,0,0,1,2.485-2.232h0a1.877,1.877,0,0,1,1.629,1.928,81.363,81.363,0,0,1-.008,9.6m-2.8-16.145c0-.271.078-.366.367-.393,1.163-.106,1.2-.09,1.2,1.037q0,.438,0,.876v.584c0,1.375,0,1.363-1.323,1.3-.291-.015-.232-.182-.233-.333-.005-1.023,0-2.045-.007-3.068M75.135,55.042c0,.678-.208.845-.824.781-.507-.053-1.022-.028-1.534-.037-1.608.01-3.216,0-4.823.038-.481.01-.484-.243-.483-.591.007-2.12-.006-4.241.007-6.361A3.508,3.508,0,0,0,66.42,46.1a.791.791,0,0,1-.259-.646c.007-1.219.013-2.438,0-3.656,0-.346.085-.54.45-.608a12.391,12.391,0,0,0,6.009-3.124,14.727,14.727,0,0,0,2.372-3.246c.233.158.122.368.122.534.007,6.564-.006,13.127.024,19.691m-1.19-33.2c1.175-.075,1.175-.075,1.175,1.1v1.071l-1.3-2.059c.058-.053.088-.106.121-.108m-16.362-1.2a4.408,4.408,0,0,1,.428-.27,10.718,10.718,0,0,1,11.845-.31h0A10.349,10.349,0,0,1,74.747,26.6,10.882,10.882,0,0,1,70.04,38.541a2.654,2.654,0,0,1-.326.151,10.735,10.735,0,0,1-11.572-.308h0a10.281,10.281,0,0,1-4.779-7.664,10.637,10.637,0,0,1,4.221-10.085M6.12,22.626c0-.69.2-.888.848-.817.506.055,1.021.028,1.532.037.219-.009.438-.026.657-.026h45.5A13,13,0,0,0,52.87,25a11.9,11.9,0,0,0,.869,10.416c.294.508.195.725-.236,1.02-.9.62-1.784,1.278-2.659,1.94a.5.5,0,0,1-.736-.019,3.883,3.883,0,0,0-5.714.863.574.574,0,0,1-.785.234q-4.63-1.582-9.275-3.123c-.333-.111-.421-.248-.413-.618a3.811,3.811,0,0,0-2.251-3.783,3.707,3.707,0,0,0-4.237.543,3.757,3.757,0,0,0-1.2,4.231.6.6,0,0,1-.316.811q-5.136,3.438-10.254,6.9c-.256.173-.423.279-.746.024a3.921,3.921,0,0,0-6.324,1.578.644.644,0,0,1-.088.115h0a5.243,5.243,0,0,0,.025,2.584c1.07,1.993,2.443,2.815,4.3,2.574A3.891,3.891,0,0,0,16.1,46.363a.821.821,0,0,1,.419-1.105q5.025-3.339,10.011-6.739a.673.673,0,0,1,.986.041,3.872,3.872,0,0,0,5.622-.731.729.729,0,0,1,1-.328q4.522,1.559,9.065,3.057c.372.124.526.251.5.7a3.884,3.884,0,0,0,2.287,3.764,3.944,3.944,0,0,0,5.389-4.842.7.7,0,0,1,.3-.961c.9-.621,1.782-1.28,2.656-1.944.3-.229.487-.274.778.055a11.8,11.8,0,0,0,6.644,3.855c.336.068.491.2.484.578-.024,1.22-.019,2.44,0,3.66a.885.885,0,0,1-.319.7,3.274,3.274,0,0,0-1,2.5c.014,2.123-.023,4.246.019,6.368.013.66-.153.845-.832.844q-15.224-.035-30.449-.016-10.137,0-20.275,0c-.292,0-.584-.017-.876-.026-.77.008-1.741.334-2.242-.134-.36-.337-.119-1.333-.119-2.035q-.005-15.5-.019-30.992M50.4,41.468a2.771,2.771,0,0,1-2.744,2.747,2.772,2.772,0,1,1-.012-5.543,2.741,2.741,0,0,1,2.756,2.8M32.7,35.473a2.736,2.736,0,1,1-5.471.026A2.788,2.788,0,0,1,30,32.7,2.738,2.738,0,0,1,32.7,35.473M15.08,47.411a2.776,2.776,0,1,1-2.792-2.756,2.721,2.721,0,0,1,2.792,2.756M75.126,74.627c-.015.374-.11.515-.5.5-.8-.022-1.609,0-2.414,0q-33.358,0-66.716,0c-.219,0-.437-.017-.656-.026h0c-.61.007-1.22,0-1.829.026-.362.016-.566-.073-.511-.48a2.726,2.726,0,0,0,0-.366q0-35.475-.016-70.951c0-.716.177-.99.886-.806,1.509-.078,1.509-.078,1.509,1.423q0,33.67,0,67.341c0,.292-.017.584-.025.876h0a.823.823,0,0,0,.907.574c.194-.015.39,0,.585,0q32.671,0,65.342,0c.365,0,.729.026,1.094.039.169-.012.339-.034.508-.036,1.919-.019,1.908-.018,1.834,1.876" transform="translate(-1.321 -1.325)" fill="#690588"/>
        <path id="Trazado_621846" data-name="Trazado 621846" d="M.231,73.308Q.245,37.544.239,1.781c0-.268,0-.537.015-.805A.664.664,0,0,1,.98.247q1.391-.031,2.781,0a.76.76,0,0,1,.813.761,8.011,8.011,0,0,1,.032.95q0,4.942,0,9.884c0,2.221-.016,4.441.009,6.662.01.849.2,1.016,1.045,1.055.146.007.293,0,.439,0q23.608,0,47.215.009a2.776,2.776,0,0,0,1.941-.675,11.908,11.908,0,0,1,15.339.109,1.811,1.811,0,0,0,1.174.536c1.069.029,2.14.019,3.208.081a1.155,1.155,0,0,0-.924-.325c-.756.021-1.513-.006-2.269.012a1.187,1.187,0,0,1-.854-.322,12.012,12.012,0,0,0-16.139,0,1.212,1.212,0,0,1-.849.324q-24.263-.01-48.527,0c-.515,0-.659-.152-.654-.659.022-2.684.01-5.368.01-8.052q0-4.795,0-9.589C4.769.13,4.633,0,3.751,0Q2.4,0,1.043,0C.106,0,.007.1.007,1.063Q.006,37.518,0,73.972a1.469,1.469,0,0,0,.3,1.009,13.943,13.943,0,0,0-.068-1.673" transform="translate(0 0)" fill="#690588"/>
        <path id="Trazado_621847" data-name="Trazado 621847" d="M99.4,371.908c-1.976-.023-3.952-.017-5.929,0-.992.006-1.071.084-1.225,1.044a6.059,6.059,0,0,1-.175.785,3.012,3.012,0,0,1-3.012,2.2,3.068,3.068,0,0,1-2.869-2.663C86,371.906,86,371.905,84.6,371.9H32.784c-.293,0-.586-.009-.878.01-.761.048-.931.218-.978.977-.017.268-.009.537-.009.805q0,5.673,0,11.346c0,1.831,0,1.831,1.82,1.831q31.765,0,63.53.006a24.515,24.515,0,0,1,5.023.2c-.347-.478-.86-.378-1.339-.378q-34,0-68.008.016c-.718,0-.88-.19-.875-.887q.05-6.406,0-12.812c-.006-.729.215-.867.9-.866q26.354.029,52.708.015c1.126,0,1.125,0,1.249,1.14a2.676,2.676,0,0,0,.07.358,3.265,3.265,0,0,0,6.448-.8c.012-.6.2-.718.75-.711,2.367.028,4.734.007,7.1.018a1.233,1.233,0,0,0,1-.324c-.633-.06-1.258.074-1.891.066" transform="translate(-26.315 -316.485)" fill="#690588"/>
        <path id="Trazado_621848" data-name="Trazado 621848" d="M47.413,140.629h0a19.242,19.242,0,0,1-.02,4.243c.222.253.122.56.122.841q.011,8.146.007,16.291a.644.644,0,0,0,.088-.115,3.921,3.921,0,0,1,6.324-1.578c.323.255.491.148.746-.024q5.122-3.46,10.254-6.9a.6.6,0,0,0,.316-.811,3.758,3.758,0,0,1,1.2-4.231,3.706,3.706,0,0,1,4.237-.543,3.811,3.811,0,0,1,2.251,3.783c-.008.37.08.507.413.618q4.643,1.544,9.275,3.123a.574.574,0,0,0,.785-.234,3.883,3.883,0,0,1,5.714-.863.5.5,0,0,0,.736.019c.875-.662,1.754-1.32,2.659-1.94.431-.3.53-.513.236-1.02a11.9,11.9,0,0,1-.869-10.416,12.993,12.993,0,0,1,1.784-3.182h-45.5c-.219,0-.438.017-.657.027a16,16,0,0,1-.1,2.914" transform="translate(-40.339 -117.194)" fill="#fbc14c"/>
        <path id="Trazado_621849" data-name="Trazado 621849" d="M48.235,259.006c.292.009.584.026.876.026q10.137,0,20.275,0,15.224,0,30.449.016c.678,0,.845-.184.832-.844-.042-2.122-.006-4.245-.019-6.368a3.274,3.274,0,0,1,1-2.5.885.885,0,0,0,.319-.7c-.017-1.22-.022-2.44,0-3.66.007-.378-.148-.511-.484-.578a11.8,11.8,0,0,1-6.644-3.855c-.292-.329-.477-.284-.778-.055-.873.664-1.752,1.323-2.656,1.944a.7.7,0,0,0-.3.961,3.944,3.944,0,0,1-5.389,4.842,3.883,3.883,0,0,1-2.287-3.764c.026-.45-.128-.577-.5-.7-3.026-1-6.05-2.017-9.065-3.057a.729.729,0,0,0-1,.328,3.872,3.872,0,0,1-5.622.731.674.674,0,0,0-.986-.041q-4.989,3.393-10.011,6.739a.821.821,0,0,0-.419,1.105,3.892,3.892,0,0,1-3.267,4.932c-1.857.241-3.231-.581-4.3-2.574Q48.25,255.473,48.235,259.006Z" transform="translate(-41.056 -204.545)" fill="#fbc14c"/>
        <path id="Trazado_621850" data-name="Trazado 621850" d="M8.792,8.988q.029,35.244.017,70.488c0,.941,0,.941.955.942.415,0,.829,0,1.244.005h0l.01-2.819h0c.009-.292.025-.584.025-.876q0-33.67,0-67.341c0-1.5,0-1.5-1.509-1.423-.611.079-.744.416-.744,1.024" transform="translate(-7.483 -6.757)" fill="#fefefe"/>
        <path id="Trazado_621851" data-name="Trazado 621851" d="M23.83,478.754a.323.323,0,0,1-.071.074q33.416,0,66.833,0c1.22,0,1.07.129,1.082-1.106,0-.366,0-.731,0-1.1h0c-.365-.014-.729-.039-1.094-.039q-32.671,0-65.342,0c-.2,0-.391-.012-.585,0a.823.823,0,0,1-.907-.574,5.091,5.091,0,0,1,.081,2.744" transform="translate(-20.214 -405.162)" fill="#f3eeec"/>
        <path id="Trazado_621852" data-name="Trazado 621852" d="M23.684,478.828h.02a.319.319,0,0,0,.071-.074,5.093,5.093,0,0,0-.081-2.744h0q0,1.409-.01,2.819" transform="translate(-20.159 -405.161)" fill="#f3eeec"/>
        <path id="Trazado_621853" data-name="Trazado 621853" d="M442.239,247.579c0-.257.091-.544-.16-.752h0a12.389,12.389,0,0,1-6.009,3.124c-.365.068-.455.262-.45.608.017,1.218.011,2.437,0,3.656a.792.792,0,0,0,.259.646,3.508,3.508,0,0,1,1.058,2.774c-.013,2.12,0,4.241-.007,6.361,0,.348,0,.6.483.591,1.607-.034,3.215-.028,4.823-.038q0-8.485,0-16.97" transform="translate(-370.783 -210.089)" fill="#fbc14c"/>
        <path id="Trazado_621854" data-name="Trazado 621854" d="M357.558,117.4a10.932,10.932,0,0,0-3.518,6.928,11.448,11.448,0,0,0,2.688,8.943c.445.529,1.145.835,1.369,1.551h0a10.735,10.735,0,0,0,11.572.308c.125-.391.529-.484.788-.733a11.755,11.755,0,0,0,3.771-7.362,11.563,11.563,0,0,0-3.473-9.65c-.3-.314-.764-.451-.943-.892h0a10.718,10.718,0,0,0-11.845.31c.068.337-.242.44-.41.6m15.806,8.439a9.239,9.239,0,1,1-18.477-.183,9.239,9.239,0,0,1,18.477.183" transform="translate(-301.277 -97.763)" fill="#fbc14c"/>
        <path id="Trazado_621855" data-name="Trazado 621855" d="M32.041,171.39c.5.469,1.472.143,2.242.134a.986.986,0,0,1-.228-.744c-.014-1.865-.018-3.73,0-5.6a.841.841,0,0,1,.255-.727,5.243,5.243,0,0,1-.025-2.584h0c-.334-.371-.234-.831-.234-1.258-.011-5.147,0-10.294-.01-15.44a1.669,1.669,0,0,0-.02-.364v0c-.631.3-.932.1-.944-.627-.017-1.046,0-2.093,0-3.139,0-.3.011-.585.328-.75a.532.532,0,0,1,.631.079c.051-.631.013-1.264.03-1.9a1.227,1.227,0,0,1,.218-.892c-.511-.009-1.026.018-1.532-.037-.648-.07-.85.128-.848.817q.037,15.5.019,30.992c0,.7-.241,1.7.119,2.035" transform="translate(-27.104 -117.063)" fill="#fbdf6a"/>
        <path id="Trazado_621856" data-name="Trazado 621856" d="M46.563,140.661a1.8,1.8,0,0,1,.144.126,16,16,0,0,0,.1-2.914,1.228,1.228,0,0,0-.219.892c-.017.632.021,1.264-.03,1.9" transform="translate(-39.633 -117.352)" fill="#fbdf6a"/>
        <path id="Trazado_621857" data-name="Trazado 621857" d="M46.623,185.96c-.047.025-.091.047-.135.068v0a1.662,1.662,0,0,1,.02.364c.013,5.147,0,10.294.01,15.44,0,.428-.1.887.235,1.258q0-8.146-.007-16.291c0-.281.1-.588-.122-.841" transform="translate(-39.569 -158.282)" fill="#fbdf6a"/>
        <path id="Trazado_621858" data-name="Trazado 621858" d="M46.639,319.162c-.021,1.865-.016,3.73,0,5.6a.987.987,0,0,0,.228.744l.029-7.066a.842.842,0,0,0-.255.727" transform="translate(-39.686 -271.04)" fill="#fbdf6a"/>
        <path id="Trazado_621859" data-name="Trazado 621859" d="M481.39,225.018a14.727,14.727,0,0,1-2.372,3.246.28.28,0,0,1,.283.184,1.272,1.272,0,0,1,.113.569q.026,8.112,0,16.225a.969.969,0,0,1-.236.745c.512.009,1.027-.015,1.534.037.616.064.827-.1.824-.781-.029-6.563-.016-13.127-.023-19.691,0-.166.11-.376-.122-.534" transform="translate(-407.722 -191.527)" fill="#dda32e"/>
        <path id="Trazado_621860" data-name="Trazado 621860" d="M479.414,247.576a1.274,1.274,0,0,0-.113-.569.28.28,0,0,0-.283-.184h0c.251.208.16.5.16.752q.005,8.485,0,16.97a.969.969,0,0,0,.236-.745q.02-8.112,0-16.225" transform="translate(-407.722 -210.086)" fill="#dda32e"/>
        <path id="Trazado_621861" data-name="Trazado 621861" d="M411.679,305.586a3.371,3.371,0,0,0-.884-2.458h0a2.058,2.058,0,0,0-2.485,2.232q-.009,4.428,0,8.856a2.034,2.034,0,0,0,2.485,2.206,3.512,3.512,0,0,0,.892-2.529c-.034-2.769-.02-5.538-.007-8.307" transform="translate(-347.533 -258.001)" fill="#fe4396"/>
        <path id="Trazado_621862" data-name="Trazado 621862" d="M295.388,250.916a2.772,2.772,0,1,0,2.756,2.8,2.74,2.74,0,0,0-2.756-2.8" transform="translate(-249.068 -213.57)" fill="#fbc14c"/>
        <path id="Trazado_621863" data-name="Trazado 621863" d="M57.908,291.12a2.733,2.733,0,1,0,2.792,2.756,2.723,2.723,0,0,0-2.792-2.756" transform="translate(-46.941 -247.79)" fill="#fe4396"/>
        <path id="Trazado_621864" data-name="Trazado 621864" d="M174.088,213.6a2.735,2.735,0,1,0,5.471-.026,2.738,2.738,0,0,0-2.708-2.772,2.788,2.788,0,0,0-2.763,2.8" transform="translate(-148.177 -179.426)" fill="#7bab51"/>
        <path id="Trazado_621865" data-name="Trazado 621865" d="M92.1,479.872c-.17,0-.339.024-.508.036a2.7,2.7,0,0,1,.161,1.916.406.406,0,0,1-.474.355c-.195-.006-.39,0-.586,0q-33.124,0-66.247,0a1.726,1.726,0,0,1-.779-.059l-.014.011c0,.034,0,.068,0,.1.219.009.438.026.656.027q33.358,0,66.716,0c.8,0,1.61-.026,2.414,0,.389.011.485-.13.5-.5.075-1.895.086-1.895-1.834-1.876" transform="translate(-20.126 -408.446)" fill="#d5cfce"/>
        <path id="Trazado_621866" data-name="Trazado 621866" d="M23.675,494.945c0,.005,0,.01,0,.016l.014-.011-.013-.005Z" transform="translate(-20.15 -421.279)" fill="#d5cfce"/>
        <path id="Trazado_621867" data-name="Trazado 621867" d="M90.609,482.335q-33.416,0-66.833,0l-.007.005a1.727,1.727,0,0,0,.779.059q33.124.005,66.248,0c.2,0,.391-.006.586,0a.406.406,0,0,0,.474-.355,2.7,2.7,0,0,0-.161-1.917c0,.366,0,.732,0,1.1-.012,1.235.138,1.105-1.082,1.106" transform="translate(-20.231 -408.67)" fill="#d5cfce"/>
        <path id="Trazado_621868" data-name="Trazado 621868" d="M23.684,494.946l.013.005.007-.005Z" transform="translate(-20.159 -421.279)" fill="#d5cfce"/>
        <path id="Trazado_621869" data-name="Trazado 621869" d="M464.139,132.943a11.3,11.3,0,0,1-3.318,10.488c-.4.4-.9.663-1.311,1.043a2.655,2.655,0,0,0,.326-.151,10.882,10.882,0,0,0,4.708-11.944,10.349,10.349,0,0,0-4.891-6.542,10.8,10.8,0,0,1,4.485,7.106" transform="translate(-391.118 -107.108)" fill="#dda32e"/>
        <path id="Trazado_621870" data-name="Trazado 621870" d="M460.6,126.729a11.563,11.563,0,0,1,3.473,9.65,11.755,11.755,0,0,1-3.771,7.362c-.259.249-.663.343-.788.733.411-.38.914-.641,1.311-1.043a11.3,11.3,0,0,0,3.318-10.488,10.8,10.8,0,0,0-4.485-7.106h0c.179.44.644.578.943.892" transform="translate(-391.118 -107.108)" fill="#dda32e"/>
        <path id="Trazado_621871" data-name="Trazado 621871" d="M349.125,138.274a10.28,10.28,0,0,0,4.779,7.664h0c-.45-.543-1.05-.923-1.519-1.457a11.569,11.569,0,0,1,1.051-16.183,1.363,1.363,0,0,0,.339-.379,4.389,4.389,0,0,0-.428.27,10.637,10.637,0,0,0-4.221,10.085" transform="translate(-297.084 -108.88)" fill="#fbde69"/>
        <path id="Trazado_621872" data-name="Trazado 621872" d="M356.541,128.3a11.569,11.569,0,0,0-1.051,16.183c.469.534,1.069.914,1.519,1.457-.224-.716-.924-1.022-1.369-1.551a11.448,11.448,0,0,1-2.688-8.943,10.932,10.932,0,0,1,3.518-6.928c.168-.158.478-.261.41-.6a1.361,1.361,0,0,1-.339.379" transform="translate(-300.189 -108.88)" fill="#fbde69"/>
        <path id="Trazado_621873" data-name="Trazado 621873" d="M10.145,80.3a.326.326,0,0,1-.1.024c-.488.007-.978-.025-1.464.011s-.752-.1-.663-.634a1.365,1.365,0,0,0,0-.219q0-35.4-.014-70.791c0-.637.135-.964.813-.89-.709-.184-.887.09-.886.806q.028,35.475.015,70.951a2.724,2.724,0,0,1,0,.366c-.055.407.149.5.511.48.609-.027,1.219-.019,1.829-.026-.044-.027-.059-.053-.045-.077" transform="translate(-6.671 -6.589)" fill="#f3eeec"/>
        <path id="Trazado_621874" data-name="Trazado 621874" d="M8.3,8.945q.025,35.4.014,70.791a1.363,1.363,0,0,1,0,.219c-.088.538.175.671.663.634s.975,0,1.464-.011a.328.328,0,0,0,.1-.024s0,0,0,0c.016-.025.033-.037.049-.037-.415,0-.829,0-1.244-.005-.954,0-.954,0-.954-.942q0-35.244-.017-70.488c0-.608.133-.944.744-1.024-.679-.074-.814.252-.813.89" transform="translate(-7.061 -6.847)" fill="#f3eeec"/>
        <path id="Trazado_621875" data-name="Trazado 621875" d="M23.313,495.079c-.014.025,0,.05.045.077q0-.051,0-.1a.3.3,0,0,1-.049.025" transform="translate(-19.839 -421.371)" fill="#f3eeec"/>
        <path id="Trazado_621876" data-name="Trazado 621876" d="M23.342,494.985v0a.3.3,0,0,0,.049-.025c0-.005,0-.01,0-.016-.017,0-.033.013-.049.037" transform="translate(-19.867 -421.281)" fill="#f3eeec"/>
        <path id="Trazado_621877" data-name="Trazado 621877" d="M425.033,303.2h0a2.1,2.1,0,0,1,1.073,2.02c.061,3.112.056,6.225,0,9.336a2.011,2.011,0,0,1-1.075,1.938,1.841,1.841,0,0,0,1.621-1.766,81.363,81.363,0,0,0,.008-9.6,1.877,1.877,0,0,0-1.629-1.928" transform="translate(-361.772 -258.069)" fill="#de2479"/>
        <path id="Trazado_621878" data-name="Trazado 621878" d="M426.108,314.553c.054-3.112.059-6.225,0-9.336a2.1,2.1,0,0,0-1.073-2.02,3.37,3.37,0,0,1,.884,2.458c-.012,2.769-.026,5.538.007,8.307a3.512,3.512,0,0,1-.892,2.529,2.011,2.011,0,0,0,1.075-1.938" transform="translate(-361.772 -258.07)" fill="#de2479"/>
        <path id="Trazado_621879" data-name="Trazado 621879" d="M417.381,273.091c1.323.068,1.323.08,1.323-1.3v-1.461c0-1.127-.033-1.144-1.2-1.037-.288.026-.37.121-.367.393.01,1.022,0,2.045.007,3.068,0,.15-.058.318.233.333" transform="translate(-355.054 -229.18)" fill="#f1ebeb"/>
        <path id="Trazado_621880" data-name="Trazado 621880" d="M488.421,138.769c0-1.17,0-1.171-1.175-1.1-.033,0-.064.055-.121.108l1.3,2.059v-1.071" transform="translate(-414.622 -117.159)" fill="#d99e31"/>
        <path id="Trazado_621881" data-name="Trazado 621881" d="M42.348,157.507h0c-.65.039-.7.131-.71.868-.012.819.026,1.64-.012,2.457-.027.594.176.9.724.912.056-1.411.06-2.824,0-4.236" transform="translate(-35.429 -134.063)" fill="#6a0788"/>
        <path id="Trazado_621882" data-name="Trazado 621882" d="M46.488,157.461c.062,1.412.058,2.824,0,4.236.042,0,.086,0,.133,0a19.233,19.233,0,0,0,.02-4.243l-.155.008h0" transform="translate(-39.569 -134.016)" fill="#6a0788"/>
        <path id="Trazado_621883" data-name="Trazado 621883" d="M40.323,159.21c.038-.817,0-1.638.012-2.457.011-.738.059-.829.71-.868,0-.045.007-.089.011-.134a.532.532,0,0,0-.631-.079c-.317.165-.329.45-.328.75,0,1.046-.012,2.093,0,3.139.011.729.312.923.944.627,0-.022,0-.044,0-.065-.548-.011-.751-.318-.724-.912" transform="translate(-34.125 -132.442)" fill="#6a0788"/>
        <path id="Trazado_621884" data-name="Trazado 621884" d="M46.644,156.73h0a1.8,1.8,0,0,0-.144-.126c0,.045-.006.089-.011.134l.155-.008" transform="translate(-39.57 -133.295)" fill="#6a0788"/>
        <path id="Trazado_621885" data-name="Trazado 621885" d="M46.49,185.962c0,.022,0,.044,0,.065q.065-.031.135-.068c-.046,0-.09,0-.133,0" transform="translate(-39.569 -158.282)" fill="#6a0788"/>
        <path id="Trazado_621886" data-name="Trazado 621886" d="M360.188,135.122a9.239,9.239,0,1,0,9.306-9.141,9.243,9.243,0,0,0-9.306,9.141m9.182-7.951a8.052,8.052,0,1,1-7.993,8.132,8.057,8.057,0,0,1,7.993-8.132" transform="translate(-306.578 -107.23)" fill="#690588"/>
        <path id="Trazado_621887" data-name="Trazado 621887" d="M376.306,150.082a8.052,8.052,0,0,0-.138-16.1,8.052,8.052,0,1,0,.138,16.1m.187-2.6c-.542.027-.777-.308-.793-.782,0-.54.172-.917.728-.929s.758.364.761.858c0,.463-.188.827-.7.853m-2.577-9.38a3.177,3.177,0,0,1,3.4-1.107,3.142,3.142,0,0,1,2.3,2.808,3.1,3.1,0,0,1-1.842,3.126c-.4.18-.644.347-.592.835.059.551-.059,1.1-.741,1.107s-.768-.547-.746-1.1c.006-.146,0-.293,0-.439,0-.171.011-.342,0-.512-.048-.687.253-1.026.953-1.1a1.6,1.6,0,0,0,1.473-1.392,1.654,1.654,0,0,0-1.017-1.83,1.629,1.629,0,0,0-2.02.547c-.343.451-.721.718-1.219.337-.523-.4-.271-.86.047-1.275" transform="translate(-313.377 -114.037)" fill="#f3eeec"/>
        <path id="Trazado_621888" data-name="Trazado 621888" d="M404.707,155.917c.5.381.876.114,1.219-.337a1.629,1.629,0,0,1,2.02-.547,1.654,1.654,0,0,1,1.017,1.83,1.6,1.6,0,0,1-1.473,1.392c-.7.079-1,.417-.953,1.1.012.17,0,.341,0,.512,0,.146,0,.293,0,.439-.022.555.055,1.106.746,1.1s.8-.556.741-1.107c-.053-.488.189-.655.592-.835a3.1,3.1,0,0,0,1.842-3.126,3.142,3.142,0,0,0-2.3-2.808,3.177,3.177,0,0,0-3.4,1.107c-.318.415-.57.874-.047,1.275" transform="translate(-344.214 -130.575)" fill="#690589"/>
        <path id="Trazado_621889" data-name="Trazado 621889" d="M419.464,213.235c-.556.012-.732.388-.728.929.016.473.251.809.793.782.508-.025.7-.39.7-.853,0-.494-.2-.87-.761-.858" transform="translate(-356.413 -181.498)" fill="#6a088a"/>
      </g>
    </g>
  </g>
</svg>
