<svg xmlns="http://www.w3.org/2000/svg" xmlns:xlink="http://www.w3.org/1999/xlink" width="90" height="90" viewBox="0 0 90 90">
  <defs>
    <clipPath id="clip-path">
      <rect id="Rect치ngulo_326682" data-name="Rect치ngulo 326682" width="90" height="90" transform="translate(1414 -5862)" fill="#fff" stroke="#707070" stroke-width="1"/>
    </clipPath>
    <clipPath id="clip-path-2">
      <rect id="Rect치ngulo_326681" data-name="Rect치ngulo 326681" width="80.748" height="94.451" fill="none"/>
    </clipPath>
  </defs>
  <g id="Enmascarar_grupo_868546" data-name="Enmascarar grupo 868546" transform="translate(-1414 5862)" clip-path="url(#clip-path)">
    <g id="Grupo_888202" data-name="Grupo 888202" transform="translate(1418.567 -5862.22)">
      <g id="Grupo_888201" data-name="Grupo 888201" clip-path="url(#clip-path-2)">
        <path id="Trazado_622715" data-name="Trazado 622715" d="M94.113,77.807a1.846,1.846,0,0,0-.829.7c-4.09,4.522-9.1,6.628-15.209,5.759A16.521,16.521,0,0,1,65.966,76.1c-.191-.308-.211-.859-.684-.82-.363.03-.41.521-.59.811a16.791,16.791,0,0,1-25.865,3.96,33.925,33.925,0,0,0-2.112,13.561,2.126,2.126,0,0,1-.268,1.4Q29.83,104.9,23.255,114.8l6.725.032c1.888,0,3.778.045,5.663-.023.9-.032,1.122.287,1.1,1.137-.057,1.89-.018,3.783-.018,5.675a13.368,13.368,0,0,0,11.491,13.253c.093.014.175.1.261.158l5.065.033c1.927,0,3.856.024,5.782-.016.71-.015.982.176.975.938-.036,4.178-.023,8.357-.027,12.535,7.57.01,15.14.011,22.71.043.714,0,.878-.252.873-.917-.026-3.722,0-7.445-.026-11.167a2.026,2.026,0,0,1,.651-1.568c1.525-1.547,3.109-3.032,4.535-4.682A31.812,31.812,0,0,0,97.2,109.989c.216-7.911.607-15.861-.347-23.761a24.963,24.963,0,0,0-2.74-8.422" transform="translate(-16.718 -54.12)" fill="#e6bc92"/>
        <path id="Trazado_622716" data-name="Trazado 622716" d="M83.122,14.631a13.01,13.01,0,0,0,5.46,9.854,12.316,12.316,0,0,0,4.913,2.227,1.318,1.318,0,0,1,.734.374,13.494,13.494,0,0,0,0-26.9c-.705.59-1.633.549-2.443.846a13.393,13.393,0,0,0-8.665,13.6m10.123,7.43a1.684,1.684,0,1,1,1.627-1.71,1.7,1.7,0,0,1-1.627,1.71M93.166,5.207a1.687,1.687,0,0,1,1.7,1.851q.029,3.2,0,6.407a1.688,1.688,0,0,1-1.7,1.851,1.709,1.709,0,0,1-1.652-1.9c-.016-1.085,0-2.171,0-3.256,0-1.015-.013-2.031,0-3.046a1.708,1.708,0,0,1,1.653-1.9" transform="translate(-59.726 -0.131)" fill="#f96450"/>
        <path id="Trazado_622717" data-name="Trazado 622717" d="M190.885,15.047A13.136,13.136,0,0,0,201.227,26.7a1.3,1.3,0,0,1,.732.375,13.5,13.5,0,0,0,0-26.911c-1.718.744-3.584,1.116-5.157,2.23a13.142,13.142,0,0,0-5.918,12.649m8.48,8.689c-1.582,0-1.348.188-1.362-1.637-.01-1.288,0-1.288,1.512-1.288,1.634.019,1.4-.175,1.405,1.6,0,1.546.193,1.326-1.555,1.329m1.97-20.211c3.154.375,5.564,3.159,5.3,5.776a5.473,5.473,0,0,1-4.55,5.6c-.914.172-1.37.505-1.167,1.485.056.269-.015.562.013.839.058.58-.153.812-.764.8-2.612-.042-2.117.236-2.159-2.075-.018-.947.036-1.9-.015-2.84-.039-.711.157-1.034.925-.967a18.154,18.154,0,0,0,2.1.005,2.951,2.951,0,0,0,2.814-2.628,3.051,3.051,0,0,0-2.28-3.028,2.805,2.805,0,0,0-3.373,1.794c-.123.328-.011.878-.53.913a10.161,10.161,0,0,1-2.194-.048c-.366-.056-.224-.532-.212-.831.112-2.742,3.154-5.144,6.1-4.794" transform="translate(-137.167 -0.121)" fill="#64c7ef"/>
        <path id="Trazado_622718" data-name="Trazado 622718" d="M7.227,111.953c3.815-5.751,7.618-11.51,11.48-17.23a5.315,5.315,0,0,0,1.038-3.418,30.871,30.871,0,0,1,1.517-10.976,2.754,2.754,0,0,1,.848-1.642,20.954,20.954,0,0,1-3.885-5.308,4.281,4.281,0,0,0-.371.432c-.326.539-.658,1.076-.958,1.629a30.754,30.754,0,0,0-3.613,16.6,3.357,3.357,0,0,1-.638,2.145Q6.513,103.344.424,112.536c-.18.271-.489.5-.412.9H6.538c-.066-.631.389-1.031.689-1.483" transform="translate(0 -52.751)" fill="#d1a981"/>
        <path id="Trazado_622719" data-name="Trazado 622719" d="M36.7,105.823A33.921,33.921,0,0,1,38.81,92.262a2.755,2.755,0,0,0-.848,1.642,30.877,30.877,0,0,0-1.517,10.976,5.314,5.314,0,0,1-1.038,3.418c-3.861,5.72-7.665,11.479-11.48,17.23-.3.452-.755.852-.689,1.482h0q6.59-9.9,13.192-19.784a2.128,2.128,0,0,0,.268-1.4" transform="translate(-16.7 -66.326)" fill="#d1a981"/>
        <path id="Trazado_622720" data-name="Trazado 622720" d="M53.614,222.461c.058-1.679-.019-3.362.019-5.042.02-.868-.32-1.184-1.176-1.156-1.327.044-2.656.016-3.984.009a1.807,1.807,0,0,1-1.3-.291q.005,3.472.011,6.944a13.523,13.523,0,0,0,10.027,12.866c2.8.715,5.634.331,8.456.39-6.831-.273-12.289-6.981-12.057-13.72" transform="translate(-33.915 -155.265)" fill="#d1a982"/>
        <path id="Trazado_622721" data-name="Trazado 622721" d="M53.919,222.706c0-1.892-.04-3.785.018-5.674.026-.851-.194-1.17-1.1-1.138-1.886.068-3.775.022-5.663.023a1.809,1.809,0,0,0,1.3.291c1.328.008,2.657.035,3.984-.009.855-.028,1.2.288,1.176,1.156-.038,1.68.039,3.363-.019,5.042-.232,6.739,5.226,13.447,12.057,13.72-.087-.055-.169-.145-.261-.158a13.368,13.368,0,0,1-11.491-13.253" transform="translate(-33.915 -155.201)" fill="#d1a982"/>
        <path id="Trazado_622722" data-name="Trazado 622722" d="M85.566,26.955a12.909,12.909,0,0,1-7.738-4.077C70.98,15.746,74.191,3.314,83.617.439c.641-.2,1.322-.151,1.95-.387A13.558,13.558,0,0,0,71.031,13.395,13.566,13.566,0,0,0,85.566,26.955" transform="translate(-51.063 -0.001)" fill="#db4632"/>
        <path id="Trazado_622723" data-name="Trazado 622723" d="M85.838,23.008a12.909,12.909,0,0,0,7.738,4.077,1.32,1.32,0,0,0-.734-.373,12.319,12.319,0,0,1-4.914-2.227,13.01,13.01,0,0,1-5.459-9.854,13.393,13.393,0,0,1,8.665-13.6c.81-.3,1.738-.256,2.443-.846-.628.236-1.309.191-1.95.387C82.2,3.444,78.99,15.876,85.838,23.008" transform="translate(-59.072 -0.131)" fill="#db4632"/>
        <path id="Trazado_622724" data-name="Trazado 622724" d="M193.319,27.038h0a12.807,12.807,0,0,1-7.732-4.079c-6.859-7.132-3.654-19.554,5.784-22.437.638-.195,1.307-.224,1.948-.395a17.538,17.538,0,0,0-3.343.144,13.5,13.5,0,0,0,3.343,26.767" transform="translate(-128.527 -0.08)" fill="#46a9d1"/>
        <path id="Trazado_622725" data-name="Trazado 622725" d="M193.58,23a12.8,12.8,0,0,0,7.732,4.079,1.3,1.3,0,0,0-.732-.375,13.137,13.137,0,0,1-10.343-11.657A13.141,13.141,0,0,1,196.156,2.4c1.573-1.115,3.439-1.486,5.156-2.23-.641.171-1.31.2-1.948.395C189.926,3.446,186.721,15.868,193.58,23" transform="translate(-136.52 -0.121)" fill="#46a9d1"/>
        <path id="Trazado_622726" data-name="Trazado 622726" d="M137.389,299.8c-.012-3.367,0-6.734-.008-10.1,0-1.349-.067-1.4-1.435-1.412-1.19-.008-2.38,0-3.571-.005a1.992,1.992,0,0,1-1.4-.33c0,4.2.02,8.4,0,12.6,0,.664.155.924.867.9,1.954-.053,3.91-.034,5.865-.044h0a2.2,2.2,0,0,1-.318-1.608" transform="translate(-94.156 -207.006)" fill="#d1a981"/>
        <path id="Trazado_622727" data-name="Trazado 622727" d="M136.765,287.9c-1.927.04-3.855.015-5.782.016a1.992,1.992,0,0,0,1.4.33c1.19.01,2.38,0,3.57.005,1.368.008,1.432.063,1.435,1.412.009,3.367,0,6.734.009,10.1a2.2,2.2,0,0,0,.318,1.608c0-4.179-.009-8.357.027-12.535.007-.762-.265-.952-.975-.938" transform="translate(-94.161 -206.963)" fill="#d1a981"/>
        <path id="Trazado_622728" data-name="Trazado 622728" d="M113.051,23.006c0,1.085-.013,2.171,0,3.256a1.709,1.709,0,0,0,1.652,1.9,1.688,1.688,0,0,0,1.7-1.851q.029-3.2,0-6.406a1.687,1.687,0,0,0-1.7-1.851,1.708,1.708,0,0,0-1.653,1.9c-.016,1.015,0,2.031,0,3.046" transform="translate(-81.267 -12.981)" fill="#efefef"/>
        <path id="Trazado_622729" data-name="Trazado 622729" d="M114.747,66.037a1.684,1.684,0,1,0,1.681,1.656,1.7,1.7,0,0,0-1.681-1.656" transform="translate(-81.281 -47.473)" fill="#efeeed"/>
        <path id="Trazado_622730" data-name="Trazado 622730" d="M206.479,16.818c-.012.3-.154.775.211.831a10.164,10.164,0,0,0,2.194.048c.518-.035.407-.584.53-.913a2.805,2.805,0,0,1,3.373-1.794,3.051,3.051,0,0,1,2.28,3.028,2.95,2.95,0,0,1-2.813,2.628,18.092,18.092,0,0,1-2.1-.005c-.768-.066-.963.257-.925.967.051.944,0,1.894.015,2.84.043,2.311-.452,2.034,2.159,2.076.61.01.822-.222.764-.8-.028-.278.042-.571-.013-.84-.2-.98.254-1.313,1.167-1.485a5.473,5.473,0,0,0,4.55-5.6c.266-2.616-2.144-5.4-5.3-5.776-2.942-.35-5.985,2.052-6.1,4.794" transform="translate(-148.407 -8.619)" fill="#efefef"/>
        <path id="Trazado_622731" data-name="Trazado 622731" d="M217.906,73.6c-1.513,0-1.522,0-1.512,1.288.014,1.825-.22,1.639,1.362,1.637,1.748,0,1.556.217,1.555-1.329,0-1.772.229-1.577-1.405-1.6" transform="translate(-155.559 -52.91)" fill="#edeeef"/>
      </g>
    </g>
  </g>
</svg>
