<svg id="Grupo_888186" data-name="Grupo 888186" xmlns="http://www.w3.org/2000/svg" xmlns:xlink="http://www.w3.org/1999/xlink" width="88" height="89.402" viewBox="0 0 88 89.402">
  <defs>
    <clipPath id="clip-path">
      <rect id="Rectángulo_326662" data-name="Rectángulo 326662" width="88" height="89.403" fill="none"/>
    </clipPath>
  </defs>
  <g id="Grupo_888186-2" data-name="Grupo 888186" clip-path="url(#clip-path)">
    <path id="Trazado_622646" data-name="Trazado 622646" d="M196.705,415.732h.7a5.641,5.641,0,0,0-.7,0" transform="translate(-161.8 -341.952)" fill="#fefefe"/>
    <path id="Trazado_622647" data-name="Trazado 622647" d="M234.214.522c.528.374,1.172.52,1.731.852a9.918,9.918,0,0,1,2.813,14.706,9.653,9.653,0,0,1-4.242,3.1,1.6,1.6,0,0,0-.31.142c1.257.314,1.26.336,1.266,1.675,0,.523-.025,1.048.015,1.569.061.8.5,1.264,1.167,1.251s1.084-.479,1.133-1.29c.04-.667.02-1.337.013-2.006a.976.976,0,0,1,.876-1.086,9.729,9.729,0,0,0,3.979-17.131A9.988,9.988,0,0,0,238.761.435c-.273-.067-.683.038-.727-.435h-2.968c-.1.484-.529.414-.851.522" transform="translate(-192.647)" fill="#d94453"/>
    <path id="Trazado_622648" data-name="Trazado 622648" d="M237.951.435a9.988,9.988,0,0,1,3.894,1.875,9.729,9.729,0,0,1-3.979,17.131.976.976,0,0,0-.876,1.086c.007.668.027,1.338-.013,2.006-.049.811-.472,1.277-1.133,1.29s-1.106-.448-1.167-1.251c-.04-.522-.012-1.046-.015-1.57-.007-1.338-.009-1.361-1.267-1.675a.505.505,0,0,0-.175.189c1.023.038,1.375.564,1.21,1.558a7.463,7.463,0,0,0-.009,1.481,1.412,1.412,0,0,0,1.42,1.54c.826-.009,1.36-.6,1.391-1.569a10.484,10.484,0,0,0-.009-1.656c-.1-.8.18-1.1.979-1.315a9.494,9.494,0,0,0,7.48-8.411,9.56,9.56,0,0,0-4.234-9.427A12.06,12.06,0,0,0,237.224,0c.044.472.454.367.727.435" transform="translate(-191.837)" fill="#d94453"/>
    <path id="Trazado_622649" data-name="Trazado 622649" d="M233.384.522c.323-.108.75-.039.851-.522-.28.307-.731.144-1.038.378a2.276,2.276,0,0,0,.186.145" transform="translate(-191.817)" fill="#d94453"/>
    <path id="Trazado_622650" data-name="Trazado 622650" d="M164.547,427.472a19.758,19.758,0,0,1-.007-3.309,8.389,8.389,0,0,0-6.207-8.365c-.1-.023-.186-.1-.252-.313h4.212a1.648,1.648,0,0,0-.926-.123c-1.553-.009-3.106-.01-4.658-.013h0a3.818,3.818,0,0,0-2.185,1.742,2.07,2.07,0,0,1-2.948.669,5.217,5.217,0,0,0-5.193.007,1.99,1.99,0,0,1-2.92-.708,3.535,3.535,0,0,0-2.863-1.633h-.7c-.085.005-.17.011-.257.02-1.41.138-2.844.025-4.268.022h0a8.534,8.534,0,0,0-7.569,7.308,30.036,30.036,0,0,0-.113,4.962c-.02,2.2,1.115,3.308,3.334,3.309q10.254,0,20.507,0,5.54,0,11.081-.026a3.319,3.319,0,0,0,1.931-3.547m-15.5-2.156a1.389,1.389,0,0,1-1.444-1.408,1.514,1.514,0,0,1,1.432-1.374,1.4,1.4,0,0,1,1.363,1.4,1.33,1.33,0,0,1-1.351,1.378" transform="translate(-104.995 -341.645)" fill="#5d9beb"/>
    <path id="Trazado_622651" data-name="Trazado 622651" d="M172.411,264.1a20.091,20.091,0,0,0,5.186-2.125,16.162,16.162,0,0,0,5.246-5.448,16.725,16.725,0,0,0,2.132-8.731q-.009-4.139-.005-8.278c-1.688.507-3.321,1.179-5.052,1.561a22.53,22.53,0,0,1-14.361-1.513c-1.56-.7-2.482-.528-3.471.749a33.419,33.419,0,0,1-2.378,2.52l-.254-.1v-7.6a1.194,1.194,0,0,0-.146.838c.01,2.81-.028,5.618.138,8.428.123,2.083-.172,4.207.1,6.263a15.223,15.223,0,0,0,5.41,9.98,34.542,34.542,0,0,0,3.081,2.1h0a18.043,18.043,0,0,0,4.378,1.368" transform="translate(-131.032 -193.404)" fill="#e9c5ba"/>
    <path id="Trazado_622652" data-name="Trazado 622652" d="M263.6,168.2l0,0v0h0" transform="translate(-216.819 -138.349)" fill="#955353"/>
    <path id="Trazado_622653" data-name="Trazado 622653" d="M160.434,180.995c.012,1.685,0,3.369.01,5.054a1.422,1.422,0,0,0,.133.915c.946-.882,1.853-1.771,2.711-2.7a1.607,1.607,0,0,1,2.137-.446,25.792,25.792,0,0,0,8.192,2.275,22.729,22.729,0,0,0,9.114-1.017q1-.309,1.973-.691a1.177,1.177,0,0,1,1-.113c.007.009.012.017.018.026l.158-.14h0c-.387-.521-.151-1.117-.185-1.677a6.3,6.3,0,0,0-.79-3.061,6.056,6.056,0,0,0-5.1-2.775c-1.251-.078-1.273-.046-1.274-1.275q0-3.651-.01-7.3h0l0,0c-2.034,0-4.069-.063-6.1,0a12.69,12.69,0,0,0-12.251,11.876c.342.287.263.688.266,1.054" transform="translate(-131.746 -138.218)" fill="#955353"/>
    <path id="Trazado_622654" data-name="Trazado 622654" d="M160.422,242.837a33.379,33.379,0,0,0,2.378-2.52c.989-1.277,1.91-1.448,3.471-.749a22.528,22.528,0,0,0,14.361,1.513c1.731-.382,3.364-1.053,5.052-1.561l.041-.036c-.007-.009-.011-.018-.018-.026a1.177,1.177,0,0,0-1,.112q-.974.383-1.974.691a22.732,22.732,0,0,1-9.114,1.017A25.8,25.8,0,0,1,165.424,239a1.607,1.607,0,0,0-2.137.446c-.858.931-1.765,1.821-2.711,2.7a1.424,1.424,0,0,1-.133-.915c-.009-1.685,0-3.369-.01-5.054,0-.366.076-.767-.266-1.054q0,3.8,0,7.6l.254.1" transform="translate(-131.746 -193.405)" fill="#955353"/>
    <path id="Trazado_622655" data-name="Trazado 622655" d="M58.116,79.5c.935-.729,2.116-1.029,3.032-1.811a9.872,9.872,0,0,0,3.659-6.763,9.73,9.73,0,0,0-3.291-8.465,8.552,8.552,0,0,0-2.712-1.7c-.264-.105-.583-.127-.645-.492A9.953,9.953,0,0,0,58.116,79.5m3.991-5.244a1.471,1.471,0,0,1-1.485,1.3A1.387,1.387,0,0,1,59.337,74a1.315,1.315,0,0,1,1.491-1.226,1.391,1.391,0,0,1,1.279,1.479m-2.762-8.97a1.2,1.2,0,0,1,1.4-1.028,1.26,1.26,0,0,1,1.278,1.286c.035.755.008,1.512.007,2.268,0,.727.029,1.456-.008,2.181a1.226,1.226,0,0,1-1.2,1.26,1.21,1.21,0,0,1-1.488-1.021,18.056,18.056,0,0,1,.006-4.946" transform="translate(-41.753 -49.573)" fill="#ec5565"/>
    <path id="Trazado_622656" data-name="Trazado 622656" d="M14.149,211.822a9.918,9.918,0,0,0-6.419-9.577.7.7,0,0,1-.4-.311c-.246.08-.5.153-.739.24a9.9,9.9,0,0,0,.737,18.9c.572-.562,1.4-.619,2.048-1.061a9.962,9.962,0,0,0,4.771-8.191m-5.614-4.47A1.348,1.348,0,0,1,9.9,205.876a1.37,1.37,0,0,1,1.437,1.494c.023.665,0,1.332,0,2,0,.7.023,1.391-.006,2.085a1.376,1.376,0,0,1-1.41,1.442,1.351,1.351,0,0,1-1.384-1.46q-.043-2.041,0-4.084m.016,8.432a1.479,1.479,0,0,1,1.37-1.431,1.392,1.392,0,0,1,1.435,1.422,1.349,1.349,0,0,1-1.383,1.362,1.413,1.413,0,0,1-1.422-1.352" transform="translate(0 -166.1)" fill="#ec5565"/>
    <path id="Trazado_622657" data-name="Trazado 622657" d="M337.238,77.849a13.165,13.165,0,0,0,3.446,1.6c.167-.273.468-.308.728-.43a9.923,9.923,0,0,0-.254-18.427c-.172-.073-.447-.047-.272-.368-.436.144-.879.268-1.306.435a9.948,9.948,0,0,0-6.088,10.857,13.748,13.748,0,0,0,1.792,4.38l1.954,1.957m6.084-2.321a1.414,1.414,0,0,1-1.393-1.388,1.358,1.358,0,0,1,1.344-1.407,1.39,1.39,0,0,1,1.454,1.4,1.47,1.47,0,0,1-1.405,1.391m-1.434-9.758c.016-.982.549-1.557,1.383-1.566a1.451,1.451,0,0,1,1.432,1.55c.037.667.007,1.338.008,2.007,0,.64.024,1.281,0,1.92-.044.976-.585,1.547-1.418,1.549-.865,0-1.377-.531-1.4-1.533q-.037-1.964,0-3.928" transform="translate(-274.2 -49.535)" fill="#ec5565"/>
    <path id="Trazado_622658" data-name="Trazado 622658" d="M395.18,218.251a9.86,9.86,0,0,0-3.8-15.99.715.715,0,0,1-.4-.309,9.741,9.741,0,0,0-7.182,8.133,5.941,5.941,0,0,0,0,2.875,9.8,9.8,0,0,0,7.184,8.125,14.8,14.8,0,0,0,4.2-2.835M392.2,207.328a1.4,1.4,0,1,1,2.8.02c.026.694.005,1.39.005,2.085h-.006c0,.695.027,1.391-.007,2.084a1.393,1.393,0,1,1-2.787-.019q-.047-2.084,0-4.169m1.464,9.829a1.406,1.406,0,0,1-1.441-1.329,1.467,1.467,0,0,1,1.342-1.452,1.4,1.4,0,0,1,1.456,1.4,1.325,1.325,0,0,1-1.357,1.381" transform="translate(-315.546 -166.117)" fill="#ec5565"/>
    <path id="Trazado_622659" data-name="Trazado 622659" d="M201.051,21.462a9.693,9.693,0,0,0,.028-17.706c-.3-.132-.682-.177-.832-.508a9.82,9.82,0,0,0-7.175,9.52,9.815,9.815,0,0,0,7.167,9.193c.131-.335.532-.363.813-.5m1.827-3.225a1.4,1.4,0,0,1-1.452-1.411,1.484,1.484,0,0,1,1.419-1.381,1.392,1.392,0,0,1,1.375,1.4,1.342,1.342,0,0,1-1.342,1.4M201.4,8.34a1.417,1.417,0,0,1,1.378-1.4A1.4,1.4,0,0,1,204.19,8.3c.033,1.449.034,2.9,0,4.349a1.384,1.384,0,0,1-1.413,1.359A1.435,1.435,0,0,1,201.4,12.6c0-.058-.005-.116-.005-.174q0-1,0-2h0c0-.7-.024-1.393.006-2.088" transform="translate(-158.809 -2.672)" fill="#ec5565"/>
    <path id="Trazado_622660" data-name="Trazado 622660" d="M192.122,11.847a9.82,9.82,0,0,1,7.175-9.52.7.7,0,0,1-.056-.2,9.911,9.911,0,0,0,0,19.138.665.665,0,0,1,.044-.226,9.815,9.815,0,0,1-7.167-9.193" transform="translate(-157.86 -1.751)" fill="#ec5565"/>
    <path id="Trazado_622661" data-name="Trazado 622661" d="M233.477,3c.151.331.536.377.832.508a9.693,9.693,0,0,1-.028,17.706c-.281.136-.682.164-.813.5l.071.022.06.015a1.6,1.6,0,0,1,.31-.142,9.652,9.652,0,0,0,4.242-3.1A9.918,9.918,0,0,0,235.338,3.8c-.558-.332-1.2-.478-1.731-.852a.649.649,0,0,0-.113.048L233.477,3" transform="translate(-192.04 -2.422)" fill="#ec5565"/>
    <path id="Trazado_622662" data-name="Trazado 622662" d="M233.273,2.322a.664.664,0,0,1,.113-.048,2.179,2.179,0,0,1-.186-.145.7.7,0,0,0,.056.2l.018-.006" transform="translate(-191.818 -1.751)" fill="#ec5565"/>
    <path id="Trazado_622663" data-name="Trazado 622663" d="M233.4,108.74l-.06-.015-.071-.022a.667.667,0,0,0-.044.227.5.5,0,0,1,.175-.189" transform="translate(-191.836 -89.414)" fill="#ec5565"/>
    <path id="Trazado_622664" data-name="Trazado 622664" d="M250.188,241.459c-.649-.733-1.272-1.141-2.177-.559-.023.11-.07.2-.193.212a1.654,1.654,0,0,1,.177,1.021c.006,2.7.036,5.4,0,8.1a15.868,15.868,0,0,1-12.367,15.529,15.31,15.31,0,0,0,8.687-1.22c.208-.095.429-.163.644-.244h0c.338-.221.669-.453,1.014-.663a15.375,15.375,0,0,0,3.927-3.4,16.079,16.079,0,0,0,3.586-10.216c.07-4.1.041-8.2.054-12.295a.861.861,0,0,0-.166-.657v7.643c-1.181-1.2-2.233-2.178-3.182-3.249" transform="translate(-193.814 -194.999)" fill="#d2b0a8"/>
    <path id="Trazado_622665" data-name="Trazado 622665" d="M245.989,268.991c.039-2.7.01-5.4,0-8.1a1.655,1.655,0,0,0-.177-1.021.344.344,0,0,1-.066,0q0,4.139.005,8.278a16.725,16.725,0,0,1-2.132,8.731,16.163,16.163,0,0,1-5.246,5.448,20.1,20.1,0,0,1-5.186,2.125c.144.024.288.045.432.065a15.868,15.868,0,0,0,12.367-15.529" transform="translate(-191.811 -213.756)" fill="#d2b0a8"/>
    <path id="Trazado_622666" data-name="Trazado 622666" d="M304.416,258.674c-.02.013-.04.024-.06.037h0l-.158.14c.009.012.017.023.025.035.123-.015.17-.1.193-.212" transform="translate(-250.218 -212.773)" fill="#d2b0a8"/>
    <path id="Trazado_622667" data-name="Trazado 622667" d="M304.007,259.673l-.041.037a.349.349,0,0,0,.066,0c-.008-.012-.016-.023-.025-.035" transform="translate(-250.028 -213.594)" fill="#d2b0a8"/>
    <path id="Trazado_622668" data-name="Trazado 622668" d="M98.918,66.094a9.995,9.995,0,0,1-6.706,11.985,10.03,10.03,0,0,0,6.295-.367c.808-.31,1.566-1.249,2.254-1.072.754.194,1.292,1.182,1.955,1.79a1.414,1.414,0,1,0,1.982-2.007,17.994,17.994,0,0,0-1.482-1.475c-.4-.347-.426-.612-.122-1.056a9.383,9.383,0,0,0,1.491-6.979A9.909,9.909,0,0,0,92.255,58.85a9.957,9.957,0,0,1,6.662,7.244" transform="translate(-75.849 -48.156)" fill="#d94453"/>
    <path id="Trazado_622669" data-name="Trazado 622669" d="M92.9,60.759a8.552,8.552,0,0,1,2.712,1.7A9.73,9.73,0,0,1,98.9,70.921a9.871,9.871,0,0,1-3.659,6.763c-.916.782-2.1,1.082-3.032,1.811a10.118,10.118,0,0,0,.043-19.228c.062.365.381.387.645.492" transform="translate(-75.849 -49.573)" fill="#d94453"/>
    <path id="Trazado_622670" data-name="Trazado 622670" d="M58.07,209.653a1.375,1.375,0,0,0-1.411-1.364c-.726-.032-1.455-.032-2.181,0-.5.021-.707-.084-.838-.665a9.9,9.9,0,0,0-12.329-7.51A10.089,10.089,0,0,1,43.1,218.6a6.631,6.631,0,0,1-1.787.656,6.438,6.438,0,0,0,1.958.369A9.892,9.892,0,0,0,53.672,211.6c.1-.421.245-.515.618-.509.785.013,1.572.024,2.356-.008a1.354,1.354,0,0,0,1.424-1.43" transform="translate(-33.978 -164.28)" fill="#d94453"/>
    <path id="Trazado_622671" data-name="Trazado 622671" d="M48.352,211.034a10.047,10.047,0,0,0-7.041-9.1.7.7,0,0,0,.4.311,9.923,9.923,0,0,1,1.648,17.768c-.652.442-1.476.5-2.048,1.061a6.637,6.637,0,0,0,1.787-.656,10.127,10.127,0,0,0,5.256-9.384" transform="translate(-33.979 -166.1)" fill="#d94453"/>
    <path id="Trazado_622672" data-name="Trazado 622672" d="M263.862,169.307c.011,2,0,4,.008,6.007.005,1,.1,1.094,1.079,1.16a7.755,7.755,0,0,1,2.282.515,5.586,5.586,0,0,1,3.786,5.411c.026.579.025,1.16.022,1.741,0,.016,0,.032-.007.048.746-.713,1.113-.724,1.831-.026,1.1,1.075,2.187,2.171,3.265,3.262-.009-1.944-.01-3.923,0-5.9,0-.393-.1-.826.258-1.146a6.884,6.884,0,0,0-5.878-6.448c-.942-.132-1.192-.445-1.168-1.379a20.63,20.63,0,0,0-.089-4.4l-5.644.011c.333.326.253.752.255,1.146" transform="translate(-216.83 -138.312)" fill="#844747"/>
    <path id="Trazado_622673" data-name="Trazado 622673" d="M263.593,168.2" transform="translate(-216.819 -138.349)" fill="#844747"/>
    <path id="Trazado_622674" data-name="Trazado 622674" d="M271.028,184.193c0-.58,0-1.162-.023-1.74a5.586,5.586,0,0,0-3.786-5.411,7.756,7.756,0,0,0-2.282-.515c-.982-.067-1.074-.162-1.079-1.16-.011-2,0-4-.008-6.007,0-.394.078-.82-.255-1.146h0q.005,3.651.01,7.3c0,1.23.023,1.2,1.274,1.275a6.055,6.055,0,0,1,5.1,2.775,6.3,6.3,0,0,1,.79,3.061c.034.559-.2,1.155.185,1.677h0l.064-.061c0-.016.005-.032.007-.048" transform="translate(-216.819 -138.363)" fill="#844747"/>
    <path id="Trazado_622675" data-name="Trazado 622675" d="M263.578,168.2h0v0l0,0h0" transform="translate(-216.806 -138.349)" fill="#844747"/>
    <path id="Trazado_622676" data-name="Trazado 622676" d="M310.526,238.212c-.011,1.978-.01,3.956,0,5.9-1.078-1.091-2.161-2.187-3.265-3.262-.717-.7-1.085-.687-1.831.026,0,.008,0,.016,0,.024.9-.582,1.527-.174,2.177.559.949,1.072,2,2.053,3.182,3.249v-7.642c-.358.32-.256.752-.258,1.146" transform="translate(-251.228 -194.999)" fill="#844747"/>
    <path id="Trazado_622677" data-name="Trazado 622677" d="M305.153,258.539l-.064.061c.02-.014.04-.024.06-.037l0-.024" transform="translate(-250.951 -212.662)" fill="#844747"/>
    <path id="Trazado_622678" data-name="Trazado 622678" d="M425.086,200.172a9.972,9.972,0,0,1,7.042,9.007,10.1,10.1,0,0,1-5.259,9.47,4.773,4.773,0,0,1-1.784.656,13.388,13.388,0,0,0,1.7.355,9.943,9.943,0,1,0-1.693-19.489" transform="translate(-349.653 -164.336)" fill="#d94453"/>
    <path id="Trazado_622679" data-name="Trazado 622679" d="M432.129,210.96a9.972,9.972,0,0,0-7.042-9.007.715.715,0,0,0,.4.309,9.86,9.86,0,0,1,3.8,15.99,14.8,14.8,0,0,1-4.2,2.835,4.771,4.771,0,0,0,1.784-.656,10.1,10.1,0,0,0,5.259-9.47" transform="translate(-349.654 -166.117)" fill="#d94453"/>
    <path id="Trazado_622680" data-name="Trazado 622680" d="M380.293,63.156a10.1,10.1,0,0,1-1.325,12.093,8.92,8.92,0,0,1-4.3,2.682,8.688,8.688,0,0,0,4.288.225,9.944,9.944,0,1,0-4.086-19.449,11.023,11.023,0,0,1,5.421,4.449" transform="translate(-308.185 -48.021)" fill="#d94453"/>
    <path id="Trazado_622681" data-name="Trazado 622681" d="M375.143,60.589a9.947,9.947,0,0,1,.254,18.427c-.26.122-.561.157-.728.429a8.918,8.918,0,0,0,4.3-2.682,10.1,10.1,0,0,0,1.325-12.093,11.023,11.023,0,0,0-5.421-4.449c-.175.32.1.294.272.368" transform="translate(-308.184 -49.535)" fill="#d94453"/>
    <path id="Trazado_622682" data-name="Trazado 622682" d="M307.583,416.115c-.531.454-1.169.226-1.759.254a7.626,7.626,0,0,1-1.544-.01,8.307,8.307,0,0,1,4.384,3.443,8.181,8.181,0,0,1,1.4,4.951c-.052,1.366.006,2.735-.016,4.1a2.721,2.721,0,0,1-2.147,2.794c1.624.009,3.249.033,4.873.022a2.792,2.792,0,0,0,2.794-2.83q.026-2.306,0-4.613a8.515,8.515,0,0,0-7.991-8.114" transform="translate(-250.286 -342.276)" fill="#4a88db"/>
    <path id="Trazado_622683" data-name="Trazado 622683" d="M305.839,428.856c.022-1.367-.036-2.737.016-4.1a8.182,8.182,0,0,0-1.405-4.951,8.308,8.308,0,0,0-4.384-3.443,7.6,7.6,0,0,0,1.544.01c.59-.028,1.228.2,1.759-.254h-4.212c.065.213.152.29.252.313a8.389,8.389,0,0,1,6.207,8.365,19.721,19.721,0,0,0,.007,3.309,3.32,3.32,0,0,1-1.931,3.547,2.72,2.72,0,0,0,2.147-2.794" transform="translate(-246.072 -342.276)" fill="#4a88db"/>
    <path id="Trazado_622684" data-name="Trazado 622684" d="M175.733,395.012a5.635,5.635,0,0,1,.7,0c.377,0,.754,0,1.131-.013a1.133,1.133,0,0,1,.827.416c.526.5,1.051,1,1.539,1.54a1.259,1.259,0,0,0,1.55.383c.784-.3,1.6-.523,2.39-.815a2.555,2.555,0,0,1,1.865-.009c.734.274,1.507.451,2.224.76a1.448,1.448,0,0,0,1.91-.477c.291-.359.668-.647.975-.995a2.061,2.061,0,0,1,1.7-.867h0c-.371,0-.575-.133-.57-.558.017-1.282,0-2.564,0-3.846h0a3.544,3.544,0,0,1-1.164.734,16.155,16.155,0,0,1-7.6,1.089,1.331,1.331,0,0,1-.887-.292l-.086.018a8.034,8.034,0,0,1-4.408-1.52,1.68,1.68,0,0,0-.172.926c.006.9-.027,1.8.012,2.7.025.579-.192.755-.754.74q-1.87-.049-3.741,0a4.647,4.647,0,0,0-1.965.129c1.508-.077,3.016-.048,4.524-.042" transform="translate(-140.828 -321.232)" fill="#f4f6f9"/>
    <path id="Trazado_622685" data-name="Trazado 622685" d="M175.476,415.755c.087-.008.172-.014.257-.02-1.508-.006-3.017-.035-4.524.042h0c1.423,0,2.858.115,4.268-.022" transform="translate(-140.827 -341.955)" fill="#f4f6f9"/>
    <path id="Trazado_622686" data-name="Trazado 622686" d="M215.046,416.2c-.306.348-.684.636-.975.995a1.448,1.448,0,0,1-1.91.477c-.718-.309-1.49-.486-2.224-.76a2.555,2.555,0,0,0-1.865.009c-.789.292-1.606.511-2.39.815a1.259,1.259,0,0,1-1.55-.383c-.488-.536-1.013-1.04-1.539-1.54a1.133,1.133,0,0,0-.827-.416c-.377.009-.754.012-1.131.013a3.535,3.535,0,0,1,2.863,1.633,1.99,1.99,0,0,0,2.92.708,5.217,5.217,0,0,1,5.193-.007,2.07,2.07,0,0,0,2.948-.669,3.818,3.818,0,0,1,2.185-1.742,2.061,2.061,0,0,0-1.7.867" transform="translate(-165.032 -341.631)" fill="#f4f6f9"/>
    <path id="Trazado_622687" data-name="Trazado 622687" d="M213.012,392.2a.884.884,0,0,1-.116-.133,18.043,18.043,0,0,1-4.378-1.368h0a8.033,8.033,0,0,0,4.408,1.52l.086-.018" transform="translate(-171.517 -321.372)" fill="#f4f6f9"/>
    <path id="Trazado_622688" data-name="Trazado 622688" d="M234.16,392c-.105.023-.21.047-.316.068a1.331,1.331,0,0,0,.887.292,16.152,16.152,0,0,0,7.6-1.089,3.539,3.539,0,0,0,1.164-.734c-.215.081-.435.149-.644.244A15.31,15.31,0,0,1,234.16,392" transform="translate(-192.349 -321.233)" fill="#f4f6f9"/>
    <path id="Trazado_622689" data-name="Trazado 622689" d="M233.19,398.41a.884.884,0,0,0,.116.133c.106-.021.211-.045.316-.068-.144-.021-.288-.041-.432-.065" transform="translate(-191.811 -327.713)" fill="#f4f6f9"/>
    <path id="Trazado_622690" data-name="Trazado 622690" d="M332.922,152.477c.678-.632,1.3-1.322,1.95-1.987a4.338,4.338,0,0,1-1.954-1.957c-.664.649-1.354,1.274-1.986,1.952a1.409,1.409,0,1,0,1.99,1.992" transform="translate(-271.833 -122.176)" fill="#d94453"/>
    <path id="Trazado_622691" data-name="Trazado 622691" d="M346.191,150.491l-1.954-1.957a4.338,4.338,0,0,0,1.954,1.957" transform="translate(-283.153 -122.177)" fill="#d94453"/>
    <path id="Trazado_622692" data-name="Trazado 622692" d="M364.4,247.788c-.955.011-1.911.006-2.866.036a1.39,1.39,0,0,0-1.5,1.446,1.37,1.37,0,0,0,1.493,1.356c.955.03,1.911.026,2.866.037a2.541,2.541,0,0,1,0-2.875" transform="translate(-296.145 -203.818)" fill="#d94453"/>
    <path id="Trazado_622693" data-name="Trazado 622693" d="M382.548,247.788a2.541,2.541,0,0,0,0,2.875h0a5.941,5.941,0,0,1,0-2.875" transform="translate(-314.297 -203.818)" fill="#d94453"/>
    <path id="Trazado_622694" data-name="Trazado 622694" d="M269.25,167.559a30.1,30.1,0,0,0-5.645.01h0a46.69,46.69,0,0,1,5.645-.011" transform="translate(-216.829 -137.721)" fill="#955353"/>
    <path id="Trazado_622695" data-name="Trazado 622695" d="M263.578,168.211h0" transform="translate(-216.806 -138.362)" fill="#955353"/>
    <path id="Trazado_622696" data-name="Trazado 622696" d="M263.593,168.21h0Z" transform="translate(-216.819 -138.361)" fill="#955353"/>
    <path id="Trazado_622697" data-name="Trazado 622697" d="M263.606,167.789h0l5.644-.011a46.7,46.7,0,0,0-5.645.011" transform="translate(-216.829 -137.941)" fill="#955353"/>
    <path id="Trazado_622698" data-name="Trazado 622698" d="M263.6,168.21h0" transform="translate(-216.819 -138.361)" fill="#955353"/>
    <path id="Trazado_622699" data-name="Trazado 622699" d="M263.583,168.21h0Z" transform="translate(-216.809 -138.361)" fill="#955353"/>
    <path id="Trazado_622700" data-name="Trazado 622700" d="M241.56,455.842a1.514,1.514,0,0,0-1.432,1.374,1.389,1.389,0,0,0,1.444,1.408,1.33,1.33,0,0,0,1.351-1.378,1.4,1.4,0,0,0-1.363-1.4" transform="translate(-197.517 -374.953)" fill="#f3f6f9"/>
    <path id="Trazado_622701" data-name="Trazado 622701" d="M99.814,89.7a1.226,1.226,0,0,0,1.2-1.26c.037-.725.008-1.454.009-2.181,0-.756.028-1.514-.007-2.268a1.261,1.261,0,0,0-1.278-1.286,1.2,1.2,0,0,0-1.4,1.028,18.055,18.055,0,0,0-.006,4.946A1.21,1.21,0,0,0,99.814,89.7" transform="translate(-80.741 -68.026)" fill="#f4f6f9"/>
    <path id="Trazado_622702" data-name="Trazado 622702" d="M100.551,130.72a1.315,1.315,0,0,0-1.491,1.226,1.387,1.387,0,0,0,1.285,1.556,1.471,1.471,0,0,0,1.486-1.3,1.391,1.391,0,0,0-1.279-1.479" transform="translate(-81.477 -107.519)" fill="#f4f5f8"/>
    <path id="Trazado_622703" data-name="Trazado 622703" d="M49.407,231.171a1.376,1.376,0,0,0,1.41-1.442c.029-.694.006-1.39.006-2.085,0-.666.019-1.333,0-2a1.369,1.369,0,0,0-1.437-1.494,1.348,1.348,0,0,0-1.363,1.476c-.024,1.361-.025,2.723,0,4.084a1.351,1.351,0,0,0,1.384,1.46" transform="translate(-39.483 -184.375)" fill="#f4f6f9"/>
    <path id="Trazado_622704" data-name="Trazado 622704" d="M51,273.342a1.392,1.392,0,0,0-1.435-1.422,1.478,1.478,0,0,0-1.37,1.431,1.413,1.413,0,0,0,1.422,1.352A1.349,1.349,0,0,0,51,273.342" transform="translate(-39.639 -223.668)" fill="#f4f5f8"/>
    <path id="Trazado_622705" data-name="Trazado 622705" d="M382.786,89.694c.833,0,1.374-.574,1.418-1.549.029-.639.005-1.28,0-1.921,0-.669.03-1.34-.008-2.007a1.451,1.451,0,0,0-1.432-1.55c-.834.01-1.366.584-1.383,1.567q-.033,1.964,0,3.928c.019,1,.53,1.535,1.4,1.533" transform="translate(-313.697 -67.997)" fill="#f4f6f9"/>
    <path id="Trazado_622706" data-name="Trazado 622706" d="M383.026,130.735a1.358,1.358,0,0,0-1.344,1.407,1.414,1.414,0,0,0,1.394,1.388,1.47,1.47,0,0,0,1.4-1.391,1.39,1.39,0,0,0-1.454-1.4" transform="translate(-313.953 -107.536)" fill="#f4f5f8"/>
    <path id="Trazado_622707" data-name="Trazado 622707" d="M433.284,231.194a1.348,1.348,0,0,0,1.356-1.4c.034-.693.007-1.389.007-2.084h.006c0-.7.021-1.391-.005-2.085a1.4,1.4,0,1,0-2.8-.019q-.044,2.084,0,4.169a1.36,1.36,0,0,0,1.431,1.416" transform="translate(-355.202 -184.397)" fill="#f4f6f9"/>
    <path id="Trazado_622708" data-name="Trazado 622708" d="M433.419,271.951a1.468,1.468,0,0,0-1.342,1.452,1.406,1.406,0,0,0,1.441,1.328,1.325,1.325,0,0,0,1.357-1.381,1.4,1.4,0,0,0-1.456-1.4" transform="translate(-355.405 -223.692)" fill="#f4f5f8"/>
    <path id="Trazado_622709" data-name="Trazado 622709" d="M239.957,27.525q0,1,0,2c0,.058,0,.116.005.174a1.435,1.435,0,0,0,1.375,1.409,1.384,1.384,0,0,0,1.413-1.359c.039-1.449.036-2.9,0-4.349a1.4,1.4,0,0,0-1.409-1.368,1.416,1.416,0,0,0-1.378,1.4c-.03.695-.006,1.392-.006,2.088Z" transform="translate(-197.373 -19.768)" fill="#f4f6f9"/>
    <path id="Trazado_622710" data-name="Trazado 622710" d="M241.582,71.979a1.485,1.485,0,0,0-1.419,1.381,1.4,1.4,0,0,0,1.452,1.411,1.342,1.342,0,0,0,1.342-1.4,1.392,1.392,0,0,0-1.375-1.4" transform="translate(-197.547 -59.207)" fill="#f4f5f8"/>
  </g>
</svg>
