<svg id="Grupo_888182" data-name="Grupo 888182" xmlns="http://www.w3.org/2000/svg" xmlns:xlink="http://www.w3.org/1999/xlink" width="89.546" height="89.749" viewBox="0 0 89.546 89.749">
  <defs>
    <clipPath id="clip-path">
      <rect id="Rectángulo_326658" data-name="Rectángulo 326658" width="89.546" height="89.749" fill="none"/>
    </clipPath>
  </defs>
  <g id="Grupo_888182-2" data-name="Grupo 888182" clip-path="url(#clip-path)">
    <path id="Trazado_622562" data-name="Trazado 622562" d="M246.839,97.795c-.353-2.069-1.078-3.763-3.244-4.463-.381.522-1.03.685-1.481,1.148a3.685,3.685,0,0,0-1.143,2.814c.088,1.758.325,3.508.491,5.262.151,1.6.282,3.2.439,4.8.231,2.348.433,4.7.729,7.04a8.95,8.95,0,0,1-1.561,6.095c-2.071,3.286-4.033,6.641-6.045,9.964a4.015,4.015,0,0,1-2.744,2.141,1.712,1.712,0,0,1-1.413-.269c-1.667.55-2.952.278-3.82-.911a2.98,2.98,0,0,1-.015-3.853c.3-.407.543-.852.814-1.279,1.728-2.721,3.539-5.394,5.16-8.177a4.187,4.187,0,0,0-2.718-6.12c.023.089.082.246.062.257-1.878,1.02-2.574,2.989-3.628,4.636-3.134,4.895-6.167,9.854-9.238,14.789-2.3,3.7-2.194,7.454-.288,11.263,2.039,4.072,4.064,8.154,5.007,12.656a11.806,11.806,0,0,1,.3,2.912c-.02.49-.182.667-.672.668a1.806,1.806,0,0,1-1.818-1.7c-.028-.332.133-.708-.2-.978-.02,2.429.435,2.882,2.855,2.88,4.119,0,8.238-.058,12.355.022,1.992.039,2.792-.928,2.478-2.933-.264-1.683-.551-3.363-.88-5.034a8.759,8.759,0,0,1,1.2-6.627q5.241-8.312,10.414-16.667a14.668,14.668,0,0,0,2.119-10.2c-1.077-6.727-2.371-13.419-3.516-20.136" transform="translate(-160.996 -69.642)" fill="#feae92"/>
    <path id="Trazado_622563" data-name="Trazado 622563" d="M30.575,148.841c1.044-2.474,2.349-4.829,3.426-7.283a9.863,9.863,0,0,0-.885-9.571c-3.7-5.985-7.447-11.941-11.178-17.908a4.847,4.847,0,0,0-2.01-1.762,3.363,3.363,0,0,1,2.563.177,7.99,7.99,0,0,1,2.471,1.713c-1.2-2.145-4.3-3.6-6.684-1.212a4.135,4.135,0,0,0-.511,5.156c2.009,3.151,4.046,6.285,6.029,9.453a3.035,3.035,0,0,1-1.862,4.718c-1.106.339-1.957-.207-2.86-.643l.4.628a2.571,2.571,0,0,1-3-.613,18.889,18.889,0,0,1-2.533-3.872c-1.834-2.986-3.615-6-5.426-9a7.1,7.1,0,0,1-.637-4.428c.132-1.692.349-3.377.524-5.066.246-2.377.5-4.754.729-7.132.151-1.535.308-3.071.405-4.609.134-2.122-1.1-3.383-2.83-4.293a2.606,2.606,0,0,0-.454.11c-1.886.826-2.3,2.52-2.61,4.323Q2.019,107.1.318,116.47a15.751,15.751,0,0,0,2.035,11.589q5.237,8.383,10.527,16.732a7.747,7.747,0,0,1,1.109,5.716c-.389,2.239-.765,4.486-1.018,6.743-.15,1.331.646,2.074,2,2.077,4.344.008,8.689,0,13.034-.009-.116-3.731,1.157-7.122,2.573-10.477" transform="translate(0 -69.611)" fill="#feae92"/>
    <path id="Trazado_622564" data-name="Trazado 622564" d="M119.36,113.4h0a4.125,4.125,0,0,1-5.227-3.152,4.169,4.169,0,0,1,1.145-3.926,4.968,4.968,0,0,1,3.558-1.517,4,4,0,0,1,2.072.564,1.029,1.029,0,0,0,.974.214h0a1.375,1.375,0,0,0,.174-.439q.038-2.611.043-5.223c0-.5-.407-.39-.7-.392-1.362-.009-2.724,0-4.087-.007-1.231-.008-1.55-.471-1.071-1.6a4.474,4.474,0,0,0,.231-3.059,4.282,4.282,0,0,0-5.552-2.889,4.373,4.373,0,0,0-2.477,5.93c.48,1.1.162,1.609-1.024,1.621-1.109.011-2.218,0-3.326,0-1.2.007-1.434.235-1.434,1.457q0,6.8,0,13.592l2.317,3.721h0a6.066,6.066,0,0,0,2.159.672c4.719.238,9.442.034,14.162.111.525.008.634-.227.629-.69q-.028-2.283,0-4.565a1.13,1.13,0,0,0-.772-1.175l-1.8.752h0" transform="translate(-76.603 -68.43)" fill="#65b8fe"/>
    <path id="Trazado_622565" data-name="Trazado 622565" d="M55.807,19.482c1.173-.022,2.346.006,3.519-.009,1.111-.015,1.4-.494.922-1.519a4.89,4.89,0,0,1-.62-2.738A4.151,4.151,0,0,1,62.8,11.588a4.2,4.2,0,0,1,4.52,1.472,4.479,4.479,0,0,1,.345,4.834c-.572,1.037-.287,1.567.869,1.579,1.268.013,2.536.01,3.8,0,.993-.007,1.315-.319,1.324-1.3.012-1.332-.006-2.663.006-3.995.011-1.161.548-1.458,1.569-.89a4.287,4.287,0,0,0,5.353-.926,4.331,4.331,0,0,0,.159-5.517,4.268,4.268,0,0,0-5.325-1.023c-.986.513-1.554.171-1.566-.964-.013-1.3-.043-2.6.012-3.9C73.9.24,73.725-.018,72.947,0c-2.25.055-4.5.02-6.752.021l-6.467,0c-.095,0-.19,0-.285.006A4.853,4.853,0,0,0,54.6,4.79c-.065,4.5-.021,9-.03,13.507,0,.841.4,1.2,1.233,1.185" transform="translate(-40.717 0)" fill="#46cb6b"/>
    <path id="Trazado_622566" data-name="Trazado 622566" d="M185.211,66.281c-1.535,2.181-.711,4.6,1.235,6.256h0a6.466,6.466,0,0,0,4.118.379,4.28,4.28,0,0,0,2.057-6.064c-.243-.47-.629-.932.019-1.384h0c.226-.432.634-.346,1.005-.347,1.331,0,2.662-.022,3.993.007.529.011.716-.152.713-.7-.022-4.628.019-9.256-.038-13.883a4.8,4.8,0,0,0-4.623-4.665c-4.436-.057-8.873-.016-13.31-.029-.811,0-1.137.372-1.118,1.168.028,1.14,0,2.282.008,3.423.006,1.329.429,1.592,1.621,1.016a4.267,4.267,0,0,1,4.79.538,4.568,4.568,0,0,1,.659,5.818,4.027,4.027,0,0,1-5.348,1.339c-1.22-.568-1.713-.269-1.721,1.053-.006.983,0,1.965,0,2.948,0,1.773,0,1.738,1.795,1.785a14.086,14.086,0,0,1,3.753.155h0a.7.7,0,0,1,.394,1.186" transform="translate(-133.761 -34.212)" fill="#fbb63e"/>
    <path id="Trazado_622567" data-name="Trazado 622567" d="M254.818,173.728c-.007-.124-.012-.249-.017-.374v.393l.017-.019" transform="translate(-190.126 -129.352)" fill="#e73d62"/>
    <path id="Trazado_622568" data-name="Trazado 622568" d="M172.832,140.234a12.472,12.472,0,0,1,1.094-1.764c1.7-1.984,1.949-4.283,1.843-6.788-.131-3.09,0-6.191.016-9.287h0c.005-.251.053-.551-.333-.534a32.516,32.516,0,0,0-5.356.156h0a2.9,2.9,0,0,0,.422,1.8,4.42,4.42,0,0,1-2.628,5.9,5.988,5.988,0,0,1-1.586.193,3.806,3.806,0,0,1-.8-.076,5.283,5.283,0,0,1-1.546-.522,4.551,4.551,0,0,1-1.763-6.06,1.675,1.675,0,0,0,.078-1.6h0c-1.423.005-2.848.06-4.267,0-.786-.036-.948.248-.921.963.051,1.389.016,2.782.014,4.173,0,.483-.005.967-.6,1.136h0a.722.722,0,0,1-.95.066,4.472,4.472,0,0,0-5.508.884,4.272,4.272,0,0,0-.505.7,4.746,4.746,0,0,0-.484,1.751,4.212,4.212,0,0,0,3.476,4.342,4.328,4.328,0,0,0,1.245-.112c.675-.155,1.224-.762,2-.563h0c.88-.2,1.125.334,1.136,1.047.022,1.458.039,2.918-.008,4.375-.02.634.182.806.8.8,3.392-.026,6.784,0,10.176-.016a21.787,21.787,0,0,0,4.079-.158,1.866,1.866,0,0,0,.88-.794" transform="translate(-111.216 -90.763)" fill="#e73d62"/>
    <path id="Trazado_622569" data-name="Trazado 622569" d="M156.949,143.845a4,4,0,0,0-2.072-.564,4.968,4.968,0,0,0-3.558,1.517c-.1.311-.23.609-.358.909a4.24,4.24,0,0,1,.505-.7,4.471,4.471,0,0,1,5.507-.884.722.722,0,0,0,.95-.066,1.029,1.029,0,0,1-.974-.214" transform="translate(-112.643 -106.908)" fill="#e73d62"/>
    <path id="Trazado_622570" data-name="Trazado 622570" d="M163.993,174.648a4.329,4.329,0,0,1-1.245.112,4.37,4.37,0,0,0,.886.06c.187-.006.374.01.562.016h0l1.8-.752c-.774-.2-1.323.409-2,.564" transform="translate(-121.438 -129.868)" fill="#e73d62"/>
    <path id="Trazado_622571" data-name="Trazado 622571" d="M220.8,124.521a4.28,4.28,0,0,1-2.057,6.064,3.675,3.675,0,0,1-1.717.441,5.987,5.987,0,0,0,1.586-.193,4.42,4.42,0,0,0,2.628-5.9,2.9,2.9,0,0,1-.422-1.8c-.648.452-.261.914-.019,1.384" transform="translate(-161.939 -91.882)" fill="#e73d62"/>
    <path id="Trazado_622572" data-name="Trazado 622572" d="M199.315,123.274a4.551,4.551,0,0,0,1.763,6.06,5.291,5.291,0,0,0,1.546.522,3.747,3.747,0,0,1-1.6-.744h0c-1.946-1.654-2.77-4.075-1.235-6.256a.7.7,0,0,0-.394-1.186,1.675,1.675,0,0,1-.078,1.6" transform="translate(-148.336 -90.787)" fill="#e73d62"/>
    <path id="Trazado_622573" data-name="Trazado 622573" d="M212.08,212.117a1.587,1.587,0,0,0,.972,1.407c.629.271.977.06,1-.626a11.664,11.664,0,0,0-.347-2.822,38.688,38.688,0,0,0-2.982-8.3c-.765-1.635-1.6-3.238-2.328-4.888a10.912,10.912,0,0,1,.8-10.782q5.4-8.563,10.726-17.167a7.231,7.231,0,0,1,2.186-2.2,5.2,5.2,0,0,0-4.6,2.034c0,.057,0,.113.008.17a1.629,1.629,0,0,1-.317.972c-.827,1.351-1.688,2.681-2.51,4.035a1.294,1.294,0,0,1-1.136.712c.691.325.005.6-.094.759-2.252,3.67-4.615,7.274-6.8,10.985-2.092,3.557-2.564,7.322-.687,11.151,2.178,4.443,4.614,8.775,5.655,13.687.568.07.413.542.449.869" transform="translate(-152.816 -124.403)" fill="#ed8778"/>
    <path id="Trazado_622574" data-name="Trazado 622574" d="M254.446,129.558c.044,2.478-.064,4.958.046,7.435,0-3.864,0-7.559,0-11.252a2.289,2.289,0,0,0-.1-1.117c.14,1.643.03,3.29.059,4.934" transform="translate(-189.817 -92.991)" fill="#ed8778"/>
    <path id="Trazado_622575" data-name="Trazado 622575" d="M219.3,212.3a1.806,1.806,0,0,0,1.818,1.7c.49,0,.652-.178.672-.668a11.8,11.8,0,0,0-.3-2.912c-.944-4.5-2.968-8.584-5.007-12.656-1.906-3.809-2.013-7.566.288-11.263,3.071-4.935,6.1-9.894,9.238-14.789,1.054-1.647,1.75-3.615,3.628-4.636.02-.011-.04-.168-.062-.257a7.231,7.231,0,0,0-2.186,2.2q-5.345,8.594-10.726,17.166a10.913,10.913,0,0,0-.8,10.782c.724,1.65,1.563,3.253,2.327,4.888a38.709,38.709,0,0,1,2.983,8.3,11.681,11.681,0,0,1,.347,2.822c-.023.686-.372.9-1,.626a1.586,1.586,0,0,1-.972-1.407c-.036-.327.12-.8-.449-.869.333.271.173.647.2.978" transform="translate(-160.281 -124.473)" fill="#ed8778"/>
    <path id="Trazado_622576" data-name="Trazado 622576" d="M240.423,142.543c.822-1.354,1.683-2.684,2.51-4.035a1.629,1.629,0,0,0,.317-.972c0-.057,0-.113-.008-.17l-.017.019v-.392c-.11-2.477,0-4.957-.046-7.435-.029-1.645.081-3.291-.059-4.934h0c-.017,3.1-.147,6.2-.015,9.287.106,2.5-.146,4.8-1.843,6.787a12.532,12.532,0,0,0-1.094,1.764,1.863,1.863,0,0,1-.88.794,1.294,1.294,0,0,0,1.136-.712" transform="translate(-178.55 -92.991)" fill="#ed8778"/>
    <path id="Trazado_622577" data-name="Trazado 622577" d="M88.986,175.058c-.477-.785-1-1.542-1.446-2.344-.135-.241-.346-.473-.176-.786l-1.1-1.546c-.463.108-.675-.271-.952-.506a5.354,5.354,0,0,0-3.157-1.3c2.719,3.3,4.669,7.13,7,10.711,1.815,2.79,3.54,5.638,5.3,8.463a10.845,10.845,0,0,1,.379,11.61,49.911,49.911,0,0,0-4.823,11.863,15.606,15.606,0,0,0-.46,3.287,1.3,1.3,0,0,1-.245.986c1.728.113,2.339-.457,2.53-2.156a21.837,21.837,0,0,1,.633-3.348A56.4,56.4,0,0,1,97.117,199.2a12.6,12.6,0,0,0,1.029-8.555c-.512-2.572-2.077-4.592-3.392-6.746-1.683-2.757-3.382-5.5-5.074-8.253h0c-.368-.035-.533-.325-.694-.59" transform="translate(-61.304 -125.784)" fill="#ed8778"/>
    <path id="Trazado_622578" data-name="Trazado 622578" d="M87.293,210.423a49.911,49.911,0,0,1,4.823-11.863,10.845,10.845,0,0,0-.379-11.61c-1.76-2.825-3.485-5.673-5.3-8.463-2.329-3.58-4.279-7.411-7-10.711a5.353,5.353,0,0,1,3.157,1.3c.277.235.489.614.952.506h0a7.989,7.989,0,0,0-2.47-1.714,3.364,3.364,0,0,0-2.563-.177,4.852,4.852,0,0,1,2.01,1.762c3.73,5.966,7.478,11.922,11.178,17.908a9.863,9.863,0,0,1,.885,9.571c-1.077,2.454-2.382,4.809-3.426,7.283-1.416,3.355-2.689,6.746-2.573,10.477a1.3,1.3,0,0,0,.245-.986,15.624,15.624,0,0,1,.46-3.287" transform="translate(-58.585 -124.989)" fill="#ed8778"/>
    <path id="Trazado_622579" data-name="Trazado 622579" d="M102.661,182.577c.449.8.969,1.56,1.446,2.344.161.265.327.555.694.59l-2.317-3.721c-.17.313.041.545.176.786" transform="translate(-76.425 -135.648)" fill="#ed8778"/>
    <path id="Trazado_622580" data-name="Trazado 622580" d="M29.5,97.264c-.6,5.566-1.055,11.147-1.662,16.713a7.583,7.583,0,0,0,1.146,4.987q3.242,5.2,6.361,10.475c.862,1.451,1.988,2.375,3.749,2.139a6.558,6.558,0,0,1-.3-.623c-.257-.36-.54-.7-.766-1.083-2.245-3.782-4.473-7.575-6.724-11.354a6.213,6.213,0,0,1-1.014-3.7c.344-4.1.794-8.188,1.181-12.283.194-2.048.416-4.1.488-6.15a3.812,3.812,0,0,0-2.922-3.949,5.116,5.116,0,0,0-2.61.129,4.181,4.181,0,0,1,3.073,4.7" transform="translate(-19.721 -68.886)" fill="#ed8778"/>
    <path id="Trazado_622581" data-name="Trazado 622581" d="M29.259,97.582c-.1,1.539-.255,3.074-.405,4.609-.234,2.378-.483,4.755-.729,7.132-.175,1.689-.392,3.374-.524,5.066a7.093,7.093,0,0,0,.637,4.428c1.811,3,3.592,6.018,5.426,9a18.906,18.906,0,0,0,2.533,3.872,2.571,2.571,0,0,0,3,.613l-.4-.628a6.586,6.586,0,0,0,.3.623c-1.762.236-2.888-.688-3.749-2.139q-3.13-5.268-6.361-10.475A7.583,7.583,0,0,1,27.84,114.7c.606-5.566,1.061-11.147,1.662-16.713a4.181,4.181,0,0,0-3.073-4.7c1.735.91,2.964,2.171,2.83,4.293" transform="translate(-19.721 -69.61)" fill="#ed8778"/>
    <path id="Trazado_622582" data-name="Trazado 622582" d="M279.311,129.631c2.079-3.557,4.241-7.065,6.393-10.577a7.849,7.849,0,0,0,1.031-5.192c-.335-3.051-.6-6.11-.893-9.167-.218-2.3-.415-4.6-.691-6.9A4.3,4.3,0,0,1,288,92.825a4.243,4.243,0,0,0-5.359,4.668c.229,1.594.294,3.21.45,4.815.351,3.617.7,7.235,1.075,10.85a9.432,9.432,0,0,1-.94,6.146c-2.136,3.548-4.223,7.125-6.32,10.7a5.423,5.423,0,0,1-1.634,1.818,3.766,3.766,0,0,0,4.039-2.186" transform="translate(-205.401 -69.135)" fill="#ed8778"/>
    <path id="Trazado_622583" data-name="Trazado 622583" d="M276.685,132.594a4.015,4.015,0,0,0,2.745-2.141c2.012-3.323,3.974-6.678,6.045-9.964a8.95,8.95,0,0,0,1.561-6.095c-.3-2.34-.5-4.692-.729-7.041-.157-1.6-.288-3.2-.439-4.8-.166-1.754-.4-3.5-.491-5.262a3.687,3.687,0,0,1,1.143-2.814c.451-.462,1.1-.625,1.481-1.148a4.3,4.3,0,0,0-2.849,4.972c.276,2.294.473,4.6.691,6.9.29,3.056.558,6.115.893,9.167a7.847,7.847,0,0,1-1.031,5.192c-2.153,3.512-4.314,7.021-6.393,10.577a3.766,3.766,0,0,1-4.039,2.186,1.711,1.711,0,0,0,1.413.269" transform="translate(-205.401 -69.642)" fill="#ed8778"/>
    <path id="Trazado_622584" data-name="Trazado 622584" d="M148.576,154.746a4.119,4.119,0,0,1-.237-4.725,6.114,6.114,0,0,1,.42-.744,4.169,4.169,0,0,0-1.146,3.926,4.126,4.126,0,0,0,5.228,3.152,4.034,4.034,0,0,1-4.266-1.609" transform="translate(-110.084 -111.387)" fill="#f6f2f7"/>
    <path id="Trazado_622585" data-name="Trazado 622585" d="M148.991,156.888a3.877,3.877,0,0,0,3.151,2.063,4.211,4.211,0,0,1-3.476-4.342,4.746,4.746,0,0,1,.484-1.751,4.1,4.1,0,0,0-.16,4.03" transform="translate(-110.833 -114.059)" fill="#f6f2f7"/>
    <path id="Trazado_622586" data-name="Trazado 622586" d="M148.867,150.02a4.12,4.12,0,0,0,.236,4.725,4.035,4.035,0,0,0,4.266,1.609c-.188-.006-.375-.023-.562-.017a4.352,4.352,0,0,1-.886-.06,3.877,3.877,0,0,1-3.151-2.063,4.1,4.1,0,0,1,.16-4.03c.128-.3.258-.6.358-.909a6.108,6.108,0,0,0-.42.744" transform="translate(-110.611 -111.386)" fill="#f6f2f7"/>
    <path id="Trazado_622587" data-name="Trazado 622587" d="M211.686,151.367a6.468,6.468,0,0,1-4.118-.379h0a4.583,4.583,0,0,0,4.117.378" transform="translate(-154.882 -112.663)" fill="#fbd9c7"/>
    <path id="Trazado_622588" data-name="Trazado 622588" d="M214.677,154a5.157,5.157,0,0,1-.8-.076,3.8,3.8,0,0,0,.8.076" transform="translate(-159.591 -114.851)" fill="#fbd9c7"/>
    <path id="Trazado_622589" data-name="Trazado 622589" d="M207.571,150.99a3.747,3.747,0,0,0,1.6.744,5.191,5.191,0,0,0,.8.075,3.672,3.672,0,0,0,1.717-.441,4.583,4.583,0,0,1-4.117-.379" transform="translate(-154.884 -112.665)" fill="#fbd9c7"/>
  </g>
</svg>
