<svg xmlns="http://www.w3.org/2000/svg" width="610" height="196" viewBox="0 0 610 196">
  <g id="Grupo_888209" data-name="Grupo 888209" transform="translate(-494.546 -9924.067)">
    <g id="Grupo_888188" data-name="Grupo 888188" transform="translate(0 -1872.933)">
      <path id="Trazado_621904" data-name="Trazado 621904" d="M511.069-895v10.6" transform="translate(288.546 12740.231)" fill="none" stroke="#a3314f" stroke-width="2"/>
      <path id="Trazado_621906" data-name="Trazado 621906" d="M511.069-895v21.192" transform="translate(498.977 12750.231)" fill="none" stroke="#a3314f" stroke-width="2"/>
      <path id="Trazado_622712" data-name="Trazado 622712" d="M511.069-895v21.192" transform="translate(498.977 12819)" fill="none" stroke="#a3314f" stroke-width="2"/>
      <path id="Trazado_621907" data-name="Trazado 621907" d="M511.069-895v21.192" transform="translate(78.477 12750.231)" fill="none" stroke="#a3314f" stroke-width="2"/>
      <path id="Trazado_622713" data-name="Trazado 622713" d="M511.069-895v21.192" transform="translate(78.477 12819)" fill="none" stroke="#a3314f" stroke-width="2"/>
      <path id="Trazado_621905" data-name="Trazado 621905" d="M511.069-895v422.518" transform="translate(1483.538 12366.897) rotate(-90)" fill="none" stroke="#a3314f" stroke-width="2"/>
      <rect id="Rectángulo_326665" data-name="Rectángulo 326665" width="190" height="48" transform="translate(704.546 11797)" fill="#a3314f"/>
      <rect id="Rectángulo_326666" data-name="Rectángulo 326666" width="190" height="48" transform="translate(914.546 11876)" fill="#ffd266"/>
      <rect id="Rectángulo_326668" data-name="Rectángulo 326668" width="190" height="48" transform="translate(914.546 11945)" fill="#fff6e0"/>
      <rect id="Rectángulo_326667" data-name="Rectángulo 326667" width="190" height="48" transform="translate(494.546 11876)" fill="#ffd266"/>
      <rect id="Rectángulo_326669" data-name="Rectángulo 326669" width="190" height="48" transform="translate(494.546 11945)" fill="#fff6e0"/>
      <path id="Trazado_622737" data-name="Trazado 622737" d="M26.676,13.454H21.613v3.428h5.941V19H18.977V6.2h8.561V8.339H21.613v3.05h5.063Zm7.409,2.918a.818.818,0,0,0-.461-.734,5.241,5.241,0,0,0-1.481-.479q-3.393-.712-3.393-2.883a2.613,2.613,0,0,1,1.05-2.114,4.237,4.237,0,0,1,2.747-.848,4.56,4.56,0,0,1,2.9.853,2.687,2.687,0,0,1,1.085,2.215h-2.54a1.229,1.229,0,0,0-.352-.9,1.488,1.488,0,0,0-1.1-.356,1.52,1.52,0,0,0-.993.29.916.916,0,0,0-.352.738.783.783,0,0,0,.4.681,4.114,4.114,0,0,0,1.349.448,11.019,11.019,0,0,1,1.6.426,2.628,2.628,0,0,1,2.013,2.558,2.481,2.481,0,0,1-1.116,2.1,4.815,4.815,0,0,1-2.883.8,5.029,5.029,0,0,1-2.123-.426,3.561,3.561,0,0,1-1.455-1.169,2.716,2.716,0,0,1-.527-1.6h2.408a1.326,1.326,0,0,0,.5,1.037,1.987,1.987,0,0,0,1.248.36,1.839,1.839,0,0,0,1.1-.277A.861.861,0,0,0,34.085,16.372Zm7.146-9.22V9.49h1.626v1.863H41.23V16.1a1.133,1.133,0,0,0,.2.756,1.015,1.015,0,0,0,.773.229,4.051,4.051,0,0,0,.747-.062v1.925a5.229,5.229,0,0,1-1.538.229,2.425,2.425,0,0,1-2.725-2.7V11.354H37.3V9.49H38.69V7.152ZM49.782,19a2.821,2.821,0,0,1-.255-.853,3.073,3.073,0,0,1-2.4,1.028,3.376,3.376,0,0,1-2.316-.809,2.6,2.6,0,0,1-.918-2.039,2.687,2.687,0,0,1,1.121-2.32,5.529,5.529,0,0,1,3.239-.817h1.169v-.545a1.567,1.567,0,0,0-.338-1.055,1.331,1.331,0,0,0-1.068-.4,1.513,1.513,0,0,0-1.006.308,1.045,1.045,0,0,0-.365.844H44.1a2.551,2.551,0,0,1,.51-1.529,3.37,3.37,0,0,1,1.441-1.1,5.253,5.253,0,0,1,2.092-.4,4.15,4.15,0,0,1,2.791.883,3.09,3.09,0,0,1,1.033,2.483V16.8a4.546,4.546,0,0,0,.378,2.048V19Zm-2.1-1.767a2.188,2.188,0,0,0,1.037-.25,1.645,1.645,0,0,0,.7-.672V14.676h-.949q-1.907,0-2.03,1.318l-.009.149a1.017,1.017,0,0,0,.334.782A1.3,1.3,0,0,0,47.682,17.233Zm5.845-3.059a5.731,5.731,0,0,1,1-3.542,3.237,3.237,0,0,1,2.729-1.318,2.913,2.913,0,0,1,2.294,1.037V5.5H62.1V19H59.8l-.123-1.011a2.989,2.989,0,0,1-2.443,1.187,3.228,3.228,0,0,1-2.694-1.323A5.916,5.916,0,0,1,53.526,14.175Zm2.54.189a3.754,3.754,0,0,0,.466,2.051,1.517,1.517,0,0,0,1.354.713,1.7,1.7,0,0,0,1.661-.995V12.375A1.675,1.675,0,0,0,57.9,11.38Q56.066,11.38,56.066,14.364ZM66.807,19h-2.54V9.49h2.54ZM66.06,5.632h2.769L66.394,8.356H64.328Zm8.086,10.74a.818.818,0,0,0-.461-.734,5.241,5.241,0,0,0-1.481-.479q-3.393-.712-3.393-2.883a2.613,2.613,0,0,1,1.05-2.114,4.237,4.237,0,0,1,2.747-.848,4.56,4.56,0,0,1,2.9.853,2.687,2.687,0,0,1,1.085,2.215h-2.54a1.229,1.229,0,0,0-.352-.9,1.488,1.488,0,0,0-1.1-.356,1.52,1.52,0,0,0-.993.29.916.916,0,0,0-.352.738.783.783,0,0,0,.4.681A4.114,4.114,0,0,0,73,13.283a11.019,11.019,0,0,1,1.6.426,2.628,2.628,0,0,1,2.013,2.558,2.481,2.481,0,0,1-1.116,2.1,4.815,4.815,0,0,1-2.883.8,5.029,5.029,0,0,1-2.123-.426,3.561,3.561,0,0,1-1.455-1.169,2.716,2.716,0,0,1-.527-1.6H70.92a1.326,1.326,0,0,0,.5,1.037,1.987,1.987,0,0,0,1.248.36,1.839,1.839,0,0,0,1.1-.277A.861.861,0,0,0,74.146,16.372Zm7.146-9.22V9.49h1.626v1.863H81.291V16.1a1.133,1.133,0,0,0,.2.756,1.015,1.015,0,0,0,.773.229,4.051,4.051,0,0,0,.747-.062v1.925a5.229,5.229,0,0,1-1.538.229,2.425,2.425,0,0,1-2.725-2.7V11.354H77.362V9.49h1.389V7.152ZM87.013,19H84.464V9.49h2.549Zm-2.7-11.971a1.251,1.251,0,0,1,.382-.94,1.648,1.648,0,0,1,2.079,0,1.244,1.244,0,0,1,.387.94,1.247,1.247,0,0,1-.391.949,1.629,1.629,0,0,1-2.065,0A1.247,1.247,0,0,1,84.314,7.029Zm8.745,10.1a1.666,1.666,0,0,0,1.143-.387,1.355,1.355,0,0,0,.457-1.028h2.382a3.258,3.258,0,0,1-.527,1.771,3.48,3.48,0,0,1-1.419,1.248,4.442,4.442,0,0,1-1.991.444,4.129,4.129,0,0,1-3.217-1.3A5.13,5.13,0,0,1,88.709,14.3v-.167a5.071,5.071,0,0,1,1.169-3.507,4.08,4.08,0,0,1,3.208-1.31,4,4,0,0,1,2.861,1.015,3.594,3.594,0,0,1,1.094,2.7H94.659a1.745,1.745,0,0,0-.457-1.206,1.7,1.7,0,0,0-2.5.183,3.749,3.749,0,0,0-.453,2.1v.264a3.8,3.8,0,0,0,.448,2.113A1.549,1.549,0,0,0,93.06,17.128ZM104,19a2.821,2.821,0,0,1-.255-.853,3.073,3.073,0,0,1-2.4,1.028,3.376,3.376,0,0,1-2.316-.809,2.6,2.6,0,0,1-.918-2.039,2.687,2.687,0,0,1,1.121-2.32,5.529,5.529,0,0,1,3.239-.817h1.169v-.545a1.567,1.567,0,0,0-.338-1.055,1.331,1.331,0,0,0-1.068-.4,1.513,1.513,0,0,0-1.006.308,1.045,1.045,0,0,0-.365.844h-2.54a2.551,2.551,0,0,1,.51-1.529,3.37,3.37,0,0,1,1.441-1.1,5.253,5.253,0,0,1,2.092-.4,4.15,4.15,0,0,1,2.791.883,3.09,3.09,0,0,1,1.033,2.483V16.8a4.546,4.546,0,0,0,.378,2.048V19Zm-2.1-1.767a2.188,2.188,0,0,0,1.037-.25,1.645,1.645,0,0,0,.7-.672V14.676h-.949q-1.907,0-2.03,1.318l-.009.149a1.017,1.017,0,0,0,.334.782A1.3,1.3,0,0,0,101.9,17.233Z" transform="translate(737.546 11811)" fill="#fff"/>
      <path id="Trazado_622740" data-name="Trazado 622740" d="M18.66,19V6.2h3.779a5.928,5.928,0,0,1,3.01.756A5.154,5.154,0,0,1,27.484,9.1a6.807,6.807,0,0,1,.721,3.182v.642a6.779,6.779,0,0,1-.725,3.2,5.092,5.092,0,0,1-2.065,2.127A6.2,6.2,0,0,1,22.343,19ZM20.884,8v9.229h1.45a3.339,3.339,0,0,0,2.685-1.094,4.766,4.766,0,0,0,.954-3.142v-.712a4.891,4.891,0,0,0-.905-3.182A3.209,3.209,0,0,0,22.439,8ZM34.4,19.176A4.419,4.419,0,0,1,31.11,17.9a4.639,4.639,0,0,1-1.261-3.406v-.264a5.706,5.706,0,0,1,.549-2.544A4.181,4.181,0,0,1,31.94,9.938a4.078,4.078,0,0,1,2.215-.624,3.733,3.733,0,0,1,3,1.239,5.24,5.24,0,0,1,1.059,3.507v.861H32a2.856,2.856,0,0,0,.787,1.863,2.362,2.362,0,0,0,1.736.686,2.892,2.892,0,0,0,2.391-1.187l1.151,1.1a3.845,3.845,0,0,1-1.525,1.323A4.774,4.774,0,0,1,34.4,19.176Zm-.255-8.147a1.8,1.8,0,0,0-1.419.615,3.189,3.189,0,0,0-.69,1.714h4.069V13.2a2.6,2.6,0,0,0-.571-1.622A1.785,1.785,0,0,0,34.146,11.028ZM45.2,16.416a.968.968,0,0,0-.47-.87,5,5,0,0,0-1.56-.527,8.02,8.02,0,0,1-1.819-.58,2.428,2.428,0,0,1-1.6-2.241,2.531,2.531,0,0,1,1.037-2.057,4.1,4.1,0,0,1,2.637-.826,4.266,4.266,0,0,1,2.755.844,2.677,2.677,0,0,1,1.05,2.188H45.1a1.316,1.316,0,0,0-.457-1.024,1.752,1.752,0,0,0-1.213-.409,1.893,1.893,0,0,0-1.147.325,1.025,1.025,0,0,0-.444.87.866.866,0,0,0,.413.765,5.68,5.68,0,0,0,1.67.549,7.9,7.9,0,0,1,1.973.659A2.794,2.794,0,0,1,46.957,15a2.342,2.342,0,0,1,.347,1.3A2.478,2.478,0,0,1,46.24,18.38a4.535,4.535,0,0,1-2.786.8,4.917,4.917,0,0,1-2.083-.422,3.428,3.428,0,0,1-1.424-1.16A2.746,2.746,0,0,1,39.438,16h2.074a1.5,1.5,0,0,0,.571,1.165,2.22,2.22,0,0,0,1.4.409,2.16,2.16,0,0,0,1.283-.321A.993.993,0,0,0,45.2,16.416Zm7.866,1.055A1.931,1.931,0,0,0,54.4,17a1.591,1.591,0,0,0,.563-1.151h2.013a3.137,3.137,0,0,1-.554,1.657,3.632,3.632,0,0,1-1.406,1.217,4.191,4.191,0,0,1-1.916.448,4.055,4.055,0,0,1-3.164-1.292,5.124,5.124,0,0,1-1.169-3.568V14.1a5.039,5.039,0,0,1,1.16-3.476,4.018,4.018,0,0,1,3.164-1.305,3.907,3.907,0,0,1,2.764.989,3.542,3.542,0,0,1,1.121,2.6H54.959a1.956,1.956,0,0,0-.558-1.345,1.8,1.8,0,0,0-1.332-.527,1.879,1.879,0,0,0-1.6.751,3.834,3.834,0,0,0-.571,2.281V14.4a3.9,3.9,0,0,0,.558,2.307A1.878,1.878,0,0,0,53.069,17.471Zm10.494-6.029a5.285,5.285,0,0,0-.87-.07A1.959,1.959,0,0,0,60.716,12.5V19H58.58V9.49h2.039l.053,1.063a2.406,2.406,0,0,1,2.145-1.239,2,2,0,0,1,.756.123ZM67.185,19H65.049V9.49h2.136ZM64.917,7.021a1.133,1.133,0,0,1,.312-.817,1.179,1.179,0,0,1,.892-.325,1.193,1.193,0,0,1,.9.325,1.125,1.125,0,0,1,.316.817,1.1,1.1,0,0,1-.316.8,1.2,1.2,0,0,1-.9.321,1.188,1.188,0,0,1-.892-.321A1.107,1.107,0,0,1,64.917,7.021Zm12.92,7.321a5.662,5.662,0,0,1-1,3.52,3.481,3.481,0,0,1-5.194.286v4.509H69.5V9.49h1.969l.088.967a3.137,3.137,0,0,1,2.558-1.143,3.242,3.242,0,0,1,2.729,1.3,5.813,5.813,0,0,1,.989,3.6Zm-2.127-.185a3.966,3.966,0,0,0-.567-2.259,1.843,1.843,0,0,0-1.622-.835,1.965,1.965,0,0,0-1.881,1.081v4.219a1.983,1.983,0,0,0,1.9,1.107,1.841,1.841,0,0,0,1.6-.822A4.366,4.366,0,0,0,75.71,14.157Zm6.609-6.979V9.49H84v1.582H82.319v5.309a1.169,1.169,0,0,0,.215.787,1,1,0,0,0,.769.242,3.29,3.29,0,0,0,.747-.088v1.652a5.26,5.26,0,0,1-1.406.2q-2.461,0-2.461-2.716V11.072H78.619V9.49h1.564V7.179ZM87.9,19H85.765V9.49H87.9ZM85.633,7.021a1.133,1.133,0,0,1,.312-.817,1.179,1.179,0,0,1,.892-.325,1.193,1.193,0,0,1,.9.325,1.125,1.125,0,0,1,.316.817,1.1,1.1,0,0,1-.316.8,1.2,1.2,0,0,1-.9.321,1.188,1.188,0,0,1-.892-.321A1.107,1.107,0,0,1,85.633,7.021Zm7.945,9.272,2.013-6.8H97.8L94.5,19H92.646L89.324,9.49h2.215ZM104.679,19a3.3,3.3,0,0,1-.246-.888,3.593,3.593,0,0,1-4.834.246,2.615,2.615,0,0,1-.905-2.021A2.7,2.7,0,0,1,99.823,14a5.473,5.473,0,0,1,3.23-.813h1.31v-.624a1.666,1.666,0,0,0-.413-1.182,1.638,1.638,0,0,0-1.257-.444,1.881,1.881,0,0,0-1.2.365,1.129,1.129,0,0,0-.466.927H98.9a2.37,2.37,0,0,1,.519-1.463A3.455,3.455,0,0,1,100.825,9.7a4.955,4.955,0,0,1,1.991-.387,3.99,3.99,0,0,1,2.663.839,2.993,2.993,0,0,1,1.02,2.36V16.8a4.861,4.861,0,0,0,.36,2.048V19Zm-2.347-1.538a2.429,2.429,0,0,0,1.191-.308,2.055,2.055,0,0,0,.839-.826V14.535h-1.151a3.148,3.148,0,0,0-1.784.413,1.338,1.338,0,0,0-.6,1.169,1.248,1.248,0,0,0,.409.98A1.583,1.583,0,0,0,102.332,17.462Z" transform="translate(527.546 11889.231)" fill="#12263f"/>
      <path id="Trazado_622741" data-name="Trazado 622741" d="M14.14,13.287H8.884v3.938h6.144V19H6.661V6.2h8.306V8H8.884v3.533H14.14Zm5.616,3.006,2.013-6.8h2.206L20.679,19H18.825L15.5,9.49h2.215Zm9.738,2.883A4.419,4.419,0,0,1,26.2,17.9a4.639,4.639,0,0,1-1.261-3.406v-.264a5.706,5.706,0,0,1,.549-2.544,4.181,4.181,0,0,1,1.542-1.745,4.078,4.078,0,0,1,2.215-.624,3.733,3.733,0,0,1,3,1.239,5.24,5.24,0,0,1,1.059,3.507v.861H27.1a2.856,2.856,0,0,0,.787,1.863,2.362,2.362,0,0,0,1.736.686,2.892,2.892,0,0,0,2.391-1.187l1.151,1.1a3.845,3.845,0,0,1-1.525,1.323A4.774,4.774,0,0,1,29.495,19.176Zm-.255-8.147a1.8,1.8,0,0,0-1.419.615,3.189,3.189,0,0,0-.69,1.714H31.2V13.2a2.6,2.6,0,0,0-.571-1.622A1.785,1.785,0,0,0,29.24,11.028ZM36.948,9.49l.062,1.1a3.419,3.419,0,0,1,2.769-1.274q2.971,0,3.023,3.4V19H40.666V12.839a1.958,1.958,0,0,0-.391-1.34A1.645,1.645,0,0,0,39,11.063a2.058,2.058,0,0,0-1.925,1.169V19H34.935V9.49ZM47.653,7.179V9.49h1.679v1.582H47.653v5.309a1.169,1.169,0,0,0,.215.787,1,1,0,0,0,.769.242,3.29,3.29,0,0,0,.747-.088v1.652a5.26,5.26,0,0,1-1.406.2q-2.461,0-2.461-2.716V11.072H43.953V9.49h1.564V7.179ZM50.3,14.157a5.607,5.607,0,0,1,.554-2.518,4.044,4.044,0,0,1,1.556-1.723,4.383,4.383,0,0,1,2.3-.6,4.154,4.154,0,0,1,3.125,1.239,4.874,4.874,0,0,1,1.3,3.287l.009.5a5.658,5.658,0,0,1-.541,2.514,4,4,0,0,1-1.547,1.714,4.415,4.415,0,0,1-2.325.606,4.125,4.125,0,0,1-3.221-1.34A5.133,5.133,0,0,1,50.3,14.263Zm2.136.185a3.832,3.832,0,0,0,.606,2.3,1.971,1.971,0,0,0,1.688.831,1.95,1.95,0,0,0,1.683-.844,4.232,4.232,0,0,0,.6-2.47,3.782,3.782,0,0,0-.62-2.285,2.089,2.089,0,0,0-3.344-.013A4.152,4.152,0,0,0,52.434,14.342Zm13.843,2.074a.968.968,0,0,0-.47-.87,5,5,0,0,0-1.56-.527,8.02,8.02,0,0,1-1.819-.58,2.428,2.428,0,0,1-1.6-2.241,2.531,2.531,0,0,1,1.037-2.057A4.1,4.1,0,0,1,64.5,9.314a4.266,4.266,0,0,1,2.755.844,2.677,2.677,0,0,1,1.05,2.188H66.171a1.316,1.316,0,0,0-.457-1.024,1.752,1.752,0,0,0-1.213-.409,1.893,1.893,0,0,0-1.147.325,1.025,1.025,0,0,0-.444.87.866.866,0,0,0,.413.765,5.68,5.68,0,0,0,1.67.549,7.9,7.9,0,0,1,1.973.659A2.794,2.794,0,0,1,68.03,15a2.342,2.342,0,0,1,.347,1.3,2.478,2.478,0,0,1-1.063,2.079,4.535,4.535,0,0,1-2.786.8,4.917,4.917,0,0,1-2.083-.422,3.428,3.428,0,0,1-1.424-1.16A2.746,2.746,0,0,1,60.511,16h2.074a1.5,1.5,0,0,0,.571,1.165,2.22,2.22,0,0,0,1.4.409,2.16,2.16,0,0,0,1.283-.321A.993.993,0,0,0,66.277,16.416Zm16.77-2.074a5.662,5.662,0,0,1-1,3.52,3.481,3.481,0,0,1-5.194.286v4.509H74.714V9.49h1.969l.088.967a3.137,3.137,0,0,1,2.558-1.143,3.242,3.242,0,0,1,2.729,1.3,5.813,5.813,0,0,1,.989,3.6Zm-2.127-.185a3.966,3.966,0,0,0-.567-2.259,1.843,1.843,0,0,0-1.622-.835,1.965,1.965,0,0,0-1.881,1.081v4.219a1.983,1.983,0,0,0,1.9,1.107,1.841,1.841,0,0,0,1.6-.822A4.366,4.366,0,0,0,80.919,14.157Zm8.912-2.716a5.285,5.285,0,0,0-.87-.07A1.959,1.959,0,0,0,86.984,12.5V19H84.848V9.49h2.039l.053,1.063a2.406,2.406,0,0,1,2.145-1.239,2,2,0,0,1,.756.123Zm5.537,7.734A4.419,4.419,0,0,1,92.077,17.9a4.639,4.639,0,0,1-1.261-3.406v-.264a5.706,5.706,0,0,1,.549-2.544,4.181,4.181,0,0,1,1.542-1.745,4.078,4.078,0,0,1,2.215-.624,3.733,3.733,0,0,1,3,1.239,5.24,5.24,0,0,1,1.059,3.507v.861H92.969a2.856,2.856,0,0,0,.787,1.863,2.362,2.362,0,0,0,1.736.686,2.892,2.892,0,0,0,2.391-1.187l1.151,1.1a3.845,3.845,0,0,1-1.525,1.323A4.774,4.774,0,0,1,95.369,19.176Zm-.255-8.147a1.8,1.8,0,0,0-1.419.615A3.189,3.189,0,0,0,93,13.357h4.069V13.2a2.6,2.6,0,0,0-.571-1.622A1.785,1.785,0,0,0,95.114,11.028Zm11.057,5.388a.968.968,0,0,0-.47-.87,5,5,0,0,0-1.56-.527,8.02,8.02,0,0,1-1.819-.58,2.428,2.428,0,0,1-1.6-2.241,2.531,2.531,0,0,1,1.037-2.057,4.1,4.1,0,0,1,2.637-.826,4.266,4.266,0,0,1,2.755.844,2.677,2.677,0,0,1,1.05,2.188h-2.136a1.316,1.316,0,0,0-.457-1.024,1.752,1.752,0,0,0-1.213-.409,1.893,1.893,0,0,0-1.147.325,1.025,1.025,0,0,0-.444.87.866.866,0,0,0,.413.765,5.68,5.68,0,0,0,1.67.549,7.9,7.9,0,0,1,1.973.659,2.794,2.794,0,0,1,1.063.918,2.342,2.342,0,0,1,.347,1.3,2.478,2.478,0,0,1-1.063,2.079,4.535,4.535,0,0,1-2.786.8,4.917,4.917,0,0,1-2.083-.422,3.428,3.428,0,0,1-1.424-1.16A2.746,2.746,0,0,1,100.4,16h2.074a1.5,1.5,0,0,0,.571,1.165,2.22,2.22,0,0,0,1.4.409,2.16,2.16,0,0,0,1.283-.321A.993.993,0,0,0,106.17,16.416Zm8.147,2.76a4.419,4.419,0,0,1-3.292-1.279,4.639,4.639,0,0,1-1.261-3.406v-.264a5.706,5.706,0,0,1,.549-2.544,4.181,4.181,0,0,1,1.542-1.745,4.078,4.078,0,0,1,2.215-.624,3.733,3.733,0,0,1,3,1.239,5.24,5.24,0,0,1,1.059,3.507v.861h-6.214a2.856,2.856,0,0,0,.787,1.863,2.362,2.362,0,0,0,1.736.686,2.892,2.892,0,0,0,2.391-1.187l1.151,1.1a3.845,3.845,0,0,1-1.525,1.323A4.774,4.774,0,0,1,114.318,19.176Zm-.255-8.147a1.8,1.8,0,0,0-1.419.615,3.189,3.189,0,0,0-.69,1.714h4.069V13.2a2.6,2.6,0,0,0-.571-1.622A1.785,1.785,0,0,0,114.063,11.028Zm7.708-1.538.062,1.1A3.419,3.419,0,0,1,124.6,9.314q2.971,0,3.023,3.4V19h-2.136V12.839a1.958,1.958,0,0,0-.391-1.34,1.645,1.645,0,0,0-1.279-.435,2.058,2.058,0,0,0-1.925,1.169V19h-2.136V9.49Zm10.705-2.312V9.49h1.679v1.582h-1.679v5.309a1.169,1.169,0,0,0,.215.787,1,1,0,0,0,.769.242,3.29,3.29,0,0,0,.747-.088v1.652a5.26,5.26,0,0,1-1.406.2q-2.461,0-2.461-2.716V11.072h-1.564V9.49h1.564V7.179Zm7.5,12a4.419,4.419,0,0,1-3.292-1.279,4.639,4.639,0,0,1-1.261-3.406v-.264a5.706,5.706,0,0,1,.549-2.544,4.181,4.181,0,0,1,1.542-1.745,4.078,4.078,0,0,1,2.215-.624,3.733,3.733,0,0,1,3,1.239,5.24,5.24,0,0,1,1.059,3.507v.861h-6.214a2.856,2.856,0,0,0,.787,1.863,2.362,2.362,0,0,0,1.736.686,2.892,2.892,0,0,0,2.391-1.187l1.151,1.1a3.845,3.845,0,0,1-1.525,1.323A4.774,4.774,0,0,1,139.973,19.176Zm-.255-8.147a1.8,1.8,0,0,0-1.419.615,3.189,3.189,0,0,0-.69,1.714h4.069V13.2a2.6,2.6,0,0,0-.571-1.622A1.785,1.785,0,0,0,139.718,11.028Zm11.057,5.388a.968.968,0,0,0-.47-.87,5,5,0,0,0-1.56-.527,8.02,8.02,0,0,1-1.819-.58,2.428,2.428,0,0,1-1.6-2.241,2.531,2.531,0,0,1,1.037-2.057A4.1,4.1,0,0,1,149,9.314a4.266,4.266,0,0,1,2.755.844,2.677,2.677,0,0,1,1.05,2.188h-2.136a1.316,1.316,0,0,0-.457-1.024A1.752,1.752,0,0,0,149,10.914a1.893,1.893,0,0,0-1.147.325,1.025,1.025,0,0,0-.444.87.866.866,0,0,0,.413.765,5.68,5.68,0,0,0,1.67.549,7.9,7.9,0,0,1,1.973.659,2.794,2.794,0,0,1,1.063.918,2.342,2.342,0,0,1,.347,1.3,2.478,2.478,0,0,1-1.063,2.079,4.535,4.535,0,0,1-2.786.8,4.917,4.917,0,0,1-2.083-.422,3.428,3.428,0,0,1-1.424-1.16,2.746,2.746,0,0,1-.51-1.591h2.074a1.5,1.5,0,0,0,.571,1.165,2.22,2.22,0,0,0,1.4.409,2.16,2.16,0,0,0,1.283-.321A.993.993,0,0,0,150.775,16.416Z" transform="translate(510.546 11959)" fill="#12263f"/>
      <path id="Trazado_622738" data-name="Trazado 622738" d="M23.406,19H21.191V6.2h2.215Zm4.509-9.51.062,1.1a3.419,3.419,0,0,1,2.769-1.274q2.971,0,3.023,3.4V19H31.633V12.839a1.958,1.958,0,0,0-.391-1.34,1.645,1.645,0,0,0-1.279-.435,2.058,2.058,0,0,0-1.925,1.169V19H25.9V9.49ZM36.7,19V11.072h-1.45V9.49H36.7V8.62a3.266,3.266,0,0,1,.879-2.443,3.367,3.367,0,0,1,2.461-.861,4.936,4.936,0,0,1,1.2.158l-.053,1.67a4.207,4.207,0,0,0-.817-.07,1.371,1.371,0,0,0-1.529,1.573V9.49h1.934v1.582H38.831V19Zm9.817.176A4.419,4.419,0,0,1,43.221,17.9a4.639,4.639,0,0,1-1.261-3.406v-.264a5.706,5.706,0,0,1,.549-2.544,4.181,4.181,0,0,1,1.542-1.745,4.078,4.078,0,0,1,2.215-.624,3.733,3.733,0,0,1,3,1.239,5.24,5.24,0,0,1,1.059,3.507v.861H44.113a2.856,2.856,0,0,0,.787,1.863,2.362,2.362,0,0,0,1.736.686,2.892,2.892,0,0,0,2.391-1.187l1.151,1.1a3.845,3.845,0,0,1-1.525,1.323A4.774,4.774,0,0,1,46.513,19.176Zm-.255-8.147a1.8,1.8,0,0,0-1.419.615,3.189,3.189,0,0,0-.69,1.714h4.069V13.2a2.6,2.6,0,0,0-.571-1.622A1.785,1.785,0,0,0,46.258,11.028Zm10.705.413a5.285,5.285,0,0,0-.87-.07A1.959,1.959,0,0,0,54.115,12.5V19H51.979V9.49h2.039l.053,1.063a2.406,2.406,0,0,1,2.145-1.239,2,2,0,0,1,.756.123ZM62.5,19.176A4.419,4.419,0,0,1,59.208,17.9a4.639,4.639,0,0,1-1.261-3.406v-.264a5.706,5.706,0,0,1,.549-2.544,4.181,4.181,0,0,1,1.542-1.745,4.078,4.078,0,0,1,2.215-.624,3.733,3.733,0,0,1,3,1.239,5.24,5.24,0,0,1,1.059,3.507v.861H60.1a2.856,2.856,0,0,0,.787,1.863,2.362,2.362,0,0,0,1.736.686,2.892,2.892,0,0,0,2.391-1.187l1.151,1.1a3.845,3.845,0,0,1-1.525,1.323A4.774,4.774,0,0,1,62.5,19.176Zm-.255-8.147a1.8,1.8,0,0,0-1.419.615,3.189,3.189,0,0,0-.69,1.714h4.069V13.2a2.6,2.6,0,0,0-.571-1.622A1.785,1.785,0,0,0,62.245,11.028ZM69.953,9.49l.062,1.1a3.419,3.419,0,0,1,2.769-1.274q2.971,0,3.023,3.4V19H73.671V12.839a1.958,1.958,0,0,0-.391-1.34A1.645,1.645,0,0,0,72,11.063a2.058,2.058,0,0,0-1.925,1.169V19H67.94V9.49Zm11.936,7.98A1.931,1.931,0,0,0,83.216,17a1.591,1.591,0,0,0,.563-1.151h2.013a3.137,3.137,0,0,1-.554,1.657,3.632,3.632,0,0,1-1.406,1.217,4.191,4.191,0,0,1-1.916.448,4.055,4.055,0,0,1-3.164-1.292,5.124,5.124,0,0,1-1.169-3.568V14.1a5.039,5.039,0,0,1,1.16-3.476,4.018,4.018,0,0,1,3.164-1.305,3.907,3.907,0,0,1,2.764.989,3.542,3.542,0,0,1,1.121,2.6H83.778a1.956,1.956,0,0,0-.558-1.345,1.8,1.8,0,0,0-1.332-.527,1.879,1.879,0,0,0-1.6.751,3.834,3.834,0,0,0-.571,2.281V14.4a3.9,3.9,0,0,0,.558,2.307A1.878,1.878,0,0,0,81.889,17.471ZM89.676,19H87.54V9.49h2.136ZM87.408,7.021A1.133,1.133,0,0,1,87.72,6.2a1.179,1.179,0,0,1,.892-.325,1.193,1.193,0,0,1,.9.325,1.125,1.125,0,0,1,.316.817,1.1,1.1,0,0,1-.316.8,1.2,1.2,0,0,1-.9.321,1.188,1.188,0,0,1-.892-.321A1.107,1.107,0,0,1,87.408,7.021ZM97.683,19a3.3,3.3,0,0,1-.246-.888,3.593,3.593,0,0,1-4.834.246,2.615,2.615,0,0,1-.905-2.021A2.7,2.7,0,0,1,92.827,14a5.473,5.473,0,0,1,3.23-.813h1.31v-.624a1.666,1.666,0,0,0-.413-1.182A1.638,1.638,0,0,0,95.7,10.94a1.881,1.881,0,0,0-1.2.365,1.129,1.129,0,0,0-.466.927H91.9a2.37,2.37,0,0,1,.519-1.463A3.455,3.455,0,0,1,93.829,9.7a4.955,4.955,0,0,1,1.991-.387,3.99,3.99,0,0,1,2.663.839,2.993,2.993,0,0,1,1.02,2.36V16.8a4.861,4.861,0,0,0,.36,2.048V19Zm-2.347-1.538a2.429,2.429,0,0,0,1.191-.308,2.055,2.055,0,0,0,.839-.826V14.535H96.215a3.148,3.148,0,0,0-1.784.413,1.338,1.338,0,0,0-.6,1.169,1.248,1.248,0,0,0,.409.98A1.583,1.583,0,0,0,95.336,17.462ZM104.011,19h-2.136V5.5h2.136Z" transform="translate(947.546 11889.231)" fill="#12263f"/>
      <path id="Trazado_622739" data-name="Trazado 622739" d="M13.188,13.287H7.932v3.938h6.144V19H5.708V6.2h8.306V8H7.932v3.533h5.256ZM18.8,16.293l2.013-6.8h2.206L19.727,19H17.873L14.55,9.49h2.215Zm9.738,2.883A4.419,4.419,0,0,1,25.251,17.9a4.639,4.639,0,0,1-1.261-3.406v-.264a5.706,5.706,0,0,1,.549-2.544,4.181,4.181,0,0,1,1.542-1.745A4.078,4.078,0,0,1,28.3,9.314a3.733,3.733,0,0,1,3,1.239,5.24,5.24,0,0,1,1.059,3.507v.861H26.143a2.856,2.856,0,0,0,.787,1.863,2.362,2.362,0,0,0,1.736.686,2.892,2.892,0,0,0,2.391-1.187l1.151,1.1a3.845,3.845,0,0,1-1.525,1.323A4.774,4.774,0,0,1,28.542,19.176Zm-.255-8.147a1.8,1.8,0,0,0-1.419.615,3.189,3.189,0,0,0-.69,1.714h4.069V13.2a2.6,2.6,0,0,0-.571-1.622A1.785,1.785,0,0,0,28.288,11.028ZM36,9.49l.062,1.1a3.419,3.419,0,0,1,2.769-1.274q2.971,0,3.023,3.4V19H39.713V12.839a1.958,1.958,0,0,0-.391-1.34,1.645,1.645,0,0,0-1.279-.435,2.058,2.058,0,0,0-1.925,1.169V19H33.983V9.49ZM46.7,7.179V9.49h1.679v1.582H46.7v5.309a1.169,1.169,0,0,0,.215.787,1,1,0,0,0,.769.242,3.29,3.29,0,0,0,.747-.088v1.652a5.26,5.26,0,0,1-1.406.2q-2.461,0-2.461-2.716V11.072H43V9.49h1.564V7.179Zm2.646,6.979a5.607,5.607,0,0,1,.554-2.518,4.044,4.044,0,0,1,1.556-1.723,4.383,4.383,0,0,1,2.3-.6,4.154,4.154,0,0,1,3.125,1.239,4.874,4.874,0,0,1,1.3,3.287l.009.5a5.658,5.658,0,0,1-.541,2.514A4,4,0,0,1,56.1,18.569a4.415,4.415,0,0,1-2.325.606,4.125,4.125,0,0,1-3.221-1.34,5.133,5.133,0,0,1-1.208-3.573Zm2.136.185a3.832,3.832,0,0,0,.606,2.3,1.971,1.971,0,0,0,1.688.831,1.95,1.95,0,0,0,1.683-.844,4.232,4.232,0,0,0,.6-2.47,3.782,3.782,0,0,0-.62-2.285,2.089,2.089,0,0,0-3.344-.013A4.152,4.152,0,0,0,51.482,14.342Zm13.843,2.074a.968.968,0,0,0-.47-.87,5,5,0,0,0-1.56-.527,8.02,8.02,0,0,1-1.819-.58,2.428,2.428,0,0,1-1.6-2.241,2.531,2.531,0,0,1,1.037-2.057,4.1,4.1,0,0,1,2.637-.826,4.266,4.266,0,0,1,2.755.844,2.677,2.677,0,0,1,1.05,2.188H65.219a1.316,1.316,0,0,0-.457-1.024,1.752,1.752,0,0,0-1.213-.409,1.893,1.893,0,0,0-1.147.325,1.025,1.025,0,0,0-.444.87.866.866,0,0,0,.413.765,5.68,5.68,0,0,0,1.67.549,7.9,7.9,0,0,1,1.973.659A2.794,2.794,0,0,1,67.078,15a2.342,2.342,0,0,1,.347,1.3,2.478,2.478,0,0,1-1.063,2.079,4.535,4.535,0,0,1-2.786.8,4.917,4.917,0,0,1-2.083-.422,3.428,3.428,0,0,1-1.424-1.16A2.746,2.746,0,0,1,59.559,16h2.074a1.5,1.5,0,0,0,.571,1.165,2.22,2.22,0,0,0,1.4.409,2.16,2.16,0,0,0,1.283-.321A.993.993,0,0,0,65.325,16.416ZM74.518,19V11.072h-1.45V9.49h1.45V8.62A3.266,3.266,0,0,1,75.4,6.177a3.367,3.367,0,0,1,2.461-.861,4.936,4.936,0,0,1,1.2.158L79,7.144a4.207,4.207,0,0,0-.817-.07,1.371,1.371,0,0,0-1.529,1.573V9.49h1.934v1.582H76.654V19Zm11.391-.932a3.312,3.312,0,0,1-2.672,1.107,2.952,2.952,0,0,1-2.342-.905,3.851,3.851,0,0,1-.8-2.619V9.49h2.136v6.135q0,1.811,1.5,1.811a2.111,2.111,0,0,0,2.1-1.116V9.49h2.136V19H85.961Zm6.917-10.89V9.49H94.5v1.582H92.826v5.309a1.169,1.169,0,0,0,.215.787,1,1,0,0,0,.769.242,3.29,3.29,0,0,0,.747-.088v1.652a5.26,5.26,0,0,1-1.406.2q-2.461,0-2.461-2.716V11.072H89.125V9.49H90.69V7.179Zm9.07,10.89a3.312,3.312,0,0,1-2.672,1.107,2.952,2.952,0,0,1-2.342-.905,3.851,3.851,0,0,1-.8-2.619V9.49h2.136v6.135q0,1.811,1.5,1.811a2.111,2.111,0,0,0,2.1-1.116V9.49h2.136V19h-2.013Zm9.22-6.627a5.285,5.285,0,0,0-.87-.07,1.959,1.959,0,0,0-1.978,1.125V19h-2.136V9.49h2.039l.053,1.063a2.406,2.406,0,0,1,2.145-1.239,2,2,0,0,1,.756.123Zm.633,2.716a5.607,5.607,0,0,1,.554-2.518,4.044,4.044,0,0,1,1.556-1.723,4.383,4.383,0,0,1,2.3-.6,4.154,4.154,0,0,1,3.125,1.239,4.874,4.874,0,0,1,1.3,3.287l.009.5a5.658,5.658,0,0,1-.541,2.514,4,4,0,0,1-1.547,1.714,4.415,4.415,0,0,1-2.325.606,4.125,4.125,0,0,1-3.221-1.34,5.133,5.133,0,0,1-1.208-3.573Zm2.136.185a3.832,3.832,0,0,0,.606,2.3,1.971,1.971,0,0,0,1.688.831,1.95,1.95,0,0,0,1.683-.844,4.232,4.232,0,0,0,.6-2.47,3.782,3.782,0,0,0-.62-2.285,2.089,2.089,0,0,0-3.344-.013A4.152,4.152,0,0,0,113.884,14.342Zm13.843,2.074a.968.968,0,0,0-.47-.87,5,5,0,0,0-1.56-.527,8.02,8.02,0,0,1-1.819-.58,2.428,2.428,0,0,1-1.6-2.241,2.531,2.531,0,0,1,1.037-2.057,4.1,4.1,0,0,1,2.637-.826,4.266,4.266,0,0,1,2.755.844,2.677,2.677,0,0,1,1.05,2.188h-2.136a1.316,1.316,0,0,0-.457-1.024,1.752,1.752,0,0,0-1.213-.409,1.893,1.893,0,0,0-1.147.325,1.025,1.025,0,0,0-.444.87.866.866,0,0,0,.413.765,5.68,5.68,0,0,0,1.67.549,7.9,7.9,0,0,1,1.973.659A2.794,2.794,0,0,1,129.48,15a2.342,2.342,0,0,1,.347,1.3,2.478,2.478,0,0,1-1.063,2.079,4.535,4.535,0,0,1-2.786.8,4.917,4.917,0,0,1-2.083-.422,3.428,3.428,0,0,1-1.424-1.16,2.746,2.746,0,0,1-.51-1.591h2.074a1.5,1.5,0,0,0,.571,1.165,2.22,2.22,0,0,0,1.4.409,2.16,2.16,0,0,0,1.283-.321A.993.993,0,0,0,127.727,16.416Z" transform="translate(942.546 11959)" fill="#12263f"/>
    </g>
  </g>
</svg>
